<svg width="53" height="53" viewBox="0 0 53 53" fill="none" xmlns="http://www.w3.org/2000/svg">
<path d="M0.734375 26.334C0.734375 12.2507 12.1511 0.833984 26.2344 0.833984C40.3176 0.833984 51.7344 12.2507 51.7344 26.334C51.7344 40.4172 40.3176 51.834 26.2344 51.834C12.1511 51.834 0.734375 40.4172 0.734375 26.334Z" fill="#CCCCCC"/>
<path d="M0.734375 26.334C0.734375 12.2507 12.1511 0.833984 26.2344 0.833984C40.3176 0.833984 51.7344 12.2507 51.7344 26.334C51.7344 40.4172 40.3176 51.834 26.2344 51.834C12.1511 51.834 0.734375 40.4172 0.734375 26.334Z" stroke="#CCCCCC"/>
<path d="M19.2344 31.334L24.2344 32.334L24.9844 30.834M30.2344 35.334V31.334L26.2344 28.334L27.2344 22.334M27.2344 18.334C27.2344 18.5992 27.3397 18.8536 27.5273 19.0411C27.7148 19.2286 27.9692 19.334 28.2344 19.334C28.4996 19.334 28.7539 19.2286 28.9415 19.0411C29.129 18.8536 29.2344 18.5992 29.2344 18.334C29.2344 18.0688 29.129 17.8144 28.9415 17.6269C28.7539 17.4393 28.4996 17.334 28.2344 17.334C27.9692 17.334 27.7148 17.4393 27.5273 17.6269C27.3397 17.8144 27.2344 18.0688 27.2344 18.334Z" stroke="black" stroke-width="2" stroke-linecap="round" stroke-linejoin="round"/>
<path d="M22.2344 26.3359V23.3359L27.2344 22.3359L30.2344 25.3359L33.2344 26.3359" stroke="black" stroke-width="2" stroke-linecap="round" stroke-linejoin="round"/>
</svg>