<svg width="32" height="32" viewBox="0 0 32 32" fill="none" xmlns="http://www.w3.org/2000/svg">
<rect x="0.5" y="0.5" width="31" height="31" rx="3.5" stroke="#BEBEBE"/>
<path d="M19.2 14.4C16.794 14.4 14.802 16.17 14.454 18.48H12.16C11.85 18.48 11.6 18.23 11.6 17.92V10.64H17.42C17.704 11.344 18.394 11.84 19.2 11.84C20.26 11.84 21.12 10.98 21.12 9.92C21.12 8.86 20.26 8 19.2 8C18.394 8 17.704 8.496 17.42 9.2H8V10.64H10.16V17.92C10.16 19.024 11.056 19.92 12.16 19.92H14.454C14.802 22.23 16.794 24 19.2 24C21.85 24 24 21.85 24 19.2C24 16.55 21.85 14.4 19.2 14.4ZM21.76 19.72C21.76 19.808 21.688 19.88 21.6 19.88H19.88V21.6C19.88 21.688 19.808 21.76 19.72 21.76H18.68C18.592 21.76 18.52 21.688 18.52 21.6V19.88H16.8C16.712 19.88 16.64 19.808 16.64 19.72V18.68C16.64 18.592 16.712 18.52 16.8 18.52H18.52V16.8C18.52 16.712 18.592 16.64 18.68 16.64H19.72C19.808 16.64 19.88 16.712 19.88 16.8V18.52H21.6C21.688 18.52 21.76 18.592 21.76 18.68V19.72Z" fill="#252525"/>
</svg>
