<svg width="14" height="15" viewBox="0 0 14 15" fill="none" xmlns="http://www.w3.org/2000/svg">
<path d="M4.37516 3.76797L2.91682 4.58464L3.73349 3.1263L2.91682 1.66797L4.37516 2.48464L5.83349 1.66797L5.01682 3.1263L5.83349 4.58464L4.37516 3.76797ZM11.3752 9.48463L12.8335 8.66797L12.0168 10.1263L12.8335 11.5846L11.3752 10.768L9.91682 11.5846L10.7335 10.1263L9.91682 8.66797L11.3752 9.48463ZM12.8335 1.66797L12.0168 3.1263L12.8335 4.58464L11.3752 3.76797L9.91682 4.58464L10.7335 3.1263L9.91682 1.66797L11.3752 2.48464L12.8335 1.66797ZM7.78182 7.9563L9.20515 6.53297L7.96849 5.2963L6.54516 6.71964L7.78182 7.9563ZM8.38265 4.7538L9.74765 6.1188C9.97515 6.33464 9.97515 6.7138 9.74765 6.9413L2.94016 13.7488C2.71266 13.9763 2.33349 13.9763 2.11766 13.7488L0.752656 12.3838C0.525156 12.168 0.525156 11.7888 0.752656 11.5613L7.56015 4.7538C7.78765 4.5263 8.16682 4.5263 8.38265 4.7538Z" fill="url(#paint0_linear_4728_16485)"/>
<defs>
<linearGradient id="paint0_linear_4728_16485" x1="-0.0279027" y1="-10.073" x2="15.9742" y2="-8.84094" gradientUnits="userSpaceOnUse">
<stop stop-color="#F04040"/>
<stop offset="0.27" stop-color="#EDF040"/>
<stop offset="0.5" stop-color="#40F0DA"/>
<stop offset="0.7" stop-color="#5840EF"/>
<stop offset="1" stop-color="#EF40E8"/>
</linearGradient>
</defs>
</svg>