<svg width="13" height="13" viewBox="0 0 13 13" fill="none" xmlns="http://www.w3.org/2000/svg">
<path d="M10.875 7.75H2.125C1.43464 7.75 0.875 8.30964 0.875 9V10.875C0.875 11.5654 1.43464 12.125 2.125 12.125H10.875C11.5654 12.125 12.125 11.5654 12.125 10.875V9C12.125 8.30964 11.5654 7.75 10.875 7.75Z" stroke="#DD127A"/>
<path d="M5.25 1.1875H2.125C1.79348 1.1875 1.47554 1.3192 1.24112 1.55362C1.0067 1.78804 0.875 2.10598 0.875 2.4375V4.3125C0.875 4.64402 1.0067 4.96196 1.24112 5.19638C1.47554 5.4308 1.79348 5.5625 2.125 5.5625H5.25" stroke="#DD127A" stroke-linecap="round"/>
<path d="M9.625 5.875C11.0057 5.875 12.125 4.75571 12.125 3.375C12.125 1.99429 11.0057 0.875 9.625 0.875C8.24429 0.875 7.125 1.99429 7.125 3.375C7.125 4.75571 8.24429 5.875 9.625 5.875Z" stroke="#DD127A"/>
<path d="M9.625 4.3125C10.1428 4.3125 10.5625 3.89277 10.5625 3.375C10.5625 2.85723 10.1428 2.4375 9.625 2.4375C9.10723 2.4375 8.6875 2.85723 8.6875 3.375C8.6875 3.89277 9.10723 4.3125 9.625 4.3125Z" fill="#DD127A"/>
</svg>
