<svg width="15" height="15" viewBox="0 0 15 15" fill="none" xmlns="http://www.w3.org/2000/svg">
<path d="M14.0625 11.25V10.3125H13.0777C13.0172 10.0191 12.9007 9.74007 12.7345 9.49078L13.433 8.79234L12.7702 8.12953L12.0717 8.82797C11.8224 8.6618 11.5434 8.5453 11.25 8.48484V7.5H10.3125V8.48484C10.0191 8.5453 9.74007 8.6618 9.49078 8.82797L8.79234 8.12953L8.12953 8.79234L8.82797 9.49078C8.6618 9.74007 8.5453 10.0191 8.48484 10.3125H7.5V11.25H8.48484C8.5453 11.5434 8.6618 11.8224 8.82797 12.0717L8.12953 12.7702L8.79234 13.433L9.49078 12.7345C9.74007 12.9007 10.0191 13.0172 10.3125 13.0777V14.0625H11.25V13.0777C11.5434 13.0172 11.8224 12.9007 12.0717 12.7345L12.7702 13.433L13.433 12.7702L12.7345 12.0717C12.9007 11.8224 13.0172 11.5434 13.0777 11.25H14.0625ZM10.7812 12.1875C10.5031 12.1875 10.2312 12.105 9.99998 11.9505C9.76872 11.796 9.58848 11.5764 9.48204 11.3194C9.37561 11.0624 9.34776 10.7797 9.40202 10.5069C9.45628 10.2341 9.59021 9.98355 9.78688 9.78688C9.98355 9.59021 10.2341 9.45628 10.5069 9.40202C10.7797 9.34776 11.0624 9.37561 11.3194 9.48204C11.5764 9.58848 11.796 9.76872 11.9505 9.99998C12.105 10.2312 12.1875 10.5031 12.1875 10.7812C12.1871 11.1541 12.0389 11.5116 11.7752 11.7752C11.5116 12.0389 11.1541 12.1871 10.7812 12.1875Z" fill="#DD127A"/>
<path d="M13.125 1.875H1.875C1.62644 1.87525 1.38812 1.9741 1.21236 2.14986C1.0366 2.32562 0.937748 2.56394 0.9375 2.8125V12.1875C0.937748 12.4361 1.0366 12.6744 1.21236 12.8501C1.38812 13.0259 1.62644 13.1248 1.875 13.125H6.5625V12.1875H1.875V5.625H13.125V7.03125H14.0625V2.8125C14.0623 2.56394 13.9634 2.32562 13.7876 2.14986C13.6119 1.9741 13.3736 1.87525 13.125 1.875ZM13.125 4.6875H1.875V2.8125H13.125V4.6875Z" fill="#DD127A"/>
<path d="M9.375 4.21875C9.63388 4.21875 9.84375 4.00888 9.84375 3.75C9.84375 3.49112 9.63388 3.28125 9.375 3.28125C9.11612 3.28125 8.90625 3.49112 8.90625 3.75C8.90625 4.00888 9.11612 4.21875 9.375 4.21875Z" fill="#DD127A"/>
<path d="M10.7812 4.21875C11.0401 4.21875 11.25 4.00888 11.25 3.75C11.25 3.49112 11.0401 3.28125 10.7812 3.28125C10.5224 3.28125 10.3125 3.49112 10.3125 3.75C10.3125 4.00888 10.5224 4.21875 10.7812 4.21875Z" fill="#DD127A"/>
<path d="M12.1875 4.21875C12.4464 4.21875 12.6562 4.00888 12.6562 3.75C12.6562 3.49112 12.4464 3.28125 12.1875 3.28125C11.9286 3.28125 11.7188 3.49112 11.7188 3.75C11.7188 4.00888 11.9286 4.21875 12.1875 4.21875Z" fill="#DD127A"/>
</svg>
