<svg width="13" height="15" viewBox="0 0 13 15" fill="none" xmlns="http://www.w3.org/2000/svg">
<path d="M7.75 1.875L5.875 0V1.25H1.5C1.16848 1.25 0.850537 1.3817 0.616116 1.61612C0.381696 1.85054 0.25 2.16848 0.25 2.5V12.5C0.25 12.8315 0.381696 13.1495 0.616116 13.3839C0.850537 13.6183 1.16848 13.75 1.5 13.75H4V12.5H1.5V2.5H5.875V3.75L7.75 1.875ZM5.25 13.125L7.125 15V13.75H11.5C11.8315 13.75 12.1495 13.6183 12.3839 13.3839C12.6183 13.1495 12.75 12.8315 12.75 12.5V2.5C12.75 2.16848 12.6183 1.85054 12.3839 1.61612C12.1495 1.3817 11.8315 1.25 11.5 1.25H9V2.5H11.5V12.5H7.125V11.25L5.25 13.125Z" fill="#DD127A"/>
</svg>
