<svg width="24" height="24" viewBox="0 0 24 24" fill="none" xmlns="http://www.w3.org/2000/svg">
<path fill-rule="evenodd" clip-rule="evenodd" d="M6.35853 8.75857C6.58356 8.53361 6.88873 8.40723 7.20693 8.40723C7.52513 8.40723 7.8303 8.53361 8.05533 8.75857L12.0069 12.7102L15.9585 8.75857C16.1849 8.53998 16.488 8.41903 16.8026 8.42176C17.1173 8.4245 17.4182 8.5507 17.6407 8.77319C17.8632 8.99568 17.9894 9.29665 17.9921 9.61129C17.9949 9.92593 17.8739 10.229 17.6553 10.4554L12.8553 15.2554C12.6303 15.4803 12.3251 15.6067 12.0069 15.6067C11.6887 15.6067 11.3836 15.4803 11.1585 15.2554L6.35853 10.4554C6.13357 10.2303 6.00719 9.92517 6.00719 9.60697C6.00719 9.28877 6.13357 8.9836 6.35853 8.75857Z" fill="#79747E"/>
</svg>
