<svg width="20" height="20" viewBox="0 0 20 20" fill="none" xmlns="http://www.w3.org/2000/svg">
<path fill-rule="evenodd" clip-rule="evenodd" d="M5.29943 7.29865C5.48696 7.11117 5.74126 7.00586 6.00643 7.00586C6.27159 7.00586 6.5259 7.11117 6.71343 7.29865L10.0064 10.5916L13.2994 7.29865C13.488 7.11649 13.7406 7.01569 14.0028 7.01797C14.265 7.02025 14.5158 7.12542 14.7012 7.31083C14.8867 7.49624 14.9918 7.74705 14.9941 8.00924C14.9964 8.27144 14.8956 8.52404 14.7134 8.71265L10.7134 12.7126C10.5259 12.9001 10.2716 13.0054 10.0064 13.0054C9.74126 13.0054 9.48696 12.9001 9.29943 12.7126L5.29943 8.71265C5.11196 8.52512 5.00664 8.27081 5.00664 8.00565C5.00664 7.74048 5.11196 7.48617 5.29943 7.29865Z" fill="#DD127A"/>
</svg>
