<svg width="15" height="15" viewBox="0 0 15 15" fill="none" xmlns="http://www.w3.org/2000/svg">
<path d="M7.56592 9.375C7.49756 9.52148 7.44629 9.67285 7.41211 9.8291C7.37793 9.98535 7.34619 10.1465 7.31689 10.3125H2.8125V9.375H7.56592ZM2.8125 12.1875V11.25H7.30225C7.32666 11.4111 7.36084 11.5698 7.40479 11.7261C7.44873 11.8823 7.50488 12.0361 7.57324 12.1875H2.8125ZM1.875 14.0625H11.7554L12.6855 15H0.9375V0H9.104L13.125 4.021V8.18115C12.9834 8.0542 12.8345 7.93945 12.6782 7.83691C12.522 7.73438 12.3584 7.64404 12.1875 7.56592V4.6875H8.4375V0.9375H1.875V14.0625ZM9.375 1.604V3.75H11.521L9.375 1.604ZM9.55078 7.5C9.01855 7.7002 8.56201 8.0127 8.18115 8.4375H2.8125V7.5H9.55078ZM2.8125 3.75H7.5V4.6875H2.8125V3.75ZM11.25 5.625V6.5625H2.8125V5.625H11.25ZM15 14.5312C15 14.6582 14.9536 14.7681 14.8608 14.8608C14.7681 14.9536 14.6582 15 14.5312 15C14.4043 15 14.2944 14.9536 14.2017 14.8608L12.0703 12.7368C11.8799 12.8638 11.6748 12.959 11.4551 13.0225C11.2354 13.0859 11.0107 13.1201 10.7812 13.125C10.459 13.125 10.1562 13.064 9.87305 12.9419C9.58984 12.8198 9.34082 12.6538 9.12598 12.4438C8.91113 12.2339 8.74268 11.9849 8.62061 11.6968C8.49854 11.4087 8.4375 11.1035 8.4375 10.7812C8.4375 10.459 8.49854 10.1562 8.62061 9.87305C8.74268 9.58984 8.90869 9.34326 9.11865 9.1333C9.32861 8.92334 9.57764 8.75488 9.86572 8.62793C10.1538 8.50098 10.459 8.4375 10.7812 8.4375C11.1035 8.4375 11.4062 8.49854 11.6895 8.62061C11.9727 8.74268 12.2192 8.91113 12.4292 9.12598C12.6392 9.34082 12.8076 9.58984 12.9346 9.87305C13.0615 10.1562 13.125 10.459 13.125 10.7812C13.125 11.0107 13.0933 11.2354 13.0298 11.4551C12.9663 11.6748 12.8687 11.8799 12.7368 12.0703L14.8608 14.2017C14.9536 14.2944 15 14.4043 15 14.5312ZM9.375 10.7812C9.375 10.9766 9.41162 11.1597 9.48486 11.3306C9.55811 11.5015 9.6582 11.6504 9.78516 11.7773C9.91211 11.9043 10.061 12.0044 10.2319 12.0776C10.4028 12.1509 10.5859 12.1875 10.7812 12.1875C10.9766 12.1875 11.1597 12.1509 11.3306 12.0776C11.5015 12.0044 11.6504 11.9043 11.7773 11.7773C11.9043 11.6504 12.0044 11.5015 12.0776 11.3306C12.1509 11.1597 12.1875 10.9766 12.1875 10.7812C12.1875 10.5859 12.1509 10.4028 12.0776 10.2319C12.0044 10.061 11.9043 9.91211 11.7773 9.78516C11.6504 9.6582 11.5015 9.55811 11.3306 9.48486C11.1597 9.41162 10.9766 9.375 10.7812 9.375C10.5859 9.375 10.4028 9.41162 10.2319 9.48486C10.061 9.55811 9.91211 9.6582 9.78516 9.78516C9.6582 9.91211 9.55811 10.061 9.48486 10.2319C9.41162 10.4028 9.375 10.5859 9.375 10.7812Z" fill="#DD127A"/>
</svg>
