<svg width="12" height="13" viewBox="0 0 12 13" fill="none" xmlns="http://www.w3.org/2000/svg">
<path fill-rule="evenodd" clip-rule="evenodd" d="M0.800781 8.10078C0.800781 8.41904 0.92721 8.72427 1.15225 8.94931C1.3773 9.17435 1.68252 9.30078 2.00078 9.30078H3.20078V8.50078H2.00078C1.89469 8.50078 1.79295 8.45864 1.71794 8.38363C1.64292 8.30861 1.60078 8.20687 1.60078 8.10078V2.50078C1.60078 2.39469 1.64292 2.29295 1.71794 2.21794C1.79295 2.14292 1.89469 2.10078 2.00078 2.10078H7.60078C7.70687 2.10078 7.80861 2.14292 7.88363 2.21794C7.95864 2.29295 8.00078 2.39469 8.00078 2.50078V3.70078H4.40078C4.08252 3.70078 3.7773 3.82721 3.55225 4.05225C3.32721 4.2773 3.20078 4.58252 3.20078 4.90078V10.5008C3.20078 10.819 3.32721 11.1243 3.55225 11.3493C3.7773 11.5744 4.08252 11.7008 4.40078 11.7008H10.0008C10.319 11.7008 10.6243 11.5744 10.8493 11.3493C11.0744 11.1243 11.2008 10.819 11.2008 10.5008V4.90078C11.2008 4.58252 11.0744 4.2773 10.8493 4.05225C10.6243 3.82721 10.319 3.70078 10.0008 3.70078H8.80078V2.50078C8.80078 2.18252 8.67435 1.8773 8.44931 1.65225C8.22427 1.42721 7.91904 1.30078 7.60078 1.30078H2.00078C1.68252 1.30078 1.3773 1.42721 1.15225 1.65225C0.92721 1.8773 0.800781 2.18252 0.800781 2.50078V8.10078ZM4.00078 4.90078C4.00078 4.79469 4.04292 4.69295 4.11794 4.61794C4.19295 4.54292 4.29469 4.50078 4.40078 4.50078H10.0008C10.1069 4.50078 10.2086 4.54292 10.2836 4.61794C10.3586 4.69295 10.4008 4.79469 10.4008 4.90078V10.5008C10.4008 10.6069 10.3586 10.7086 10.2836 10.7836C10.2086 10.8586 10.1069 10.9008 10.0008 10.9008H4.40078C4.29469 10.9008 4.19295 10.8586 4.11794 10.7836C4.04292 10.7086 4.00078 10.6069 4.00078 10.5008V4.90078Z" fill="#DD127A"/>
</svg>