<svg width="40" height="40" viewBox="0 0 40 40" fill="none" xmlns="http://www.w3.org/2000/svg">
<rect width="40" height="40" rx="20" fill="#C7C7C7"/>
<path d="M17.052 20.7145C16.707 20.871 16.364 21.8935 16.127 22.2505M30.205 15.602C30.0475 15.846 29.856 15.8385 29.7735 16.126C29.6945 17.7415 28.7535 17.489 28.227 18.726C28.1635 18.854 28.1275 18.935 28.042 18.983C27.8855 19.863 26.7105 20.1355 25.997 19.548C25.722 19.4335 25.435 18.808 25.273 18.685C24.836 18.317 25.788 18.16 25.982 17.858C26.322 17.223 25.945 17.045 26.953 16.8455C27.548 15.503 27.8745 16.368 28.366 15.5665C28.626 15.358 28.679 14.968 28.8025 14.621C29.2105 14.0985 29.915 14.433 30.0255 14.9085C30.0135 15.076 30.376 15.3935 30.2055 15.6025L30.205 15.602Z" stroke="black" stroke-linecap="round" stroke-linejoin="round"/>
<path d="M17.9924 20.2884C17.6609 20.3844 17.2979 20.4714 17.0469 20.7199M25.5654 19.0654H25.5604M27.9239 19.2044V19.1994M27.9239 19.2094C27.9224 19.2094 27.9249 19.2019 27.9289 19.2044" stroke="black" stroke-linecap="round" stroke-linejoin="round"/>
<path d="M27.9275 19.1992C27.9205 19.1992 27.933 19.2127 27.9225 19.2242M26.8945 22.4562C27.875 21.0732 28.579 21.3172 27.907 19.2557" stroke="black" stroke-linecap="round" stroke-linejoin="round"/>
<path d="M27.9236 19.2301C27.8936 19.2511 27.9146 19.2966 27.9236 19.2246M26.9011 22.4561H26.8961M26.8861 22.4611L26.9061 22.4461C26.4751 22.9516 26.3551 23.5566 26.8241 24.1466M27.3941 25.6111C27.3161 25.1421 26.9566 24.6271 26.8291 24.1466" stroke="black" stroke-linecap="round" stroke-linejoin="round"/>
<path d="M20.0215 25.3078C20.9865 24.4613 22.1995 24.7243 23.3665 24.5888C23.701 24.0648 24.403 23.9263 24.9125 24.0798C25.447 24.2193 27.6395 27.3588 27.394 25.6058M19.9595 25.5953C19.9105 25.4603 20.0005 25.3843 20.021 25.3023M16.132 22.2503C15.693 22.7768 15.368 22.8078 16.0445 23.2833C16.464 24.0708 16.6185 24.5483 17.7145 24.4748C18.015 24.6378 18.0345 24.9808 18.254 25.2818C18.612 25.6333 20.157 26.7088 19.9645 25.6108M23.51 20.1648C22.664 21.6448 19.3715 20.3608 17.4675 20.8478M23.988 19.7588C23.7945 19.8468 23.753 20.0273 23.505 20.1643M25.6115 19.1523C25.1685 19.4958 24.433 19.4568 23.9775 19.7588M25.6115 17.9038C25.6595 17.9808 25.729 17.9923 25.7245 18.0423M25.6115 17.8988C24.9995 17.8773 25.042 17.0433 24.635 16.5628C24.24 16.1778 23.8625 15.7078 23.207 15.5298C22.0395 14.8908 18.5855 14.9378 17.2565 14.6113" stroke="black" stroke-linecap="round" stroke-linejoin="round"/>
<path d="M17.4679 20.8481C18.0394 20.6291 18.3739 19.3931 18.0694 18.8906C17.9179 18.7546 17.4864 18.5456 17.3809 18.2636C17.1664 15.9326 19.0859 14.5896 15.8289 14.2871M15.9109 23.1551C14.8734 23.5946 12.4494 22.3261 11.5184 21.6701M11.5184 21.6651C11.4234 21.5201 10.9204 21.3751 10.6914 21.1566" stroke="black" stroke-linecap="round" stroke-linejoin="round"/>
<path d="M10.6899 21.1514C10.7024 21.2049 10.6314 21.1334 10.6749 21.1414M10.6799 21.1414C10.4634 21.0229 10.3664 20.5214 10.2174 20.2064M10.2174 20.2009C10.0159 19.9239 10.0574 19.1859 9.85742 18.8809" stroke="black" stroke-linecap="round" stroke-linejoin="round"/>
<path d="M9.863 18.8898C9.8315 18.7948 9.762 18.7283 9.75 18.6333M9.75 18.6283C9.7935 18.0023 9.6725 16.6688 10.0015 16.0953M10.002 16.1003C10.092 15.8678 10.22 15.7923 10.3615 15.6328M10.3615 15.6278C10.8995 15.2098 10.5195 14.5443 10.6695 13.8808C11.175 12.5783 14.3955 14.3123 15.828 14.2918M14.333 26.2223C14.203 25.9163 13.544 25.7303 13.357 25.5698C12.762 25.2918 13.447 23.7658 12.8945 23.5348C12.332 23.1798 11.6045 22.9423 11.0805 23.4528C9.468 26.1058 11.754 24.6818 9.8735 26.3403C10.4495 26.8513 11.482 26.0223 11.99 25.7903C12.4645 25.5783 12.657 26.0118 13.1515 26.1088C13.3865 26.2358 14.72 27.0843 14.333 26.2223Z" stroke="black" stroke-linecap="round" stroke-linejoin="round"/>
</svg>
