<svg width="20" height="20" viewBox="0 0 20 20" fill="none" xmlns="http://www.w3.org/2000/svg">
<path d="M16.6667 4.16797C16.8877 4.16797 17.0996 4.25577 17.2559 4.41205C17.4122 4.56833 17.5 4.78029 17.5 5.0013C17.5 5.22232 17.4122 5.43428 17.2559 5.59056C17.0996 5.74684 16.8877 5.83464 16.6667 5.83464H15.8333L15.8308 5.8938L15.0533 16.7863C15.0234 17.2068 14.8352 17.6003 14.5268 17.8876C14.2183 18.1749 13.8124 18.3346 13.3908 18.3346H6.60833C6.18678 18.3346 5.78089 18.1749 5.4724 17.8876C5.16392 17.6003 4.97576 17.2068 4.94583 16.7863L4.16833 5.89464L4.16667 5.83464H3.33333C3.11232 5.83464 2.90036 5.74684 2.74408 5.59056C2.5878 5.43428 2.5 5.22232 2.5 5.0013C2.5 4.78029 2.5878 4.56833 2.74408 4.41205C2.90036 4.25577 3.11232 4.16797 3.33333 4.16797H16.6667ZM14.1642 5.83464H5.83583L6.60917 16.668H13.3908L14.1642 5.83464ZM11.6667 1.66797C11.8877 1.66797 12.0996 1.75577 12.2559 1.91205C12.4122 2.06833 12.5 2.28029 12.5 2.5013C12.5 2.72232 12.4122 2.93428 12.2559 3.09056C12.0996 3.24684 11.8877 3.33464 11.6667 3.33464H8.33333C8.11232 3.33464 7.90036 3.24684 7.74408 3.09056C7.5878 2.93428 7.5 2.72232 7.5 2.5013C7.5 2.28029 7.5878 2.06833 7.74408 1.91205C7.90036 1.75577 8.11232 1.66797 8.33333 1.66797H11.6667Z" fill="#DD127A"/>
</svg>