<svg width="40" height="40" viewBox="0 0 40 40" fill="none" xmlns="http://www.w3.org/2000/svg">
<rect width="40" height="40" rx="20" fill="#C7C7C7"/>
<path d="M24 30C22.934 28.755 21.534 28 20 28C18.466 28 17.066 28.755 16 30M20 21C18.732 21 17.391 21.22 16.34 21.513C15.549 21.733 14.912 22.742 15.01 23.56C15.046 23.863 15.307 24 15.582 24H24.418C24.693 24 24.954 23.863 24.99 23.56C25.088 22.741 24.451 21.734 23.66 21.513C22.4676 21.1833 21.2371 21.0108 20 21ZM20 21V18M29 18C28.4696 18 27.9609 18.2107 27.5858 18.5858C27.2107 18.9609 27 19.4696 27 20V21C27 21.5304 26.7893 22.0391 26.4142 22.4142C26.0391 22.7893 25.5304 23 25 23M11 18C11.5304 18 12.0391 18.2107 12.4142 18.5858C12.7893 18.9609 13 19.4696 13 20V21C13 21.5304 13.2107 22.0391 13.5858 22.4142C13.9609 22.7893 14.4696 23 15 23M20 24V30M20.82 18H19.18C17.778 18 17.077 18 16.57 17.576C16.063 17.153 15.893 16.426 15.553 14.97C15.018 12.682 14.751 11.538 15.312 10.77C15.873 10 16.976 10 19.18 10H20.82C23.024 10 24.127 10 24.688 10.77C25.249 11.538 24.982 12.682 24.448 14.97C24.108 16.425 23.938 17.153 23.43 17.576C22.923 18 22.222 18 20.82 18Z" stroke="#0D0D0D" stroke-width="1.5" stroke-linecap="round" stroke-linejoin="round"/>
</svg>
