<svg width="32" height="32" viewBox="0 0 32 32" fill="none" xmlns="http://www.w3.org/2000/svg">
<rect x="0.5" y="0.5" width="31" height="31" rx="3.5" stroke="#BEBEBE"/>
<path d="M9.77778 22.2222H11.0444L19.7333 13.5333L18.4667 12.2667L9.77778 20.9556V22.2222ZM8 24V20.2222L19.7333 8.51111C19.9111 8.34815 20.1076 8.22222 20.3227 8.13333C20.5378 8.04444 20.7636 8 21 8C21.2364 8 21.4661 8.04444 21.6889 8.13333C21.9117 8.22222 22.1043 8.35556 22.2667 8.53333L23.4889 9.77778C23.6667 9.94074 23.7964 10.1333 23.8782 10.3556C23.96 10.5778 24.0006 10.8 24 11.0222C24 11.2593 23.9594 11.4853 23.8782 11.7004C23.797 11.9156 23.6673 12.1117 23.4889 12.2889L11.7778 24H8ZM19.0889 12.9111L18.4667 12.2667L19.7333 13.5333L19.0889 12.9111Z" fill="black"/>
</svg>
