<svg width="20" height="20" viewBox="0 0 20 20" fill="none" xmlns="http://www.w3.org/2000/svg">
<path d="M12.7083 13.1237C12.3667 13.1237 12.0833 13.407 12.0833 13.7487V14.9987C12.0833 15.5737 11.6167 16.0404 11.0417 16.0404H4.79167C4.21667 16.0404 3.75 15.5737 3.75 14.9987V4.9987C3.75 4.4237 4.21667 3.95703 4.79167 3.95703H7.5V7.91536C7.5 8.25703 7.78333 8.54036 8.125 8.54036H12.0833V9.58203C12.0833 9.9237 12.3667 10.207 12.7083 10.207C13.05 10.207 13.3333 9.9237 13.3333 9.58203V7.91536C13.3333 7.7487 13.2667 7.59036 13.15 7.4737L8.56667 2.89036C8.44957 2.77312 8.2907 2.70718 8.125 2.70703H4.79167C3.525 2.70703 2.5 3.73203 2.5 4.9987V14.9987C2.5 16.2654 3.525 17.2904 4.79167 17.2904H11.0417C12.3083 17.2904 13.3333 16.2654 13.3333 14.9987V13.7487C13.3333 13.407 13.05 13.1237 12.7083 13.1237ZM8.75 4.84036L11.2 7.29036H8.75V4.84036ZM17.45 11.907C17.4167 11.982 17.375 12.0487 17.3167 12.107L14.8167 14.607C14.6917 14.732 14.5333 14.7904 14.375 14.7904C14.2167 14.7904 14.0583 14.732 13.9333 14.607C13.8171 14.4894 13.7519 14.3307 13.7519 14.1654C13.7519 14 13.8171 13.8413 13.9333 13.7237L15.3667 12.2904H8.125C7.78333 12.2904 7.5 12.007 7.5 11.6654C7.5 11.3237 7.78333 11.0404 8.125 11.0404H15.3667L13.9333 9.60703C13.6917 9.36536 13.6917 8.96536 13.9333 8.7237C14.175 8.48203 14.575 8.48203 14.8167 8.7237L17.3167 11.2237C17.375 11.282 17.4167 11.3487 17.45 11.4237C17.5167 11.5737 17.5167 11.7487 17.45 11.8987V11.907Z" fill="#DD127A"/>
</svg>