<svg width="13" height="13" viewBox="0 0 13 13" fill="none" xmlns="http://www.w3.org/2000/svg">
<path d="M11.6946 10.2714L9.81024 3.72455C9.9584 3.60994 10.0788 3.46342 10.1625 3.29586C10.2463 3.12831 10.2911 2.94403 10.2938 2.75674C10.2965 2.56946 10.257 2.38397 10.1781 2.21407C10.0992 2.04418 9.98309 1.89425 9.8383 1.77542C9.6935 1.6566 9.52379 1.57194 9.34177 1.52775C9.15975 1.48355 8.97011 1.48095 8.78695 1.52015C8.60378 1.55934 8.43181 1.63931 8.28382 1.75412C8.13582 1.86894 8.01561 2.01563 7.93212 2.1833L2.73962 1.25892C2.70116 1.05375 2.61188 0.861484 2.47994 0.699717C2.348 0.537949 2.17761 0.411839 1.98435 0.332918C1.79109 0.253997 1.58114 0.224782 1.37367 0.247947C1.16621 0.271111 0.967868 0.345915 0.796777 0.465518C0.625686 0.585121 0.487308 0.745707 0.394297 0.932591C0.301286 1.11948 0.25661 1.3267 0.264353 1.5353C0.272096 1.74391 0.332011 1.94725 0.438621 2.12672C0.54523 2.3062 0.695132 2.45608 0.874618 2.56267V10.4239C0.651795 10.5531 0.474505 10.7481 0.367175 10.9822C0.259845 11.2163 0.227759 11.478 0.275336 11.7311C0.322914 11.9842 0.447814 12.2163 0.632828 12.3955C0.817841 12.5746 1.05386 12.692 1.30837 12.7314C1.37154 12.7426 1.43548 12.7489 1.49962 12.7502C1.71693 12.7497 1.93033 12.6923 2.1186 12.5837C2.30686 12.4752 2.46343 12.3192 2.57274 12.1314H10.414C10.5475 12.359 10.7498 12.5382 10.9919 12.6432C11.2339 12.7482 11.503 12.7735 11.7604 12.7155C12.0177 12.6574 12.25 12.5191 12.4235 12.3204C12.5971 12.1217 12.703 11.873 12.7259 11.6102C12.729 11.5733 12.7371 11.5377 12.7371 11.5002C12.7367 11.2052 12.6317 10.9199 12.4409 10.6949C12.25 10.4699 11.9856 10.3199 11.6946 10.2714ZM2.60837 10.9339C2.57743 10.8727 2.54147 10.8142 2.50087 10.7589L4.90399 7.6858C5.04554 7.71449 5.18957 7.72915 5.33399 7.72955C5.53501 7.72662 5.73464 7.6957 5.92712 7.63767L6.70337 8.56142C6.57142 8.79219 6.50124 9.0531 6.49962 9.31892C6.49962 9.34267 6.50587 9.36455 6.50649 9.38768C6.52325 9.78917 6.69442 10.1687 6.98427 10.447C7.27413 10.7253 7.66027 10.881 8.06212 10.8814C8.44711 10.8812 8.81809 10.737 9.10212 10.477L10.2915 11.1639C10.2877 11.1752 10.2809 11.1858 10.2777 11.1977H2.70899C2.68501 11.1064 2.65128 11.018 2.60837 10.9339ZM8.37399 3.79517C8.62086 3.96326 8.92378 4.02789 9.21774 3.97517L11.049 10.3333C10.9887 10.3581 10.9304 10.3876 10.8746 10.4214L9.57587 9.67142C9.59735 9.58216 9.61094 9.49119 9.61649 9.39955C9.61774 9.37267 9.62462 9.34705 9.62462 9.31892C9.62559 9.02874 9.5454 8.74406 9.39312 8.49704C9.24083 8.25002 9.02251 8.0505 8.76282 7.92101C8.50312 7.79152 8.2124 7.73722 7.92347 7.76424C7.63454 7.79126 7.35893 7.89853 7.12774 8.07392L6.53399 7.36767C6.9662 7.08557 7.28419 6.65916 7.43127 6.16443C7.57836 5.66971 7.545 5.13883 7.33712 4.66642L8.37399 3.79517ZM2.68962 1.89892L7.80087 2.8083C7.81024 2.98831 7.85887 3.16408 7.94337 3.3233L6.98837 4.12517C6.65407 3.72584 6.18639 3.46116 5.67193 3.38015C5.15748 3.29913 4.63109 3.40728 4.19024 3.68455L2.69024 1.89892H2.68962ZM1.51337 2.74267C1.80729 2.74171 2.09129 2.63626 2.31462 2.44517L3.70274 4.09705C3.48357 4.34013 3.32243 4.6298 3.23147 4.94421C3.14051 5.25862 3.12212 5.58958 3.17766 5.91214C3.23321 6.2347 3.36124 6.54044 3.55213 6.80632C3.74301 7.0722 3.99176 7.29128 4.27962 7.44705L2.00337 10.3577C1.84894 10.2894 1.68222 10.2532 1.51337 10.2514V2.74267Z" fill="#DD127A"/>
</svg>
