<svg width="15" height="15" viewBox="0 0 15 15" fill="none" xmlns="http://www.w3.org/2000/svg">
<path d="M11.25 9.84375H12.1875V12.1875H11.25V9.84375ZM9.375 7.5H10.3125V12.1875H9.375V7.5ZM5.15625 12.1875C4.53488 12.1868 3.93917 11.9396 3.49979 11.5002C3.06041 11.0608 2.81324 10.4651 2.8125 9.84375H3.75C3.75 10.1219 3.83248 10.3938 3.987 10.625C4.14152 10.8563 4.36114 11.0365 4.6181 11.143C4.87506 11.2494 5.15781 11.2772 5.4306 11.223C5.70338 11.1687 5.95395 11.0348 6.15062 10.8381C6.34729 10.6415 6.48122 10.3909 6.53548 10.1181C6.58974 9.84531 6.56189 9.56256 6.45546 9.3056C6.34902 9.04864 6.16878 8.82902 5.93752 8.6745C5.70626 8.51997 5.43438 8.4375 5.15625 8.4375V7.5C5.77785 7.5 6.37399 7.74693 6.81353 8.18647C7.25307 8.62601 7.5 9.22215 7.5 9.84375C7.5 10.4654 7.25307 11.0615 6.81353 11.501C6.37399 11.9406 5.77785 12.1875 5.15625 12.1875Z" fill="#DD127A"/>
<path d="M13.125 0.9375H1.875C1.62644 0.937748 1.38812 1.0366 1.21236 1.21236C1.0366 1.38812 0.937748 1.62644 0.9375 1.875V13.125C0.937748 13.3736 1.0366 13.6119 1.21236 13.7876C1.38812 13.9634 1.62644 14.0623 1.875 14.0625H13.125C13.3735 14.0621 13.6118 13.9632 13.7875 13.7875C13.9632 13.6118 14.0621 13.3735 14.0625 13.125V1.875C14.0623 1.62644 13.9634 1.38812 13.7876 1.21236C13.6119 1.0366 13.3736 0.937748 13.125 0.9375ZM13.125 5.15625H6.5625V1.875H13.125V5.15625ZM5.625 1.875V5.15625H1.875V1.875H5.625ZM1.875 13.125V6.09375H13.125L13.1259 13.125H1.875Z" fill="#DD127A"/>
</svg>
