<svg width="20" height="20" viewBox="0 0 20 20" fill="none" xmlns="http://www.w3.org/2000/svg">
<path d="M10.3667 12.0833H3.125C2.78333 12.0833 2.5 11.8 2.5 11.4583C2.5 11.1167 2.78333 10.8333 3.125 10.8333H10.3667L8.93333 9.4C8.69167 9.15833 8.69167 8.75833 8.93333 8.51667C9.175 8.275 9.575 8.275 9.81667 8.51667L12.3167 11.0167C12.375 11.075 12.4167 11.1417 12.45 11.2167C12.5167 11.3667 12.5167 11.5417 12.45 11.6917C12.4167 11.7667 12.375 11.8333 12.3167 11.8917L9.81667 14.3917C9.69167 14.5167 9.53333 14.575 9.375 14.575C9.21667 14.575 9.05833 14.5167 8.93333 14.3917C8.8171 14.2741 8.75191 14.1154 8.75191 13.95C8.75191 13.7846 8.8171 13.6259 8.93333 13.5083L10.3667 12.075V12.0833ZM17.5 7.70833V14.7917C17.5 16.0583 16.475 17.0833 15.2083 17.0833H8.95833C7.69167 17.0833 6.66667 16.0583 6.66667 14.7917V13.9583C6.66667 13.6167 6.95 13.3333 7.29167 13.3333C7.63333 13.3333 7.91667 13.6167 7.91667 13.9583V14.7917C7.91667 15.3667 8.38333 15.8333 8.95833 15.8333H15.2083C15.7833 15.8333 16.25 15.3667 16.25 14.7917V8.33333H12.2917C11.95 8.33333 11.6667 8.05 11.6667 7.70833V3.75H8.95833C8.38333 3.75 7.91667 4.21667 7.91667 4.79167V8.95833C7.91667 9.3 7.63333 9.58333 7.29167 9.58333C6.95 9.58333 6.66667 9.3 6.66667 8.95833V4.79167C6.66667 3.525 7.69167 2.5 8.95833 2.5H12.2917C12.4583 2.5 12.6167 2.56667 12.7333 2.68333L17.3167 7.26667C17.4333 7.38333 17.5 7.54167 17.5 7.70833ZM12.9167 7.08333H15.3667L12.9167 4.63333V7.08333Z" fill="#DD127A"/>
</svg>