<svg width="18" height="17" viewBox="0 0 18 17" fill="none" xmlns="http://www.w3.org/2000/svg">
<path d="M8.99935 0.083252C4.39935 0.083252 0.666016 3.81659 0.666016 8.41658C0.666016 13.0166 4.39935 16.7499 8.99935 16.7499C13.5993 16.7499 17.3327 13.0166 17.3327 8.41658C17.3327 3.81659 13.5993 0.083252 8.99935 0.083252ZM8.99935 12.5833C8.54102 12.5833 8.16602 12.2083 8.16602 11.7499V8.41658C8.16602 7.95825 8.54102 7.58325 8.99935 7.58325C9.45768 7.58325 9.83268 7.95825 9.83268 8.41658V11.7499C9.83268 12.2083 9.45768 12.5833 8.99935 12.5833ZM9.83268 5.91658H8.16602V4.24992H9.83268V5.91658Z" fill="#565656"/>
</svg>