<svg width="18" height="18" viewBox="0 0 18 18" fill="none" xmlns="http://www.w3.org/2000/svg">
<path d="M9 0C13.9707 0 18 4.0293 18 9C18 13.9707 13.9707 18 9 18C4.0293 18 0 13.9707 0 9C0 4.0293 4.0293 0 9 0ZM12.24 4.68C12.1454 4.60909 12.0379 4.55749 11.9234 4.52816C11.8089 4.49883 11.6897 4.49233 11.5727 4.50905C11.4557 4.52576 11.3432 4.56536 11.2415 4.62557C11.1398 4.68579 11.0509 4.76545 10.98 4.86L9 7.4997L7.02 4.86C6.94909 4.76545 6.86024 4.68579 6.75854 4.62557C6.65685 4.56536 6.54428 4.52576 6.42728 4.50905C6.31028 4.49233 6.19113 4.49883 6.07664 4.52816C5.96214 4.55749 5.85455 4.60909 5.76 4.68C5.66545 4.75091 5.58579 4.83976 5.52557 4.94146C5.46536 5.04316 5.42576 5.15572 5.40905 5.27272C5.39233 5.38972 5.39883 5.50887 5.42816 5.62336C5.45749 5.73785 5.50909 5.84545 5.58 5.94L7.875 9L5.58 12.06C5.43678 12.251 5.37529 12.491 5.40905 12.7273C5.4428 12.9636 5.56904 13.1768 5.76 13.32C5.95096 13.4632 6.19098 13.5247 6.42728 13.491C6.66357 13.4572 6.87678 13.331 7.02 13.14L9 10.5003L10.98 13.14C11.1232 13.331 11.3364 13.4572 11.5727 13.491C11.809 13.5247 12.049 13.4632 12.24 13.32C12.431 13.1768 12.5572 12.9636 12.591 12.7273C12.6247 12.491 12.5632 12.251 12.42 12.06L10.125 9L12.42 5.94C12.4909 5.84545 12.5425 5.73785 12.5718 5.62336C12.6012 5.50887 12.6077 5.38972 12.591 5.27272C12.5742 5.15572 12.5346 5.04316 12.4744 4.94146C12.4142 4.83976 12.3346 4.75091 12.24 4.68Z" fill="#FF0000"/>
</svg>
