<svg width="15" height="15" viewBox="0 0 15 15" fill="none" xmlns="http://www.w3.org/2000/svg">
<path d="M13.1302 5.13884C13.1322 4.70528 13.0136 4.27971 12.7875 3.90974C12.5614 3.53977 12.2369 3.24 11.8502 3.04398C11.4635 2.84796 11.0298 2.76342 10.5978 2.79982C10.1658 2.83622 9.75238 2.99213 9.40391 3.25009C9.05555 3.50829 8.78595 3.85836 8.6253 4.26111C8.46464 4.66386 8.41927 5.10338 8.49426 5.53045C8.56926 5.95752 8.76166 6.35529 9.04992 6.6792C9.33818 7.00312 9.71093 7.2404 10.1264 7.36446C9.97311 7.67637 9.73582 7.93931 9.44123 8.1237C9.14664 8.3081 8.80644 8.40663 8.45891 8.40821H6.59016C5.89865 8.41058 5.23275 8.67012 4.72203 9.13634V4.62509C5.28918 4.50939 5.79315 4.18721 6.13625 3.72103C6.47934 3.25485 6.63711 2.67788 6.57897 2.10198C6.52082 1.52608 6.2509 0.992288 5.82155 0.604098C5.39219 0.215908 4.83398 0.000976563 4.25516 0.000976562C3.67633 0.000976563 3.11812 0.215908 2.68877 0.604098C2.25941 0.992288 1.98949 1.52608 1.93135 2.10198C1.8732 2.67788 2.03097 3.25485 2.37407 3.72103C2.71716 4.18721 3.22114 4.50939 3.78828 4.62509V10.3232C3.22219 10.4314 2.71523 10.7429 2.36303 11.1991C2.01083 11.6553 1.83775 12.2246 1.87641 12.7996C1.91508 13.3747 2.16284 13.9157 2.57294 14.3206C2.98305 14.7256 3.52715 14.9664 4.10263 14.9978C4.67811 15.0292 5.24518 14.8489 5.69687 14.4909C6.14856 14.133 6.45366 13.6221 6.55461 13.0547C6.65556 12.4873 6.54539 11.9025 6.24487 11.4107C5.94435 10.9189 5.47427 10.5541 4.92328 10.3851C5.07695 10.0736 5.31438 9.81115 5.60893 9.62711C5.90347 9.44308 6.24347 9.34477 6.59078 9.34321H8.45953C9.04235 9.34038 9.60979 9.1559 10.0829 8.81547C10.5559 8.47503 10.9111 7.99558 11.0989 7.44384C11.6589 7.37037 12.1733 7.0964 12.5468 6.6727C12.9203 6.24899 13.1275 5.70365 13.1302 5.13884ZM2.85391 2.33634C2.85391 2.15232 2.89015 1.97011 2.96057 1.8001C3.03099 1.6301 3.1342 1.47562 3.26432 1.3455C3.39444 1.21539 3.54891 1.11217 3.71892 1.04175C3.88893 0.971333 4.07114 0.935088 4.25516 0.935088C4.43917 0.935088 4.62138 0.971333 4.79139 1.04175C4.9614 1.11217 5.11587 1.21539 5.24599 1.3455C5.37611 1.47562 5.47932 1.6301 5.54974 1.8001C5.62016 1.97011 5.65641 2.15232 5.65641 2.33634C5.65641 2.70797 5.50877 3.06439 5.24599 3.32717C4.9832 3.58996 4.62679 3.73759 4.25516 3.73759C3.88352 3.73759 3.52711 3.58996 3.26432 3.32717C3.00154 3.06439 2.85391 2.70797 2.85391 2.33634ZM5.65641 12.612C5.65641 12.796 5.62016 12.9782 5.54974 13.1482C5.47932 13.3182 5.37611 13.4727 5.24599 13.6028C5.11587 13.7329 4.9614 13.8361 4.79139 13.9065C4.62138 13.977 4.43917 14.0132 4.25516 14.0132C4.07114 14.0132 3.88893 13.977 3.71892 13.9065C3.54891 13.8361 3.39444 13.7329 3.26432 13.6028C3.13421 13.4727 3.03099 13.3182 2.96057 13.1482C2.89015 12.9782 2.85391 12.796 2.85391 12.612C2.85391 12.2403 3.00154 11.8839 3.26432 11.6211C3.52711 11.3583 3.88352 11.2107 4.25516 11.2107C4.62679 11.2107 4.9832 11.3583 5.24599 11.6211C5.50877 11.8839 5.65641 12.2403 5.65641 12.612ZM10.7945 6.54009C10.4228 6.54009 10.0663 6.39242 9.80348 6.12958C9.54063 5.86674 9.39297 5.51024 9.39297 5.13853C9.39297 4.76681 9.54063 4.41032 9.80348 4.14747C10.0663 3.88463 10.4228 3.73696 10.7945 3.73696C11.1662 3.73696 11.5227 3.88463 11.7856 4.14747C12.0484 4.41032 12.1961 4.76681 12.1961 5.13853C12.1961 5.51024 12.0484 5.86674 11.7856 6.12958C11.5227 6.39242 11.1662 6.54009 10.7945 6.54009Z" fill="#DD127A"/>
</svg>
