<svg width="10" height="10" viewBox="0 0 10 10" fill="none" xmlns="http://www.w3.org/2000/svg">
<path d="M6.23077 4.4128C6.14543 4.49814 6.02968 4.54608 5.90899 4.54608C5.7883 4.54608 5.67255 4.49814 5.58721 4.4128C5.50186 4.32745 5.45392 4.21171 5.45392 4.09101C5.45392 3.97032 5.50186 3.85457 5.58721 3.76923L9.22315 0.133286C9.26541 0.0910293 9.31557 0.0575093 9.37079 0.03464C9.426 0.0117707 9.48517 0 9.54493 0C9.60469 0 9.66387 0.0117707 9.71908 0.03464C9.77429 0.0575093 9.82446 0.0910293 9.86671 0.133286C9.90897 0.175543 9.94249 0.225709 9.96536 0.280921C9.98823 0.336132 10 0.395307 10 0.455068C10 0.514828 9.98823 0.574003 9.96536 0.629215C9.94249 0.684426 9.90897 0.734592 9.86671 0.776849L6.23077 4.4128ZM0.776849 9.86671C0.734592 9.90897 0.684426 9.94249 0.629215 9.96536C0.574003 9.98823 0.514828 10 0.455068 10C0.395307 10 0.336132 9.98823 0.280921 9.96536C0.225709 9.94249 0.175543 9.90897 0.133286 9.86671C0.0910293 9.82446 0.0575093 9.77429 0.03464 9.71908C0.0117707 9.66387 0 9.60469 0 9.54493C0 9.48517 0.0117707 9.426 0.03464 9.37079C0.0575093 9.31557 0.0910293 9.26541 0.133286 9.22315L3.76923 5.58721C3.85457 5.50186 3.97032 5.45392 4.09101 5.45392C4.21171 5.45392 4.32745 5.50186 4.4128 5.58721C4.49814 5.67255 4.54608 5.7883 4.54608 5.90899C4.54608 6.02968 4.49814 6.14543 4.4128 6.23077L0.776849 9.86671Z" fill="#DD127A"/>
<path d="M0.456446 9.99883C0.335907 9.99883 0.220305 9.95095 0.135071 9.86571C0.0498372 9.78048 0.00195312 9.66488 0.00195312 9.54434C0.00195312 9.4238 0.0498372 9.3082 0.135071 9.22296C0.220305 9.13773 0.335907 9.08984 0.456446 9.08984H4.09239C4.21293 9.08984 4.32854 9.13773 4.41377 9.22296C4.499 9.3082 4.54689 9.4238 4.54689 9.54434C4.54689 9.66488 4.499 9.78048 4.41377 9.86571C4.32854 9.95095 4.21293 9.99883 4.09239 9.99883H0.456446Z" fill="#DD127A"/>
<path d="M0.908987 9.54436C0.908987 9.6649 0.861103 9.7805 0.775869 9.86574C0.690634 9.95097 0.575032 9.99885 0.454493 9.99885C0.333954 9.99885 0.218352 9.95097 0.133118 9.86574C0.0478841 9.7805 0 9.6649 0 9.54436V5.90841C0 5.78787 0.0478841 5.67227 0.133118 5.58704C0.218352 5.5018 0.333954 5.45392 0.454493 5.45392C0.575032 5.45392 0.690634 5.5018 0.775869 5.58704C0.861103 5.67227 0.908987 5.78787 0.908987 5.90841V9.54436ZM9.99885 4.09044C9.99885 4.21098 9.95097 4.32658 9.86574 4.41182C9.7805 4.49705 9.6649 4.54493 9.54436 4.54493C9.42382 4.54493 9.30822 4.49705 9.22298 4.41182C9.13775 4.32658 9.08987 4.21098 9.08987 4.09044V0.454493C9.08987 0.333954 9.13775 0.218352 9.22298 0.133118C9.30822 0.0478841 9.42382 0 9.54436 0C9.6649 0 9.7805 0.0478841 9.86574 0.133118C9.95097 0.218352 9.99885 0.333954 9.99885 0.454493V4.09044Z" fill="#DD127A"/>
<path d="M5.90762 0.91094C5.78708 0.91094 5.67148 0.863056 5.58624 0.777822C5.50101 0.692588 5.45312 0.576986 5.45312 0.456446C5.45312 0.335907 5.50101 0.220305 5.58624 0.135071C5.67148 0.0498372 5.78708 0.00195312 5.90762 0.00195312H9.54357C9.6641 0.00195312 9.77971 0.0498372 9.86494 0.135071C9.95017 0.220305 9.99806 0.335907 9.99806 0.456446C9.99806 0.576986 9.95017 0.692588 9.86494 0.777822C9.77971 0.863056 9.6641 0.91094 9.54357 0.91094H5.90762Z" fill="#DD127A"/>
</svg>