<svg width="16" height="19" viewBox="0 0 16 19" fill="none" xmlns="http://www.w3.org/2000/svg">
<path d="M13.8333 13.167V8.83366C13.4167 8.91699 13 9.00033 12.5833 9.00033H12.1667V14.0003H3.83333V8.16699C3.83333 5.83366 5.66667 4.00033 8 4.00033C8.08333 2.91699 8.58333 2.00033 9.25 1.25033C9 0.916992 8.5 0.666992 8 0.666992C7.08333 0.666992 6.33333 1.41699 6.33333 2.33366V2.58366C3.83333 3.33366 2.16667 5.58366 2.16667 8.16699V13.167L0.5 14.8337V15.667H15.5V14.8337L13.8333 13.167ZM6.33333 16.5003C6.33333 17.417 7.08333 18.167 8 18.167C8.91667 18.167 9.66667 17.417 9.66667 16.5003H6.33333ZM15.5 4.41699C15.5 6.00033 14.1667 7.33366 12.5833 7.33366C11 7.33366 9.66667 6.00033 9.66667 4.41699C9.66667 2.83366 11 1.50033 12.5833 1.50033C14.1667 1.50033 15.5 2.83366 15.5 4.41699Z" fill="#838280"/>
</svg>
