<svg width="48" height="44" viewBox="0 0 48 44" fill="none" xmlns="http://www.w3.org/2000/svg">
<g clip-path="url(#clip0_2368_5822)">
<path fill-rule="evenodd" clip-rule="evenodd" d="M24 18C25.1 18 26 17.1 26 16C26 14.9 25.1 14 24 14C22.9 14 22 14.9 22 16C22 17.1 22.9 18 24 18ZM24 20C22.9 20 22 20.9 22 22C22 23.1 22.9 24 24 24C25.1 24 26 23.1 26 22C26 20.9 25.1 20 24 20ZM22 28C22 26.9 22.9 26 24 26C25.1 26 26 26.9 26 28C26 29.1 25.1 30 24 30C22.9 30 22 29.1 22 28Z" fill="#49454F"/>
</g>
<defs>
<clipPath id="clip0_2368_5822">
<rect x="4" y="2" width="40" height="40" rx="20" fill="white"/>
</clipPath>
</defs>
</svg>
