<svg width="20" height="20" viewBox="0 0 20 20" fill="none" xmlns="http://www.w3.org/2000/svg">
<path d="M17.5007 2.5H2.50065C2.27964 2.5 2.06767 2.5878 1.9114 2.74408C1.75512 2.90036 1.66732 3.11232 1.66732 3.33333V16.6667C1.66732 16.8877 1.75512 17.0996 1.9114 17.2559C2.06767 17.4122 2.27964 17.5 2.50065 17.5H17.5007C17.7217 17.5 17.9336 17.4122 18.0899 17.2559C18.2462 17.0996 18.334 16.8877 18.334 16.6667V3.33333C18.334 3.11232 18.2462 2.90036 18.0899 2.74408C17.9336 2.5878 17.7217 2.5 17.5007 2.5ZM13.334 4.16667H16.6673V15.8333H13.334V4.16667ZM11.6673 4.16667V15.8333H3.33398V4.16667H11.6673Z" fill="#DD127A"/>
</svg>