<svg width="20" height="20" viewBox="0 0 20 20" fill="none" xmlns="http://www.w3.org/2000/svg">
<path d="M9.58268 3.33366C8.80913 3.33366 8.06727 3.64095 7.52029 4.18793C6.97331 4.73491 6.66602 5.47678 6.66602 6.25033C6.66602 7.02387 6.97331 7.76574 7.52029 8.31272C8.06727 8.8597 8.80913 9.16699 9.58268 9.16699C10.3562 9.16699 11.0981 8.8597 11.6451 8.31272C12.1921 7.76574 12.4993 7.02387 12.4993 6.25033C12.4993 5.47678 12.1921 4.73491 11.6451 4.18793C11.0981 3.64095 10.3562 3.33366 9.58268 3.33366ZM4.99935 6.25033C4.99935 5.03475 5.48223 3.86896 6.34178 3.00942C7.20132 2.14988 8.36711 1.66699 9.58268 1.66699C10.7983 1.66699 11.964 2.14988 12.8236 3.00942C13.6831 3.86896 14.166 5.03475 14.166 6.25033C14.166 7.4659 13.6831 8.63169 12.8236 9.49123C11.964 10.3508 10.7983 10.8337 9.58268 10.8337C8.36711 10.8337 7.20132 10.3508 6.34178 9.49123C5.48223 8.63169 4.99935 7.4659 4.99935 6.25033ZM6.66602 13.3337C5.78196 13.3337 4.93411 13.6848 4.30899 14.31C3.68387 14.9351 3.33268 15.7829 3.33268 16.667H10.041V18.3337H1.66602V16.667C1.66602 15.3409 2.1928 14.0691 3.13048 13.1315C4.06816 12.1938 5.33993 11.667 6.66602 11.667H9.99935V13.3337H6.66602ZM16.2493 10.6253V11.772C16.8452 11.9253 17.376 12.2387 17.7943 12.6653L18.7885 12.0912L19.6218 13.5345L18.6285 14.1078C18.7905 14.6918 18.7905 15.3088 18.6285 15.8928L19.6218 16.4662L18.7885 17.9095L17.7943 17.3353C17.3701 17.768 16.836 18.0768 16.2493 18.2287V19.3753H14.5827V18.2287C13.996 18.077 13.4618 17.7681 13.0377 17.3353L12.0435 17.9095L11.2102 16.4662L12.2035 15.8928C12.0414 15.3089 12.0414 14.6918 12.2035 14.1078L11.2102 13.5345L12.0435 12.0912L13.0377 12.6645C13.4619 12.232 13.9961 11.9234 14.5827 11.772V10.6253H16.2493ZM13.9568 14.1945C13.8201 14.441 13.7484 14.7184 13.7485 15.0003C13.7485 15.292 13.8243 15.567 13.9568 15.8062L13.9868 15.8587C14.1348 16.1057 14.3442 16.3101 14.5946 16.4521C14.8451 16.594 15.1281 16.6686 15.416 16.6686C15.7039 16.6686 15.9869 16.594 16.2374 16.4521C16.4879 16.3101 16.6973 16.1057 16.8452 15.8587L16.8752 15.8062C17.0077 15.567 17.0827 15.2928 17.0827 15.0003C17.0827 14.7087 17.0077 14.4337 16.8752 14.1945L16.8452 14.142C16.6973 13.895 16.4879 13.6905 16.2374 13.5486C15.9869 13.4066 15.7039 13.332 15.416 13.332C15.1281 13.332 14.8451 13.4066 14.5946 13.5486C14.3442 13.6905 14.1348 13.895 13.9868 14.142L13.9568 14.1945Z" fill="#838280"/>
</svg>
