<svg width="12" height="11" viewBox="0 0 12 11" fill="none" xmlns="http://www.w3.org/2000/svg">
<path d="M1.83942 6L1.57542 6.266C1.64565 6.33562 1.74053 6.37468 1.83942 6.37468C1.93831 6.37468 2.03319 6.33562 2.10342 6.266L1.83942 6ZM2.94342 5.433C3.0141 5.36285 3.05402 5.2675 3.05439 5.16792C3.05477 5.06834 3.01557 4.97268 2.94542 4.902C2.91068 4.86701 2.8694 4.83919 2.82391 4.82015C2.77843 4.80111 2.72964 4.79122 2.68033 4.79103C2.58075 4.79066 2.4851 4.82985 2.41442 4.9L2.94342 5.433ZM1.26342 4.9C1.19241 4.83193 1.09751 4.79449 0.999155 4.79573C0.900801 4.79698 0.806875 4.83682 0.737618 4.90667C0.668362 4.97651 0.629321 5.07077 0.62891 5.16914C0.628498 5.2675 0.666749 5.36208 0.735419 5.4325L1.26342 4.9ZM9.30742 3.196C9.33255 3.23929 9.3661 3.2771 9.40608 3.30722C9.44606 3.33733 9.49167 3.35914 9.54021 3.37135C9.58875 3.38356 9.63925 3.38593 9.68872 3.37832C9.73819 3.37071 9.78564 3.35327 9.82827 3.32704C9.87089 3.3008 9.90783 3.26629 9.93692 3.22555C9.966 3.18482 9.98663 3.13867 9.99759 3.08983C10.0086 3.04099 10.0096 2.99045 10.0008 2.94119C9.99188 2.89193 9.97324 2.84494 9.94592 2.803L9.30742 3.196ZM6.03892 0.625004C3.51542 0.625004 1.46392 2.6555 1.46392 5.1665H2.21392C2.21392 3.0755 3.92392 1.375 6.03892 1.375V0.625004ZM1.46392 5.1665V6H2.21392V5.1665H1.46392ZM2.10392 6.2665L2.94342 5.433L2.41442 4.9L1.57442 5.7335L2.10392 6.2665ZM2.10392 5.734L1.26342 4.9L0.734919 5.4325L1.57492 6.2655L2.10392 5.734ZM9.94592 2.804C9.53538 2.13712 8.9607 1.58664 8.27678 1.20516C7.59285 0.823673 6.82204 0.623928 6.03892 0.625004V1.375C6.69402 1.37374 7.339 1.54053 7.91125 1.85944C8.48349 2.17835 8.96437 2.6387 9.30792 3.1965L9.94592 2.804ZM10.1564 5L10.4199 4.7335C10.3497 4.66419 10.2551 4.62532 10.1564 4.62532C10.0578 4.62532 9.96311 4.66419 9.89292 4.7335L10.1564 5ZM9.04942 5.5665C9.01439 5.60114 8.98652 5.64234 8.96741 5.68774C8.94831 5.73315 8.93833 5.78187 8.93805 5.83113C8.93749 5.93062 8.97647 6.02626 9.04642 6.097C9.11637 6.16775 9.21156 6.20781 9.31105 6.20837C9.41053 6.20894 9.50617 6.16996 9.57692 6.1L9.04942 5.5665ZM10.7359 6.1C10.7707 6.13554 10.8123 6.1638 10.8582 6.18312C10.904 6.20244 10.9532 6.21244 11.003 6.21254C11.0528 6.21264 11.102 6.20283 11.148 6.1837C11.1939 6.16456 11.2356 6.13647 11.2705 6.10107C11.3055 6.06567 11.3331 6.02367 11.3517 5.97751C11.3702 5.93134 11.3794 5.88195 11.3787 5.83219C11.378 5.78244 11.3674 5.73332 11.3475 5.68771C11.3276 5.64209 11.2989 5.60089 11.2629 5.5665L10.7359 6.1ZM2.65842 7.803C2.60617 7.71833 2.52243 7.65789 2.42561 7.63496C2.3288 7.61203 2.22684 7.62851 2.14217 7.68075C2.0575 7.733 1.99705 7.81674 1.97412 7.91356C1.9512 8.01038 1.96767 8.11233 2.01992 8.197L2.65842 7.803ZM5.94092 10.375C8.47192 10.375 10.5309 8.346 10.5309 5.8335H9.78092C9.78092 7.9235 8.06592 9.625 5.94092 9.625V10.375ZM10.5309 5.8335V5H9.78092V5.8335H10.5309ZM9.89292 4.7335L9.04942 5.5665L9.57692 6.1L10.4199 5.2665L9.89292 4.7335ZM9.89292 5.2665L10.7359 6.1L11.2629 5.5665L10.4199 4.7335L9.89292 5.2665ZM2.01942 8.1965C2.43274 8.86407 3.01005 9.41474 3.69639 9.79607C4.38273 10.1774 5.15526 10.3767 5.94042 10.375V9.625C5.28326 9.6267 4.63661 9.46015 4.06203 9.14122C3.48746 8.8223 3.00458 8.3616 2.65842 7.803L2.01942 8.1965Z" fill="#DD127A"/>
</svg>