<svg width="15" height="15" viewBox="0 0 15 15" fill="none" xmlns="http://www.w3.org/2000/svg">
<path d="M7.5 10.625C7.67708 10.625 7.82563 10.565 7.94563 10.445C8.06563 10.325 8.12542 10.1767 8.125 10C8.125 9.82292 8.065 9.67437 7.945 9.55437C7.825 9.43437 7.67667 9.37458 7.5 9.375C7.32292 9.375 7.17437 9.435 7.05437 9.555C6.93437 9.675 6.87458 9.82333 6.875 10C6.875 10.1771 6.935 10.3256 7.055 10.4456C7.175 10.5656 7.32333 10.6254 7.5 10.625ZM6.875 8.125H8.125V4.375H6.875V8.125ZM5.15625 13.125L1.875 9.84375V5.15625L5.15625 1.875H9.84375L13.125 5.15625V9.84375L9.84375 13.125H5.15625ZM5.6875 11.875H9.3125L11.875 9.3125V5.6875L9.3125 3.125H5.6875L3.125 5.6875V9.3125L5.6875 11.875Z" fill="#DD127A"/>
</svg>
