<svg width="13" height="17" viewBox="0 0 13 17" fill="none" xmlns="http://www.w3.org/2000/svg">
<path d="M9.17829 2.60742H10.7854C11.0696 2.60742 11.3421 2.7203 11.543 2.92124C11.744 3.12217 11.8569 3.39469 11.8569 3.67885V14.3931C11.8569 14.6773 11.744 14.9498 11.543 15.1507C11.3421 15.3517 11.0696 15.4646 10.7854 15.4646H2.21401C1.92985 15.4646 1.65732 15.3517 1.45639 15.1507C1.25546 14.9498 1.14258 14.6773 1.14258 14.3931V3.67885C1.14258 3.39469 1.25546 3.12217 1.45639 2.92124C1.65732 2.7203 1.92985 2.60742 2.21401 2.60742H3.82115" stroke="#DD127A" stroke-width="1.42857" stroke-linecap="round" stroke-linejoin="round"/>
<path d="M8.10603 1.53613H4.89174C4.30001 1.53613 3.82031 2.01583 3.82031 2.60756V3.14328C3.82031 3.73501 4.30001 4.2147 4.89174 4.2147H8.10603C8.69776 4.2147 9.17745 3.73501 9.17745 3.14328V2.60756C9.17745 2.01583 8.69776 1.53613 8.10603 1.53613Z" stroke="#DD127A" stroke-width="1.42857" stroke-linecap="round" stroke-linejoin="round"/>
<path d="M3.82031 6.89355H9.17746M3.82031 9.57213H9.17746M3.82031 12.2507H9.17746" stroke="#DD127A" stroke-width="1.42857" stroke-linecap="round" stroke-linejoin="round"/>
</svg>
