<svg width="53" height="53" viewBox="0 0 53 53" fill="none" xmlns="http://www.w3.org/2000/svg">
<path d="M0.734375 26.666C0.734375 12.5828 12.1511 1.16602 26.2344 1.16602C40.3176 1.16602 51.7344 12.5828 51.7344 26.666C51.7344 40.7493 40.3176 52.166 26.2344 52.166C12.1511 52.166 0.734375 40.7493 0.734375 26.666Z" fill="#CCCCCC"/>
<path d="M0.734375 26.666C0.734375 12.5828 12.1511 1.16602 26.2344 1.16602C40.3176 1.16602 51.7344 12.5828 51.7344 26.666C51.7344 40.7493 40.3176 52.166 26.2344 52.166C12.1511 52.166 0.734375 40.7493 0.734375 26.666Z" stroke="#CCCCCC"/>
<path d="M35.6525 29.189C35.2097 30.8423 34.3396 32.3499 33.1295 33.5603C31.9194 34.7707 30.412 35.6412 28.7588 36.0843C27.1056 36.5275 25.3649 36.5276 23.7117 36.0848C22.0584 35.642 20.5508 34.7717 19.3405 33.5615C18.1302 32.3514 17.2598 30.8439 16.8167 29.1907C16.3737 27.5375 16.3736 25.7968 16.8165 24.1436C17.2595 22.4903 18.1298 20.9828 19.34 19.7726C20.5503 18.5623 22.0578 17.692 23.711 17.249M35.984 26.666C35.984 24.0802 34.9568 21.6002 33.1283 19.7717C31.2998 17.9432 28.8199 16.916 26.234 16.916V25.916C26.234 26.1149 26.313 26.3057 26.4537 26.4463C26.5943 26.587 26.7851 26.666 26.984 26.666H35.984Z" stroke="black" stroke-width="2" stroke-linecap="round"/>
</svg>