<svg width="15" height="15" viewBox="0 0 15 15" fill="none" xmlns="http://www.w3.org/2000/svg">
<path d="M13.8756 11.0209L8.75161 2.1223C8.62356 1.90429 8.44076 1.72353 8.22134 1.59793C8.00191 1.47232 7.75346 1.40625 7.50063 1.40625C7.2478 1.40625 6.99935 1.47232 6.77992 1.59793C6.56049 1.72353 6.3777 1.90429 6.24965 2.1223L1.12563 11.0209C1.00243 11.2318 0.9375 11.4716 0.9375 11.7159C0.9375 11.9601 1.00243 12.1999 1.12563 12.4108C1.25203 12.6301 1.43452 12.8119 1.65436 12.9374C1.87419 13.0629 2.12347 13.1277 2.37661 13.125H12.6247C12.8776 13.1275 13.1266 13.0626 13.3462 12.9371C13.5659 12.8116 13.7481 12.6299 13.8745 12.4108C13.9978 12.2 14.063 11.9602 14.0632 11.716C14.0634 11.4718 13.9987 11.2319 13.8756 11.0209ZM13.0629 11.9414C13.0183 12.0176 12.9541 12.0806 12.8771 12.1238C12.8001 12.1671 12.713 12.1891 12.6247 12.1875H2.37661C2.28829 12.1891 2.20116 12.1671 2.12414 12.1238C2.04712 12.0806 1.98299 12.0176 1.93832 11.9414C1.89786 11.8729 1.87652 11.7948 1.87652 11.7153C1.87652 11.6357 1.89786 11.5576 1.93832 11.4891L7.06235 2.59047C7.10792 2.51463 7.17234 2.45188 7.24935 2.40831C7.32635 2.36475 7.41332 2.34185 7.5018 2.34185C7.59028 2.34185 7.67725 2.36475 7.75425 2.40831C7.83126 2.45188 7.89568 2.51463 7.94125 2.59047L13.0653 11.4891C13.1054 11.5578 13.1263 11.636 13.1259 11.7156C13.1255 11.7952 13.1038 11.8731 13.0629 11.9414ZM7.03188 8.43754V6.09379C7.03188 5.96947 7.08126 5.85024 7.16917 5.76233C7.25708 5.67442 7.37631 5.62504 7.50063 5.62504C7.62495 5.62504 7.74418 5.67442 7.83209 5.76233C7.91999 5.85024 7.96938 5.96947 7.96938 6.09379V8.43754C7.96938 8.56186 7.91999 8.68109 7.83209 8.769C7.74418 8.8569 7.62495 8.90629 7.50063 8.90629C7.37631 8.90629 7.25708 8.8569 7.16917 8.769C7.08126 8.68109 7.03188 8.56186 7.03188 8.43754ZM8.20375 10.5469C8.20375 10.686 8.16252 10.8219 8.08526 10.9375C8.008 11.0532 7.89818 11.1433 7.7697 11.1965C7.64122 11.2497 7.49985 11.2637 7.36346 11.2365C7.22706 11.2094 7.10178 11.1424 7.00344 11.0441C6.90511 10.9458 6.83814 10.8205 6.81101 10.6841C6.78388 10.5477 6.79781 10.4063 6.85103 10.2778C6.90424 10.1494 6.99437 10.0395 7.10999 9.96229C7.22562 9.88503 7.36156 9.84379 7.50063 9.84379C7.68711 9.84379 7.86595 9.91787 7.99781 10.0497C8.12967 10.1816 8.20375 10.3604 8.20375 10.5469Z" fill="#DD127A"/>
</svg>
