<svg width="53" height="52" viewBox="0 0 53 52" fill="none" xmlns="http://www.w3.org/2000/svg">
<path d="M0.734375 26C0.734375 11.9167 12.1511 0.5 26.2344 0.5C40.3176 0.5 51.7344 11.9167 51.7344 26C51.7344 40.0833 40.3176 51.5 26.2344 51.5C12.1511 51.5 0.734375 40.0833 0.734375 26Z" fill="#CCCCCC"/>
<path d="M0.734375 26C0.734375 11.9167 12.1511 0.5 26.2344 0.5C40.3176 0.5 51.7344 11.9167 51.7344 26C51.7344 40.0833 40.3176 51.5 26.2344 51.5C12.1511 51.5 0.734375 40.0833 0.734375 26Z" stroke="#CCCCCC"/>
<path d="M24.6844 29.5C25.0844 29.9 25.601 30.096 26.2344 30.088C26.8677 30.08 27.3344 29.8507 27.6344 29.4L33.2344 21L24.8344 26.6C24.3844 26.9 24.147 27.3583 24.1224 27.975C24.0977 28.5917 24.285 29.1 24.6844 29.5ZM26.2344 18C27.2177 18 28.1637 18.1373 29.0724 18.412C29.981 18.6867 30.835 19.0993 31.6344 19.65L29.7344 20.85C29.1844 20.5667 28.6137 20.3543 28.0224 20.213C27.431 20.0717 26.835 20.0007 26.2344 20C24.0177 20 22.13 20.7793 20.5714 22.338C19.0127 23.8967 18.2337 25.784 18.2344 28C18.2344 28.7 18.3304 29.3917 18.5224 30.075C18.7144 30.7583 18.985 31.4 19.3344 32H33.1344C33.5177 31.3667 33.797 30.7083 33.9724 30.025C34.1477 29.3417 34.235 28.6333 34.2344 27.9C34.2344 27.3 34.1634 26.7167 34.0214 26.15C33.8794 25.5833 33.667 25.0333 33.3844 24.5L34.5844 22.6C35.0844 23.3833 35.4804 24.2167 35.7724 25.1C36.0644 25.9833 36.2184 26.9 36.2344 27.85C36.2504 28.8 36.142 29.7083 35.9094 30.575C35.6767 31.4417 35.335 32.2667 34.8844 33.05C34.701 33.35 34.451 33.5833 34.1344 33.75C33.8177 33.9167 33.4844 34 33.1344 34H19.3344C18.9844 34 18.651 33.9167 18.3344 33.75C18.0177 33.5833 17.7677 33.35 17.5844 33.05C17.151 32.3 16.8177 31.5043 16.5844 30.663C16.351 29.8217 16.2344 28.934 16.2344 28C16.2344 26.6167 16.497 25.321 17.0224 24.113C17.5477 22.905 18.2644 21.8467 19.1724 20.938C20.0804 20.0293 21.1427 19.3127 22.3594 18.788C23.576 18.2633 24.8677 18.0007 26.2344 18Z" fill="black"/>
</svg>