<svg width="53" height="52" viewBox="0 0 53 52" fill="none" xmlns="http://www.w3.org/2000/svg">
<rect x="0.734375" y="0.5" width="51" height="51" rx="25.5" fill="#CCCCCC"/>
<rect x="0.734375" y="0.5" width="51" height="51" rx="25.5" stroke="#CCCCCC"/>
<path d="M35.2344 20H31.4844V21.5H35.2344V26H29.9844V27.5H32.2344V29.1065C31.5274 29.289 30.9112 29.7232 30.5014 30.3275C30.0916 30.9318 29.9163 31.6649 30.0083 32.3892C30.1003 33.1136 30.4533 33.7795 31.0012 34.2622C31.5491 34.7449 32.2542 35.0112 32.9844 35.0112C33.7146 35.0112 34.4197 34.7449 34.9675 34.2622C35.5154 33.7795 35.8685 33.1136 35.9605 32.3892C36.0525 31.6649 35.8771 30.9318 35.4673 30.3275C35.0575 29.7232 34.4414 29.289 33.7344 29.1065V27.5H35.2344C35.632 27.4994 36.0132 27.3412 36.2944 27.06C36.5756 26.7788 36.7338 26.3976 36.7344 26V21.5C36.7344 21.1022 36.5763 20.7206 36.295 20.4393C36.0137 20.158 35.6322 20 35.2344 20ZM34.4844 32C34.4844 32.2967 34.3964 32.5867 34.2316 32.8334C34.0668 33.08 33.8325 33.2723 33.5584 33.3858C33.2843 33.4993 32.9827 33.5291 32.6917 33.4712C32.4008 33.4133 32.1335 33.2704 31.9237 33.0607C31.7139 32.8509 31.5711 32.5836 31.5132 32.2926C31.4553 32.0017 31.485 31.7001 31.5986 31.426C31.7121 31.1519 31.9043 30.9176 32.151 30.7528C32.3977 30.588 32.6877 30.5 32.9844 30.5C33.382 30.5006 33.7632 30.6588 34.0444 30.94C34.3256 31.2212 34.4838 31.6024 34.4844 32ZM27.7344 17H23.9844V18.5H27.7344V23H22.4844V24.5H24.7344V29.1065C24.0274 29.289 23.4112 29.7232 23.0014 30.3275C22.5916 30.9318 22.4163 31.6649 22.5083 32.3892C22.6003 33.1136 22.9533 33.7795 23.5012 34.2622C24.0491 34.7449 24.7542 35.0112 25.4844 35.0112C26.2146 35.0112 26.9197 34.7449 27.4675 34.2622C28.0154 33.7795 28.3685 33.1136 28.4605 32.3892C28.5525 31.6649 28.3771 30.9318 27.9673 30.3275C27.5575 29.7232 26.9414 29.289 26.2344 29.1065V24.5H27.7344C28.1322 24.5 28.5137 24.342 28.795 24.0607C29.0763 23.7794 29.2344 23.3978 29.2344 23V18.5C29.2344 18.1022 29.0763 17.7206 28.795 17.4393C28.5137 17.158 28.1322 17 27.7344 17ZM26.9844 32C26.9844 32.2967 26.8964 32.5867 26.7316 32.8334C26.5668 33.08 26.3325 33.2723 26.0584 33.3858C25.7843 33.4993 25.4827 33.5291 25.1917 33.4712C24.9008 33.4133 24.6335 33.2704 24.4237 33.0607C24.2139 32.8509 24.0711 32.5836 24.0132 32.2926C23.9553 32.0017 23.985 31.7001 24.0986 31.426C24.2121 31.1519 24.4043 30.9176 24.651 30.7528C24.8977 30.588 25.1877 30.5 25.4844 30.5C25.882 30.5006 26.2632 30.6588 26.5444 30.94C26.8256 31.2212 26.9838 31.6024 26.9844 32ZM20.2344 14H15.7344C15.3366 14 14.955 14.158 14.6737 14.4393C14.3924 14.7206 14.2344 15.1022 14.2344 15.5V20C14.2344 20.3978 14.3924 20.7794 14.6737 21.0607C14.955 21.342 15.3366 21.5 15.7344 21.5H17.2344V29.1065C16.5274 29.289 15.9112 29.7232 15.5014 30.3275C15.0916 30.9318 14.9163 31.6649 15.0083 32.3892C15.1003 33.1136 15.4533 33.7795 16.0012 34.2622C16.5491 34.7449 17.2542 35.0112 17.9844 35.0112C18.7146 35.0112 19.4197 34.7449 19.9675 34.2622C20.5154 33.7795 20.8685 33.1136 20.9605 32.3892C21.0525 31.6649 20.8771 30.9318 20.4673 30.3275C20.0575 29.7232 19.4414 29.289 18.7344 29.1065V21.5H20.2344C20.6322 21.5 21.0137 21.342 21.295 21.0607C21.5763 20.7794 21.7344 20.3978 21.7344 20V15.5C21.7344 15.1022 21.5763 14.7206 21.295 14.4393C21.0137 14.158 20.6322 14 20.2344 14ZM19.4844 32C19.4844 32.2967 19.3964 32.5867 19.2316 32.8334C19.0668 33.08 18.8325 33.2723 18.5584 33.3858C18.2843 33.4993 17.9827 33.5291 17.6917 33.4712C17.4008 33.4133 17.1335 33.2704 16.9237 33.0607C16.7139 32.8509 16.5711 32.5836 16.5132 32.2926C16.4553 32.0017 16.485 31.7001 16.5986 31.426C16.7121 31.1519 16.9043 30.9176 17.151 30.7528C17.3977 30.588 17.6877 30.5 17.9844 30.5C18.3822 30.5 18.7637 30.658 19.045 30.9393C19.3263 31.2206 19.4844 31.6022 19.4844 32ZM15.7344 20V15.5H20.2344L20.2359 20H15.7344Z" fill="black"/>
</svg>