<svg width="41" height="40" viewBox="0 0 41 40" fill="none" xmlns="http://www.w3.org/2000/svg">
<path d="M31.6182 21.6497H22.7747V30.4932C22.7747 30.9623 22.5883 31.4122 22.2566 31.7439C21.9249 32.0756 21.475 32.2619 21.006 32.2619C20.5369 32.2619 20.087 32.0756 19.7553 31.7439C19.4236 31.4122 19.2372 30.9623 19.2372 30.4932V21.6497H10.3937C9.92462 21.6497 9.47474 21.4633 9.14304 21.1316C8.81135 20.7999 8.625 20.35 8.625 19.881C8.625 19.4119 8.81135 18.962 9.14304 18.6303C9.47474 18.2986 9.92462 18.1122 10.3937 18.1122H19.2372V9.26871C19.2372 8.79962 19.4236 8.34974 19.7553 8.01804C20.087 7.68634 20.5369 7.5 21.006 7.5C21.475 7.5 21.9249 7.68634 22.2566 8.01804C22.5883 8.34974 22.7747 8.79962 22.7747 9.26871V18.1122H31.6182C32.0873 18.1122 32.5372 18.2986 32.8689 18.6303C33.2006 18.962 33.3869 19.4119 33.3869 19.881C33.3869 20.35 33.2006 20.7999 32.8689 21.1316C32.5372 21.4633 32.0873 21.6497 31.6182 21.6497Z" fill="#DD127A"/>
</svg>
