<svg width="14" height="14" viewBox="0 0 14 14" fill="none" xmlns="http://www.w3.org/2000/svg">
<path d="M6.1875 1.5C5.60734 1.5 5.05094 1.73047 4.6407 2.1407C4.23047 2.55094 4 3.10734 4 3.6875C4 4.26766 4.23047 4.82406 4.6407 5.2343C5.05094 5.64453 5.60734 5.875 6.1875 5.875C6.76766 5.875 7.32406 5.64453 7.7343 5.2343C8.14453 4.82406 8.375 4.26766 8.375 3.6875C8.375 3.10734 8.14453 2.55094 7.7343 2.1407C7.32406 1.73047 6.76766 1.5 6.1875 1.5ZM2.75 3.6875C2.75 2.77582 3.11216 1.90148 3.75682 1.25682C4.40148 0.612164 5.27582 0.25 6.1875 0.25C7.09918 0.25 7.97352 0.612164 8.61818 1.25682C9.26284 1.90148 9.625 2.77582 9.625 3.6875C9.625 4.59918 9.26284 5.47352 8.61818 6.11818C7.97352 6.76284 7.09918 7.125 6.1875 7.125C5.27582 7.125 4.40148 6.76284 3.75682 6.11818C3.11216 5.47352 2.75 4.59918 2.75 3.6875ZM4 9C3.33696 9 2.70107 9.26339 2.23223 9.73223C1.76339 10.2011 1.5 10.837 1.5 11.5H6.53125V12.75H0.25V11.5C0.25 10.5054 0.645088 9.55161 1.34835 8.84835C2.05161 8.14509 3.00544 7.75 4 7.75H6.5V9H4ZM11.1875 6.96875V7.82875C11.6344 7.94375 12.0325 8.17875 12.3463 8.49875L13.0919 8.06812L13.7169 9.15062L12.9719 9.58062C13.0933 10.0186 13.0933 10.4814 12.9719 10.9194L13.7169 11.3494L13.0919 12.4319L12.3463 12.0012C12.0281 12.3258 11.6275 12.5574 11.1875 12.6712V13.5312H9.9375V12.6712C9.49748 12.5575 9.09684 12.3259 8.77875 12.0012L8.03312 12.4319L7.40812 11.3494L8.15313 10.9194C8.03155 10.4814 8.03155 10.0186 8.15313 9.58062L7.40812 9.15062L8.03312 8.06812L8.77875 8.49812C9.09692 8.17375 9.49755 7.94231 9.9375 7.82875V6.96875H11.1875ZM9.46813 9.64563C9.36554 9.83053 9.31176 10.0385 9.31188 10.25C9.31188 10.4687 9.36875 10.675 9.46813 10.8544L9.49063 10.8937C9.60156 11.079 9.75862 11.2323 9.94647 11.3388C10.1343 11.4453 10.3466 11.5012 10.5625 11.5012C10.7784 11.5012 10.9907 11.4453 11.1785 11.3388C11.3664 11.2323 11.5234 11.079 11.6344 10.8937L11.6569 10.8544C11.7562 10.675 11.8125 10.4694 11.8125 10.25C11.8125 10.0312 11.7562 9.825 11.6569 9.64563L11.6344 9.60625C11.5234 9.421 11.3664 9.26766 11.1785 9.16119C10.9907 9.05473 10.7784 8.99876 10.5625 8.99876C10.3466 8.99876 10.1343 9.05473 9.94647 9.16119C9.75862 9.26766 9.60156 9.421 9.49063 9.60625L9.46813 9.64563Z" fill="black"/>
</svg>