<svg width="12" height="13" viewBox="0 0 12 13" fill="none" xmlns="http://www.w3.org/2000/svg">
<path d="M1.83942 7L1.57542 7.266C1.64565 7.33562 1.74053 7.37468 1.83942 7.37468C1.93831 7.37468 2.03319 7.33562 2.10342 7.266L1.83942 7ZM2.94342 6.433C3.0141 6.36285 3.05402 6.2675 3.05439 6.16792C3.05477 6.06834 3.01557 5.97268 2.94542 5.902C2.91068 5.86701 2.8694 5.83919 2.82391 5.82015C2.77843 5.80111 2.72964 5.79122 2.68033 5.79103C2.58075 5.79066 2.4851 5.82985 2.41442 5.9L2.94342 6.433ZM1.26342 5.9C1.19241 5.83193 1.09751 5.79449 0.999155 5.79573C0.900801 5.79698 0.806875 5.83682 0.737618 5.90667C0.668362 5.97651 0.629321 6.07077 0.62891 6.16914C0.628498 6.2675 0.666749 6.36208 0.735419 6.4325L1.26342 5.9ZM9.30742 4.196C9.33255 4.23929 9.3661 4.2771 9.40608 4.30722C9.44606 4.33733 9.49167 4.35914 9.54021 4.37135C9.58875 4.38356 9.63925 4.38593 9.68872 4.37832C9.73819 4.37071 9.78564 4.35327 9.82827 4.32704C9.87089 4.3008 9.90783 4.26629 9.93692 4.22555C9.966 4.18482 9.98663 4.13867 9.99759 4.08983C10.0086 4.04099 10.0096 3.99045 10.0008 3.94119C9.99188 3.89193 9.97324 3.84494 9.94592 3.803L9.30742 4.196ZM6.03892 1.625C3.51542 1.625 1.46392 3.6555 1.46392 6.1665H2.21392C2.21392 4.0755 3.92392 2.375 6.03892 2.375V1.625ZM1.46392 6.1665V7H2.21392V6.1665H1.46392ZM2.10392 7.2665L2.94342 6.433L2.41442 5.9L1.57442 6.7335L2.10392 7.2665ZM2.10392 6.734L1.26342 5.9L0.734919 6.4325L1.57492 7.2655L2.10392 6.734ZM9.94592 3.804C9.53538 3.13712 8.9607 2.58664 8.27678 2.20516C7.59285 1.82367 6.82204 1.62393 6.03892 1.625V2.375C6.69402 2.37374 7.339 2.54053 7.91125 2.85944C8.48349 3.17835 8.96437 3.6387 9.30792 4.1965L9.94592 3.804ZM10.1564 6L10.4199 5.7335C10.3497 5.66419 10.2551 5.62532 10.1564 5.62532C10.0578 5.62532 9.96311 5.66419 9.89292 5.7335L10.1564 6ZM9.04942 6.5665C9.01439 6.60114 8.98652 6.64234 8.96741 6.68774C8.94831 6.73315 8.93833 6.78187 8.93805 6.83113C8.93749 6.93062 8.97647 7.02626 9.04642 7.097C9.11637 7.16775 9.21156 7.20781 9.31105 7.20837C9.41053 7.20894 9.50617 7.16996 9.57692 7.1L9.04942 6.5665ZM10.7359 7.1C10.7707 7.13554 10.8123 7.1638 10.8582 7.18312C10.904 7.20244 10.9532 7.21244 11.003 7.21254C11.0528 7.21264 11.102 7.20283 11.148 7.1837C11.1939 7.16456 11.2356 7.13647 11.2705 7.10107C11.3055 7.06567 11.3331 7.02367 11.3517 6.97751C11.3702 6.93134 11.3794 6.88195 11.3787 6.83219C11.378 6.78244 11.3674 6.73332 11.3475 6.68771C11.3276 6.64209 11.2989 6.60089 11.2629 6.5665L10.7359 7.1ZM2.65842 8.803C2.60617 8.71833 2.52243 8.65789 2.42561 8.63496C2.3288 8.61203 2.22684 8.62851 2.14217 8.68075C2.0575 8.733 1.99705 8.81674 1.97412 8.91356C1.9512 9.01038 1.96767 9.11233 2.01992 9.197L2.65842 8.803ZM5.94092 11.375C8.47192 11.375 10.5309 9.346 10.5309 6.8335H9.78092C9.78092 8.9235 8.06592 10.625 5.94092 10.625V11.375ZM10.5309 6.8335V6H9.78092V6.8335H10.5309ZM9.89292 5.7335L9.04942 6.5665L9.57692 7.1L10.4199 6.2665L9.89292 5.7335ZM9.89292 6.2665L10.7359 7.1L11.2629 6.5665L10.4199 5.7335L9.89292 6.2665ZM2.01942 9.1965C2.43274 9.86407 3.01005 10.4147 3.69639 10.7961C4.38273 11.1774 5.15526 11.3767 5.94042 11.375V10.625C5.28326 10.6267 4.63661 10.4602 4.06203 10.1412C3.48746 9.8223 3.00458 9.3616 2.65842 8.803L2.01942 9.1965Z" fill="#DD127A"/>
</svg>
