<svg width="15" height="15" viewBox="0 0 15 15" fill="none" xmlns="http://www.w3.org/2000/svg">
<path d="M6.09412 11.0156C6.09412 11.4328 5.97041 11.8406 5.73863 12.1875C5.50684 12.5344 5.1774 12.8048 4.79197 12.9644C4.40653 13.1241 3.9824 13.1659 3.57323 13.0845C3.16405 13.0031 2.78819 12.8022 2.49319 12.5072C2.19819 12.2122 1.99729 11.8363 1.9159 11.4271C1.83451 11.018 1.87628 10.5938 2.03594 10.2084C2.19559 9.82296 2.46595 9.49353 2.81284 9.26174C3.15972 9.02996 3.56755 8.90625 3.98474 8.90625C4.54418 8.90625 5.08071 9.12849 5.4763 9.52407C5.87188 9.91966 6.09412 10.4562 6.09412 11.0156ZM2.01248 6.89414C2.05601 6.93772 2.10771 6.9723 2.16462 6.99589C2.22152 7.01948 2.28252 7.03162 2.34412 7.03162C2.40572 7.03162 2.46672 7.01948 2.52362 6.99589C2.58053 6.9723 2.63223 6.93772 2.67576 6.89414L3.51599 6.05332L4.35623 6.89414C4.44418 6.9821 4.56348 7.03151 4.68787 7.03151C4.81226 7.03151 4.93155 6.9821 5.01951 6.89414C5.10747 6.80618 5.15688 6.68689 5.15688 6.5625C5.15688 6.43811 5.10747 6.31882 5.01951 6.23086L4.17869 5.39062L5.01951 4.55039C5.10747 4.46243 5.15688 4.34314 5.15688 4.21875C5.15688 4.09436 5.10747 3.97507 5.01951 3.88711C4.93155 3.79915 4.81226 3.74974 4.68787 3.74974C4.56348 3.74974 4.44418 3.79915 4.35623 3.88711L3.51599 4.72793L2.67576 3.88711C2.5878 3.79915 2.46851 3.74974 2.34412 3.74974C2.21973 3.74974 2.10043 3.79915 2.01248 3.88711C1.92452 3.97507 1.87511 4.09436 1.87511 4.21875C1.87511 4.34314 1.92452 4.46243 2.01248 4.55039L2.8533 5.39062L2.01248 6.23086C1.9689 6.27439 1.93432 6.32609 1.91073 6.383C1.88714 6.4399 1.875 6.5009 1.875 6.5625C1.875 6.6241 1.88714 6.6851 1.91073 6.742C1.93432 6.79891 1.9689 6.85061 2.01248 6.89414ZM12.1492 11.0156L12.99 10.1754C13.078 10.0874 13.1274 9.96814 13.1274 9.84375C13.1274 9.71936 13.078 9.60007 12.99 9.51211C12.9021 9.42415 12.7828 9.37474 12.6584 9.37474C12.534 9.37474 12.4147 9.42415 12.3267 9.51211L11.4847 10.3529L10.6445 9.51211C10.5566 9.42415 10.4373 9.37474 10.3129 9.37474C10.1885 9.37474 10.0692 9.42415 9.98123 9.51211C9.89327 9.60007 9.84386 9.71936 9.84386 9.84375C9.84386 9.96814 9.89327 10.0874 9.98123 10.1754L10.822 11.0156L9.98123 11.8559C9.89327 11.9438 9.84386 12.0631 9.84386 12.1875C9.84386 12.3119 9.89327 12.4312 9.98123 12.5191C10.0692 12.6071 10.1885 12.6565 10.3129 12.6565C10.4373 12.6565 10.5566 12.6071 10.6445 12.5191L11.4847 11.6783L12.325 12.5191C12.3685 12.5627 12.4202 12.5972 12.4771 12.6208C12.534 12.6444 12.595 12.6565 12.6566 12.6565C12.7182 12.6565 12.7792 12.6444 12.8361 12.6208C12.893 12.5972 12.9447 12.5627 12.9883 12.5191C13.0318 12.4756 13.0664 12.4239 13.0899 12.367C13.1135 12.3101 13.1256 12.2491 13.1256 12.1875C13.1256 12.1259 13.1135 12.0649 13.0899 12.008C13.0664 11.9511 13.0318 11.8994 12.9883 11.8559L12.1492 11.0156ZM9.23826 2.94961L9.10056 2.8125H10.3129C10.4372 2.8125 10.5564 2.76311 10.6443 2.67521C10.7322 2.5873 10.7816 2.46807 10.7816 2.34375C10.7816 2.21943 10.7322 2.1002 10.6443 2.01229C10.5564 1.92439 10.4372 1.875 10.3129 1.875H7.96912C7.8448 1.875 7.72557 1.92439 7.63766 2.01229C7.54975 2.1002 7.50037 2.21943 7.50037 2.34375V4.6875C7.50037 4.81182 7.54975 4.93105 7.63766 5.01896C7.72557 5.10686 7.8448 5.15625 7.96912 5.15625C8.09344 5.15625 8.21267 5.10686 8.30058 5.01896C8.38848 4.93105 8.43787 4.81182 8.43787 4.6875V3.4752L8.57498 3.61289C9.62556 4.66348 9.62381 5.68711 9.43689 6.36094C9.16502 7.34355 8.30252 8.22246 7.38611 8.45156C7.27514 8.47937 7.17817 8.54681 7.11347 8.64116C7.04877 8.73552 7.02082 8.85027 7.03486 8.96381C7.04891 9.07735 7.104 9.18183 7.18974 9.25757C7.27548 9.33331 7.38596 9.37507 7.50037 9.375C7.53986 9.37519 7.57923 9.37046 7.61756 9.36094C8.86033 9.05039 9.98181 7.91953 10.3439 6.61113C10.6984 5.31914 10.307 4.01895 9.23826 2.94961Z" fill="#000"/>
</svg>
