<svg width="40" height="40" viewBox="0 0 40 40" fill="none" xmlns="http://www.w3.org/2000/svg">
<rect width="40" height="40" rx="20" fill="#C7C7C7"/>
<path d="M23 12.5C23 13.8942 23.96 15.0575 25.25 15.3935V18.5C25.25 19.7405 24.2405 20.75 23 20.75H17C16.1525 20.75 15.3785 21.0432 14.75 21.5195V15.3935C16.04 15.0582 17 13.8935 17 12.5C17 10.8455 15.6545 9.5 14 9.5C12.3455 9.5 11 10.8455 11 12.5C11 13.8942 11.96 15.0575 13.25 15.3935V24.6065C11.96 24.9418 11 26.1065 11 27.5C11 29.1545 12.3455 30.5 14 30.5C15.6545 30.5 17 29.1545 17 27.5C17 26.1065 16.04 24.9425 14.75 24.6065V24.5C14.75 23.2595 15.7595 22.25 17 22.25H23C25.0677 22.25 26.75 20.5677 26.75 18.5V15.3935C28.04 15.0582 29 13.8935 29 12.5C29 10.8455 27.6545 9.5 26 9.5C24.3455 9.5 23 10.8455 23 12.5ZM12.5 12.5C12.5 11.6735 13.1727 11 14 11C14.8273 11 15.5 11.6735 15.5 12.5C15.5 13.3273 14.8273 14 14 14C13.1727 14 12.5 13.3273 12.5 12.5ZM15.5 27.5C15.5 28.3272 14.8273 29 14 29C13.1727 29 12.5 28.3272 12.5 27.5C12.5 26.6728 13.1727 26 14 26C14.8273 26 15.5 26.6728 15.5 27.5ZM27.5 12.5C27.5 13.3273 26.8273 14 26 14C25.1727 14 24.5 13.3273 24.5 12.5C24.5 11.6727 25.1735 11 26 11C26.8265 11 27.5 11.6735 27.5 12.5Z" fill="#0D0D0D"/>
</svg>
