<svg width="15" height="15" viewBox="0 0 15 15" fill="none" xmlns="http://www.w3.org/2000/svg">
<g clip-path="url(#clip0_2343_4645)">
<path d="M14.0186 11.272C14.0479 11.4185 14.0625 11.5674 14.0625 11.7188C14.0625 11.8701 14.0479 12.019 14.0186 12.1655L14.9268 12.5391L14.5679 13.4106L13.6597 13.0298C13.4888 13.2788 13.2788 13.4888 13.0298 13.6597L13.4106 14.5679L12.5391 14.9268L12.1655 14.0186C12.019 14.0479 11.8701 14.0625 11.7188 14.0625C11.5674 14.0625 11.4185 14.0479 11.272 14.0186L10.8984 14.9268L10.0269 14.5679L10.4077 13.6597C10.1587 13.4888 9.94873 13.2788 9.77783 13.0298L8.86963 13.4106L8.51074 12.5391L9.41895 12.1655C9.38965 12.019 9.375 11.8701 9.375 11.7188C9.375 11.5674 9.38965 11.4185 9.41895 11.272L8.51074 10.8984L8.86963 10.0269L9.77783 10.4077C9.94873 10.1587 10.1587 9.94873 10.4077 9.77783L10.0269 8.86963L10.8984 8.51074L11.272 9.41895C11.4185 9.38965 11.5674 9.375 11.7188 9.375C11.8701 9.375 12.019 9.38965 12.1655 9.41895L12.5391 8.51074L13.4106 8.86963L13.0298 9.77783C13.2788 9.94873 13.4888 10.1587 13.6597 10.4077L14.5679 10.0269L14.9268 10.8984L14.0186 11.272ZM11.7188 13.125C11.9141 13.125 12.0972 13.0884 12.2681 13.0151C12.439 12.9419 12.5879 12.8418 12.7148 12.7148C12.8418 12.5879 12.9419 12.439 13.0151 12.2681C13.0884 12.0972 13.125 11.9141 13.125 11.7188C13.125 11.5234 13.0884 11.3403 13.0151 11.1694C12.9419 10.9985 12.8418 10.8496 12.7148 10.7227C12.5879 10.5957 12.439 10.4956 12.2681 10.4224C12.0972 10.3491 11.9141 10.3125 11.7188 10.3125C11.5234 10.3125 11.3403 10.3491 11.1694 10.4224C10.9985 10.4956 10.8496 10.5957 10.7227 10.7227C10.5957 10.8496 10.4956 10.9985 10.4224 11.1694C10.3491 11.3403 10.3125 11.5234 10.3125 11.7188C10.3125 11.9141 10.3491 12.0972 10.4224 12.2681C10.4956 12.439 10.5957 12.5879 10.7227 12.7148C10.8496 12.8418 10.9985 12.9419 11.1694 13.0151C11.3403 13.0884 11.5234 13.125 11.7188 13.125ZM8.4375 4.6875V0.9375H1.875V14.0625H8.4375V15H0.9375V0H9.104L13.125 4.021V7.5H12.1875V4.6875H8.4375ZM9.375 3.75H11.521L9.375 1.604V3.75Z" fill="#DD127A"/>
</g>
<defs>
<clipPath id="clip0_2343_4645">
<rect width="15" height="15" fill="white"/>
</clipPath>
</defs>
</svg>
