<svg width="15" height="15" viewBox="0 0 15 15" fill="none" xmlns="http://www.w3.org/2000/svg">
<path d="M7.5 10C8.11458 10 8.77875 9.89313 9.4925 9.67938C10.2062 9.46563 11.1931 9.08292 12.4531 8.53125C12.474 8.41667 12.4871 8.30479 12.4925 8.19562C12.4979 8.08646 12.5004 7.97437 12.5 7.85938C12.5 7.74479 12.4556 7.65104 12.3669 7.57812C12.2781 7.50521 12.1767 7.48437 12.0625 7.51562C11.9167 7.56771 11.7552 7.6225 11.5781 7.68C11.401 7.7375 11.1771 7.82333 10.9062 7.9375C10.1875 8.23958 9.57292 8.45063 9.0625 8.57063C8.55208 8.69063 8.03125 8.75042 7.5 8.75C6.95833 8.75 6.42708 8.6875 5.90625 8.5625C5.38542 8.4375 4.75 8.22396 4 7.92188C3.72917 7.80729 3.52083 7.72396 3.375 7.67188L2.9375 7.51562C2.82292 7.47396 2.72125 7.49208 2.6325 7.57C2.54375 7.64792 2.49958 7.74437 2.5 7.85938C2.5 7.97396 2.50271 8.08604 2.50813 8.19562C2.51354 8.30521 2.52646 8.41708 2.54688 8.53125C3.59896 9.03125 4.53375 9.40104 5.35125 9.64062C6.16875 9.88021 6.885 10 7.5 10ZM7.5 12.5C8.47917 12.5 9.34896 12.2865 10.1094 11.8594C10.8698 11.4323 11.4635 10.8594 11.8906 10.1406C10.974 10.526 10.1667 10.8073 9.46875 10.9844C8.77083 11.1615 8.11458 11.25 7.5 11.25C6.89583 11.25 6.22396 11.159 5.48437 10.9769C4.74479 10.7948 3.94792 10.5212 3.09375 10.1562C3.51042 10.875 4.10167 11.4454 4.8675 11.8675C5.63333 12.2896 6.51083 12.5004 7.5 12.5ZM7.5 6.25C6.8125 6.25 6.22396 6.00521 5.73438 5.51562C5.24479 5.02604 5 4.4375 5 3.75C5 3.0625 5.24479 2.47396 5.73438 1.98438C6.22396 1.49479 6.8125 1.25 7.5 1.25C8.1875 1.25 8.77604 1.49479 9.26562 1.98438C9.75521 2.47396 10 3.0625 10 3.75C10 4.4375 9.75521 5.02604 9.26562 5.51562C8.77604 6.00521 8.1875 6.25 7.5 6.25ZM7.5 5C7.84375 5 8.13812 4.8775 8.38312 4.6325C8.62812 4.3875 8.75042 4.09333 8.75 3.75C8.75 3.40625 8.6275 3.11187 8.3825 2.86687C8.1375 2.62187 7.84333 2.49958 7.5 2.5C7.15625 2.5 6.86187 2.6225 6.61687 2.8675C6.37187 3.1125 6.24958 3.40667 6.25 3.75C6.25 4.09375 6.3725 4.38813 6.6175 4.63313C6.8625 4.87812 7.15667 5.00042 7.5 5ZM7.5 13.75C5.65625 13.75 4.15354 13.2031 2.99188 12.1094C1.83021 11.0156 1.24958 9.59896 1.25 7.85938C1.25 7.31771 1.46625 6.88542 1.89875 6.5625C2.33125 6.23958 2.8025 6.16146 3.3125 6.32812C3.47917 6.38021 3.65375 6.44021 3.83625 6.50813C4.01875 6.57604 4.23479 6.66187 4.48438 6.76562C5.15104 7.03646 5.70312 7.22667 6.14062 7.33625C6.57812 7.44583 7.03125 7.50042 7.5 7.5C7.94792 7.5 8.39062 7.44792 8.82812 7.34375C9.26562 7.23958 9.80208 7.05208 10.4375 6.78125C10.7396 6.66667 10.9819 6.57292 11.1644 6.5C11.3469 6.42708 11.5265 6.36458 11.7031 6.3125C12.2135 6.16667 12.6823 6.25521 13.1094 6.57812C13.5365 6.90104 13.75 7.32812 13.75 7.85938C13.75 8.68229 13.5885 9.45063 13.2656 10.1644C12.9427 10.8781 12.5 11.5004 11.9375 12.0312C11.375 12.5625 10.7135 12.9819 9.95312 13.2894C9.19271 13.5969 8.375 13.7504 7.5 13.75Z" fill="#DD127A"/>
</svg>
