<svg width="8" height="12" viewBox="0 0 8 12" fill="none" xmlns="http://www.w3.org/2000/svg">
<path fill-rule="evenodd" clip-rule="evenodd" d="M1.15213 11.6483C0.92716 11.4233 0.800782 11.1181 0.800782 10.7999C0.800782 10.4817 0.92716 10.1765 1.15213 9.9515L5.10373 5.9999L1.15213 2.0483C0.933536 1.82198 0.812582 1.51886 0.815316 1.20422C0.81805 0.889585 0.944253 0.588611 1.16674 0.366121C1.38923 0.143631 1.69021 0.0174279 2.00484 0.0146937C2.31948 0.0119596 2.6226 0.132913 2.84892 0.351503L7.64893 5.1515C7.87389 5.37654 8.00027 5.68171 8.00027 5.9999C8.00027 6.3181 7.87389 6.62327 7.64893 6.8483L2.84893 11.6483C2.62389 11.8733 2.31872 11.9996 2.00053 11.9996C1.68233 11.9996 1.37716 11.8733 1.15213 11.6483Z" fill="#DD127A"/>
</svg>
