<svg width="40" height="40" viewBox="0 0 40 40" fill="none" xmlns="http://www.w3.org/2000/svg">
<rect width="40" height="40" rx="20" fill="#C7C7C7"/>
<path d="M20 25.5C20.3978 25.5 20.7794 25.658 21.0607 25.9393C21.342 26.2206 21.5 26.6022 21.5 27C21.5 27.3978 21.342 27.7794 21.0607 28.0607C20.7794 28.342 20.3978 28.5 20 28.5C19.6022 28.5 19.2206 28.342 18.9393 28.0607C18.658 27.7794 18.5 27.3978 18.5 27C18.5 26.6022 18.658 26.2206 18.9393 25.9393C19.2206 25.658 19.6022 25.5 20 25.5ZM27 25.5C27.3978 25.5 27.7794 25.658 28.0607 25.9393C28.342 26.2206 28.5 26.6022 28.5 27C28.5 27.3978 28.342 27.7794 28.0607 28.0607C27.7794 28.342 27.3978 28.5 27 28.5C26.6022 28.5 26.2206 28.342 25.9393 28.0607C25.658 27.7794 25.5 27.3978 25.5 27C25.5 26.6022 25.658 26.2206 25.9393 25.9393C26.2206 25.658 26.6022 25.5 27 25.5ZM13 25.5C13.3978 25.5 13.7794 25.658 14.0607 25.9393C14.342 26.2206 14.5 26.6022 14.5 27C14.5 27.3978 14.342 27.7794 14.0607 28.0607C13.7794 28.342 13.3978 28.5 13 28.5C12.6022 28.5 12.2206 28.342 11.9393 28.0607C11.658 27.7794 11.5 27.3978 11.5 27C11.5 26.6022 11.658 26.2206 11.9393 25.9393C12.2206 25.658 12.6022 25.5 13 25.5ZM20 18.5C20.3978 18.5 20.7794 18.658 21.0607 18.9393C21.342 19.2206 21.5 19.6022 21.5 20C21.5 20.3978 21.342 20.7794 21.0607 21.0607C20.7794 21.342 20.3978 21.5 20 21.5C19.6022 21.5 19.2206 21.342 18.9393 21.0607C18.658 20.7794 18.5 20.3978 18.5 20C18.5 19.6022 18.658 19.2206 18.9393 18.9393C19.2206 18.658 19.6022 18.5 20 18.5ZM27 18.5C27.3978 18.5 27.7794 18.658 28.0607 18.9393C28.342 19.2206 28.5 19.6022 28.5 20C28.5 20.3978 28.342 20.7794 28.0607 21.0607C27.7794 21.342 27.3978 21.5 27 21.5C26.6022 21.5 26.2206 21.342 25.9393 21.0607C25.658 20.7794 25.5 20.3978 25.5 20C25.5 19.6022 25.658 19.2206 25.9393 18.9393C26.2206 18.658 26.6022 18.5 27 18.5ZM13 18.5C13.3978 18.5 13.7794 18.658 14.0607 18.9393C14.342 19.2206 14.5 19.6022 14.5 20C14.5 20.3978 14.342 20.7794 14.0607 21.0607C13.7794 21.342 13.3978 21.5 13 21.5C12.6022 21.5 12.2206 21.342 11.9393 21.0607C11.658 20.7794 11.5 20.3978 11.5 20C11.5 19.6022 11.658 19.2206 11.9393 18.9393C12.2206 18.658 12.6022 18.5 13 18.5ZM20 11.5C20.3978 11.5 20.7794 11.658 21.0607 11.9393C21.342 12.2206 21.5 12.6022 21.5 13C21.5 13.3978 21.342 13.7794 21.0607 14.0607C20.7794 14.342 20.3978 14.5 20 14.5C19.6022 14.5 19.2206 14.342 18.9393 14.0607C18.658 13.7794 18.5 13.3978 18.5 13C18.5 12.6022 18.658 12.2206 18.9393 11.9393C19.2206 11.658 19.6022 11.5 20 11.5ZM27 11.5C27.3978 11.5 27.7794 11.658 28.0607 11.9393C28.342 12.2206 28.5 12.6022 28.5 13C28.5 13.3978 28.342 13.7794 28.0607 14.0607C27.7794 14.342 27.3978 14.5 27 14.5C26.6022 14.5 26.2206 14.342 25.9393 14.0607C25.658 13.7794 25.5 13.3978 25.5 13C25.5 12.6022 25.658 12.2206 25.9393 11.9393C26.2206 11.658 26.6022 11.5 27 11.5ZM13 11.5C13.3978 11.5 13.7794 11.658 14.0607 11.9393C14.342 12.2206 14.5 12.6022 14.5 13C14.5 13.3978 14.342 13.7794 14.0607 14.0607C13.7794 14.342 13.3978 14.5 13 14.5C12.6022 14.5 12.2206 14.342 11.9393 14.0607C11.658 13.7794 11.5 13.3978 11.5 13C11.5 12.6022 11.658 12.2206 11.9393 11.9393C12.2206 11.658 12.6022 11.5 13 11.5Z" fill="#0D0D0D"/>
</svg>
