<svg width="60" height="24" viewBox="0 0 60 24" fill="none" xmlns="http://www.w3.org/2000/svg">
<path d="M8.27273 0.227272L12.0909 7H12.2727L16.1364 0.227272H23.1818L16.2273 11.8636L23.4545 23.5H16.2273L12.2727 16.5909H12.0909L8.13636 23.5H0.954545L8.09091 11.8636L1.18182 0.227272H8.27273ZM20.1517 0.227272H27.1972L31.7426 9.68182H31.9244L36.4699 0.227272H43.5153L34.9699 16.1818V23.5H28.6972V16.1818L20.1517 0.227272ZM40.8659 23.5V20L51.8659 5.31818H40.9114V0.227272H59.9114V3.72727L48.9114 18.4091H59.8659V23.5H40.8659Z" fill="url(#paint0_linear_2816_4505)"/>
<defs>
<linearGradient id="paint0_linear_2816_4505" x1="31" y1="-7.5" x2="31" y2="31.5" gradientUnits="userSpaceOnUse">
<stop stop-color="#66B7E5"/>
<stop offset="1" stop-color="#00A45F"/>
</linearGradient>
</defs>
</svg>
