<svg width="160" height="32" viewBox="0 0 160 32" fill="none" xmlns="http://www.w3.org/2000/svg">
<path d="M0.585938 31.5625C0.638021 31.276 0.722656 31.0286 0.839844 30.8203C0.94401 30.625 1.02865 30.4036 1.09375 30.1562C1.34115 29.5703 1.60156 29.0885 1.875 28.7109C1.92708 28.5026 1.9987 28.3203 2.08984 28.1641C2.18099 28.0078 2.27865 27.8646 2.38281 27.7344C2.52604 27.3828 2.64974 27.0378 2.75391 26.6992C2.85807 26.3607 2.99479 26.0286 3.16406 25.7031C3.47656 25.1042 3.79557 24.4857 4.12109 23.8477C4.44661 23.2096 4.76562 22.5781 5.07812 21.9531C5.15625 21.8099 5.23438 21.6667 5.3125 21.5234C5.39062 21.3672 5.46224 21.2174 5.52734 21.0742C5.59245 20.931 5.66406 20.7878 5.74219 20.6445C5.83333 20.4883 5.92448 20.3385 6.01562 20.1953L6.17188 19.5703C6.23698 19.3359 6.30208 19.1276 6.36719 18.9453C6.34115 18.776 6.35417 18.6523 6.40625 18.5742L6.5625 18.2812L6.67969 17.8125C6.75781 17.5 6.86198 17.2461 6.99219 17.0508C7.10938 16.8685 7.21354 16.6276 7.30469 16.3281C7.38281 16.276 7.44792 16.1979 7.5 16.0938C7.55208 15.9896 7.60417 15.8854 7.65625 15.7812C7.76042 15.4948 7.86458 15.2148 7.96875 14.9414C8.07292 14.6549 8.17708 14.375 8.28125 14.1016C8.38542 13.8281 8.48958 13.5482 8.59375 13.2617C8.69792 12.9753 8.80208 12.6823 8.90625 12.3828C9.04948 12.0443 9.16667 11.7904 9.25781 11.6211C9.36198 11.4388 9.4401 11.224 9.49219 10.9766C9.7526 10.3776 10.013 9.78516 10.2734 9.19922C10.5339 8.61328 10.8073 8.02083 11.0938 7.42188C11.1849 7.20052 11.276 6.99219 11.3672 6.79688C11.4583 6.60156 11.5495 6.41927 11.6406 6.25C11.7318 6.05469 11.849 5.85286 11.9922 5.64453C12.0964 5.48828 12.1875 5.29948 12.2656 5.07812C12.3307 4.92188 12.3307 4.7526 12.2656 4.57031C11.9792 4.58333 11.7253 4.67448 11.5039 4.84375C11.2956 5 11.0417 5.15625 10.7422 5.3125C10.6771 5.35156 10.6055 5.39714 10.5273 5.44922C10.4622 5.48828 10.3906 5.53385 10.3125 5.58594C10.2344 5.70312 10.1628 5.77474 10.0977 5.80078C10.0456 5.82682 10 5.85938 9.96094 5.89844C9.71354 6.04167 9.47266 6.20443 9.23828 6.38672C9.01693 6.55599 8.76302 6.71875 8.47656 6.875C8.35938 6.97917 8.23568 7.08984 8.10547 7.20703C7.98828 7.3112 7.86458 7.41536 7.73438 7.51953C7.60417 7.6237 7.47396 7.73438 7.34375 7.85156C7.22656 7.95573 7.10938 8.0599 6.99219 8.16406C6.90104 8.33333 6.73177 8.48958 6.48438 8.63281C6.35417 8.76302 6.23047 8.90625 6.11328 9.0625C5.99609 9.21875 5.8724 9.36198 5.74219 9.49219C5.71615 9.83073 5.63802 10.1497 5.50781 10.4492C5.3776 10.7487 5.2474 11.0417 5.11719 11.3281C5.03906 11.5365 4.97396 11.7318 4.92188 11.9141C5.02604 11.9661 5.1237 11.9466 5.21484 11.8555C5.30599 11.7643 5.40365 11.7318 5.50781 11.7578C5.88542 11.6016 6.19792 11.4062 6.44531 11.1719C6.66667 10.9635 6.9401 10.7422 7.26562 10.5078C7.52604 10.2995 7.76693 10.0586 7.98828 9.78516C8.20964 9.51172 8.42448 9.23177 8.63281 8.94531C8.75 8.82812 8.84115 8.73047 8.90625 8.65234C8.98438 8.57422 9.03646 8.52214 9.0625 8.49609C9.1276 8.43099 9.21875 8.39844 9.33594 8.39844C9.46615 8.51562 9.53776 8.60677 9.55078 8.67188C9.5638 8.69792 9.55729 8.75 9.53125 8.82812C9.28385 9.42708 9.03646 9.91536 8.78906 10.293C8.67188 10.4622 8.55469 10.6445 8.4375 10.8398C8.33333 11.0221 8.22917 11.2109 8.125 11.4062C7.85156 11.6797 7.64323 11.9466 7.5 12.207C7.38281 12.4284 7.22656 12.6562 7.03125 12.8906C6.90104 13.125 6.77083 13.3529 6.64062 13.5742C6.51042 13.7956 6.34115 13.9714 6.13281 14.1016C5.66406 14.2057 5.30599 14.1992 5.05859 14.082L4.41406 13.7891C4.36198 13.75 4.25781 13.7174 4.10156 13.6914C3.97135 13.6654 3.86719 13.6198 3.78906 13.5547C3.65885 13.3984 3.56771 13.2878 3.51562 13.2227C3.46354 13.1576 3.45052 13.0729 3.47656 12.9688C3.32031 12.8125 3.24219 12.5521 3.24219 12.1875C3.34635 11.9141 3.39193 11.7643 3.37891 11.7383C3.36589 11.7122 3.3724 11.6667 3.39844 11.6016C3.41146 11.5495 3.44401 11.4714 3.49609 11.3672C3.54818 11.263 3.58073 11.1849 3.59375 11.1328C3.63281 11.0677 3.66536 10.957 3.69141 10.8008C3.71745 10.6445 3.75 10.5208 3.78906 10.4297C3.86719 10.1953 4.01042 9.9349 4.21875 9.64844L4.39453 9.21875C4.43359 9.11458 4.49219 8.97135 4.57031 8.78906L4.76562 8.32031C4.83073 8.09896 4.86328 7.98828 4.86328 7.98828C4.88932 7.96224 4.90885 7.92969 4.92188 7.89062C5.01302 7.60417 5.09766 7.39583 5.17578 7.26562C5.24089 7.16146 5.27344 7.04427 5.27344 6.91406C5.91146 5.97656 6.71875 5.15625 7.69531 4.45312C8.0599 4.16667 8.44401 3.88021 8.84766 3.59375C9.2513 3.30729 9.66146 3.03385 10.0781 2.77344C10.2865 2.5651 10.5339 2.36328 10.8203 2.16797C11.1068 1.97266 11.3932 1.78385 11.6797 1.60156C11.7839 1.54948 11.888 1.49089 11.9922 1.42578C12.0964 1.36068 12.194 1.29557 12.2852 1.23047C12.4805 1.08724 12.6953 0.989583 12.9297 0.9375C13.099 0.885417 13.2682 0.898438 13.4375 0.976562C13.6979 1.13281 13.8672 1.20443 13.9453 1.19141C13.9974 1.17839 14.0625 1.1849 14.1406 1.21094C14.2969 1.26302 14.4271 1.38021 14.5312 1.5625C14.6354 1.74479 14.7135 1.90104 14.7656 2.03125C14.8438 2.1875 14.9284 2.36979 15.0195 2.57812C15.1107 2.78646 15.1823 3.03385 15.2344 3.32031L15.293 3.71094C15.306 3.77604 15.3125 3.84115 15.3125 3.90625C15.3255 3.97135 15.3385 4.03646 15.3516 4.10156C15.3516 4.19271 15.3646 4.32943 15.3906 4.51172C15.4167 4.69401 15.4297 4.81771 15.4297 4.88281C15.4036 5.11719 15.3255 5.35156 15.1953 5.58594C15.0651 5.82031 14.9479 6.02865 14.8438 6.21094C14.7526 6.39323 14.6615 6.58203 14.5703 6.77734C14.4922 6.95964 14.4206 7.14193 14.3555 7.32422C14.2253 7.6888 14.0495 8.0599 13.8281 8.4375C13.6719 8.64583 13.5938 8.76953 13.5938 8.80859C13.5938 8.84766 13.5807 8.88021 13.5547 8.90625C13.4505 9.19271 13.3724 9.38151 13.3203 9.47266C13.2943 9.52474 13.2682 9.58333 13.2422 9.64844C13.2161 9.71354 13.1901 9.77865 13.1641 9.84375L12.7539 10.8008C12.6888 10.9701 12.6172 11.1393 12.5391 11.3086C12.474 11.4779 12.4089 11.6536 12.3438 11.8359C12.487 11.8099 12.6042 11.6927 12.6953 11.4844C12.8385 11.3932 12.9688 11.224 13.0859 10.9766C13.2161 10.8464 13.3203 10.7292 13.3984 10.625C13.4505 10.5599 13.4961 10.4948 13.5352 10.4297C13.5872 10.3646 13.6263 10.306 13.6523 10.2539C13.7044 10.1497 13.7891 10.0391 13.9062 9.92188C14.1927 9.63542 14.4727 9.32292 14.7461 8.98438C15.0195 8.64583 15.2865 8.30729 15.5469 7.96875C15.8854 7.65625 16.1849 7.28516 16.4453 6.85547C16.7057 6.42578 16.9401 5.98958 17.1484 5.54688C17.3047 5.41667 17.4544 5.28646 17.5977 5.15625C17.7409 5.02604 17.8776 4.86979 18.0078 4.6875C18.3333 4.42708 18.6784 4.09505 19.043 3.69141C19.4206 3.27474 19.7331 2.96224 19.9805 2.75391C20.306 2.48047 20.6641 2.26562 21.0547 2.10938C21.4453 1.95312 21.888 1.90104 22.3828 1.95312C22.513 2.09635 22.6302 2.26562 22.7344 2.46094C22.8255 2.63021 22.9557 2.78646 23.125 2.92969C23.3333 3.45052 23.5091 4.00391 23.6523 4.58984C23.7956 5.17578 23.8542 5.84635 23.8281 6.60156C23.763 6.83594 23.6784 7.05078 23.5742 7.24609C23.4701 7.42839 23.3854 7.66927 23.3203 7.96875L23.1836 8.32031C23.1706 8.3724 23.151 8.43099 23.125 8.49609C23.099 8.54818 23.0729 8.60677 23.0469 8.67188C22.9948 8.82812 22.9232 8.9974 22.832 9.17969C22.7539 9.34896 22.6628 9.53776 22.5586 9.74609C22.3242 10.1888 22.1745 10.5729 22.1094 10.8984C22.0443 10.9635 21.9987 11.0612 21.9727 11.1914L21.9141 11.5625C21.7578 11.888 21.6797 12.1549 21.6797 12.3633C21.6797 12.5846 21.6536 12.7734 21.6016 12.9297C21.4714 13.3984 21.3542 13.8672 21.25 14.3359C21.1458 14.8047 21.0417 15.2865 20.9375 15.7812C20.8854 15.9375 20.8464 16.0807 20.8203 16.2109C20.7943 16.3411 20.7682 16.4714 20.7422 16.6016C20.6901 16.7188 20.6445 16.8815 20.6055 17.0898C20.5664 17.2982 20.5208 17.4609 20.4688 17.5781C20.5469 17.5651 20.625 17.4935 20.7031 17.3633C20.8073 17.207 20.8854 17.0964 20.9375 17.0312L21.3477 16.4062C21.4128 16.3021 21.4779 16.1979 21.543 16.0938C21.6211 15.9896 21.6927 15.8854 21.7578 15.7812C21.862 15.638 21.9596 15.4948 22.0508 15.3516C22.1549 15.2083 22.2526 15.0716 22.3438 14.9414C22.5391 14.6419 22.7344 14.375 22.9297 14.1406C23.1901 13.75 23.3919 13.4375 23.5352 13.2031C23.6784 12.9688 23.8151 12.7214 23.9453 12.4609C24.1536 12.2526 24.3229 12.0443 24.4531 11.8359C24.5182 11.7318 24.5898 11.6276 24.668 11.5234C24.7461 11.4193 24.8307 11.3151 24.9219 11.2109C25.0781 10.8854 25.2474 10.5729 25.4297 10.2734C25.5599 10.0521 25.6641 9.84375 25.7422 9.64844C25.9766 9.33594 26.2109 9.03646 26.4453 8.75C26.6797 8.46354 26.9271 8.17708 27.1875 7.89062C27.3047 7.77344 27.4089 7.66927 27.5 7.57812C27.6042 7.48698 27.6888 7.41536 27.7539 7.36328C27.819 7.29818 27.8906 7.23958 27.9688 7.1875C28.0469 7.1224 28.125 7.05729 28.2031 6.99219C28.5286 6.57552 28.9193 6.17188 29.375 5.78125C29.7396 5.27344 30.1758 4.8112 30.6836 4.39453C30.944 4.1862 31.1914 3.98438 31.4258 3.78906C31.6602 3.58073 31.888 3.3724 32.1094 3.16406C32.3958 3.07292 32.6172 2.9362 32.7734 2.75391C32.9297 2.57161 33.0859 2.55208 33.2422 2.69531C33.5026 2.48698 33.737 2.41536 33.9453 2.48047C34.1536 2.54557 34.2969 2.60417 34.375 2.65625C34.7005 2.95573 34.8958 3.16406 34.9609 3.28125C35.013 3.35938 35.0521 3.45052 35.0781 3.55469C35.1042 3.65885 35.1432 3.75 35.1953 3.82812L35.4297 4.41406C35.4557 4.46615 35.4818 4.52474 35.5078 4.58984C35.5339 4.64193 35.5599 4.70052 35.5859 4.76562L35.7422 5.15625C35.8464 5.36458 35.944 5.61198 36.0352 5.89844C36.1263 6.1849 36.1589 6.47135 36.1328 6.75781C36.1198 6.82292 36.1068 6.89453 36.0938 6.97266C36.0807 7.03776 36.0677 7.10938 36.0547 7.1875C36.0286 7.35677 35.9896 7.52604 35.9375 7.69531C35.8984 7.79948 35.8594 7.89714 35.8203 7.98828C35.7812 8.07943 35.7487 8.17057 35.7227 8.26172L35.5469 8.75C35.5208 8.8151 35.5013 8.88021 35.4883 8.94531C35.4753 8.9974 35.4622 9.04948 35.4492 9.10156C35.4232 9.24479 35.3906 9.34896 35.3516 9.41406C35.1953 9.81771 34.987 10.293 34.7266 10.8398C34.5964 11.1003 34.4792 11.3411 34.375 11.5625C34.2839 11.7839 34.2057 11.9792 34.1406 12.1484C34.1276 12.3828 34.0365 12.5911 33.8672 12.7734C33.8021 13.0599 33.737 13.2682 33.6719 13.3984C33.5938 13.5677 33.5156 13.763 33.4375 13.9844C33.3984 14.0755 33.3659 14.1992 33.3398 14.3555C33.3138 14.5117 33.2812 14.6354 33.2422 14.7266C33.1641 14.9089 33.099 15.0456 33.0469 15.1367C32.9948 15.2279 32.9297 15.3646 32.8516 15.5469C32.7995 15.7552 32.7474 15.957 32.6953 16.1523C32.6432 16.3477 32.5651 16.5365 32.4609 16.7188C32.3568 17.0052 32.2526 17.2786 32.1484 17.5391C32.0443 17.7995 31.9141 18.0339 31.7578 18.2422C31.237 19.0885 30.8073 20.0195 30.4688 21.0352C30.1432 22.0247 29.7526 22.9818 29.2969 23.9062C29.2839 24.0495 29.2318 24.2057 29.1406 24.375C29.1016 24.4531 29.0625 24.5312 29.0234 24.6094C28.9974 24.6875 28.9714 24.7656 28.9453 24.8438C28.8151 25 28.7174 25.2083 28.6523 25.4688C28.6003 25.6771 28.5286 25.9245 28.4375 26.2109C28.3594 26.4714 28.3724 26.6862 28.4766 26.8555C28.5807 27.0247 28.6719 27.1354 28.75 27.1875C28.8802 27.2656 29.069 27.2917 29.3164 27.2656C29.5638 27.2396 29.7526 27.2005 29.8828 27.1484C29.9609 27.1224 30.0456 27.0964 30.1367 27.0703C30.2279 27.0443 30.3255 27.0182 30.4297 26.9922C30.5339 26.9661 30.6315 26.9401 30.7227 26.9141C30.8138 26.888 30.8984 26.862 30.9766 26.8359C31.1979 26.7578 31.3737 26.6797 31.5039 26.6016C31.569 26.5625 31.6406 26.5234 31.7188 26.4844C31.7969 26.4453 31.875 26.4062 31.9531 26.3672C32.0964 26.263 32.2656 26.1849 32.4609 26.1328C32.5521 26.0417 32.6302 25.9896 32.6953 25.9766C32.7604 25.9635 32.8255 25.9245 32.8906 25.8594C33.1771 25.625 33.4701 25.3385 33.7695 25C34.043 24.6875 34.349 24.401 34.6875 24.1406C35.1432 23.4375 35.7422 22.8255 36.4844 22.3047C36.7708 22.4609 36.9596 22.6042 37.0508 22.7344C37.1419 22.8646 37.2266 22.9948 37.3047 23.125C37.3307 23.3854 37.2917 23.5872 37.1875 23.7305C37.0833 23.8737 36.9922 24.0365 36.9141 24.2188C36.7057 24.4271 36.4974 24.6419 36.2891 24.8633C36.0938 25.0846 35.8984 25.306 35.7031 25.5273C35.3125 25.9831 34.9089 26.4062 34.4922 26.7969C34.4271 26.9401 34.362 27.0898 34.2969 27.2461C34.2318 27.3893 34.1667 27.5326 34.1016 27.6758C33.9583 27.9753 33.763 28.2031 33.5156 28.3594C33.2943 28.5156 33.0859 28.6654 32.8906 28.8086C32.7083 28.9518 32.5391 29.0885 32.3828 29.2188C32.0703 29.4792 31.7318 29.6745 31.3672 29.8047C30.6901 30.2083 30.013 30.6771 29.3359 31.2109C29.0625 31.3932 28.737 31.5625 28.3594 31.7188C28.151 31.6016 28.0469 31.543 28.0469 31.543L27.9688 31.4844C27.5521 31.4193 27.2461 31.2565 27.0508 30.9961C26.8685 30.7357 26.6406 30.4818 26.3672 30.2344C26.0156 29.8828 25.7552 29.401 25.5859 28.7891C25.4818 28.4505 25.3841 28.125 25.293 27.8125C25.2018 27.5 25.1823 27.1224 25.2344 26.6797C25.2604 26.3932 25.3255 26.1198 25.4297 25.8594C25.5339 25.599 25.638 25.3516 25.7422 25.1172C25.9635 24.6224 26.1914 24.1211 26.4258 23.6133C26.6732 23.0924 26.9271 22.5651 27.1875 22.0312C27.7344 20.9245 28.1641 19.8958 28.4766 18.9453C28.5547 18.8151 28.6003 18.7044 28.6133 18.6133L28.6719 18.3594C28.776 18.099 28.8997 17.832 29.043 17.5586C29.1862 17.2852 29.3229 17.0312 29.4531 16.7969C29.5312 16.4453 29.6419 16.1133 29.7852 15.8008C29.8503 15.6576 29.9154 15.5078 29.9805 15.3516C30.0586 15.1823 30.1302 15.013 30.1953 14.8438C30.3516 14.6094 30.4688 14.3359 30.5469 14.0234C30.625 13.724 30.7552 13.4505 30.9375 13.2031L31.4062 11.7188C31.5755 11.1719 31.6927 10.651 31.7578 10.1562C31.7839 9.9349 31.7839 9.73958 31.7578 9.57031C31.7318 9.38802 31.7318 9.17969 31.7578 8.94531C31.7708 8.64583 31.8099 8.30729 31.875 7.92969C31.9271 7.5651 31.9271 7.1875 31.875 6.79688C31.8099 6.84896 31.7448 6.90104 31.6797 6.95312C31.6146 6.99219 31.5495 7.03125 31.4844 7.07031C31.4193 7.10938 31.3542 7.15495 31.2891 7.20703C31.224 7.24609 31.1589 7.29167 31.0938 7.34375C30.9505 7.47396 30.7878 7.59766 30.6055 7.71484C30.4492 7.81901 30.2995 7.94271 30.1562 8.08594C30.0781 8.16406 30.013 8.22266 29.9609 8.26172C29.9219 8.30078 29.8958 8.32682 29.8828 8.33984C29.8698 8.35286 29.8503 8.36589 29.8242 8.37891C29.8112 8.39193 29.7917 8.41146 29.7656 8.4375C29.6224 8.6849 29.5052 8.83464 29.4141 8.88672C29.3229 8.9388 29.2318 9.02344 29.1406 9.14062C28.9062 9.50521 28.7305 9.74609 28.6133 9.86328C28.5482 9.92839 28.4766 10 28.3984 10.0781C28.3333 10.1562 28.2682 10.2344 28.2031 10.3125C28.2031 10.3516 28.1706 10.4688 28.1055 10.6641C28.0404 10.8594 28.0078 10.9766 28.0078 11.0156C27.6042 11.7057 27.2135 12.2396 26.8359 12.6172C26.6927 12.8385 26.543 13.0534 26.3867 13.2617C26.2435 13.4701 26.1003 13.6719 25.957 13.8672C25.8138 14.0625 25.6706 14.2643 25.5273 14.4727C25.3841 14.681 25.2474 14.8958 25.1172 15.1172C24.8568 15.5469 24.6029 15.8724 24.3555 16.0938C24.1341 16.2891 23.9062 16.5625 23.6719 16.9141C23.4375 17.1484 23.2031 17.4349 22.9688 17.7734C22.8646 17.9297 22.7474 18.0794 22.6172 18.2227C22.5 18.3659 22.3698 18.5026 22.2266 18.6328C22.0182 18.9193 21.8164 19.1992 21.6211 19.4727C21.4258 19.7461 21.237 20.0391 21.0547 20.3516C21.0026 20.4557 20.8854 20.6771 20.7031 21.0156C20.5208 21.3542 20.4036 21.5755 20.3516 21.6797C20.2344 21.888 20.1302 22.1354 20.0391 22.4219C19.9609 22.6953 19.8568 22.9297 19.7266 23.125C19.6224 23.3073 19.5117 23.4896 19.3945 23.6719C19.2904 23.8411 19.1797 24.0104 19.0625 24.1797C18.9453 24.349 18.8281 24.5247 18.7109 24.707C18.6068 24.8763 18.5026 25.0521 18.3984 25.2344C18.2812 25.5078 18.2096 25.7292 18.1836 25.8984C18.1445 26.1068 18.0599 26.25 17.9297 26.3281C17.7734 26.6797 17.6237 26.9596 17.4805 27.168C17.3372 27.3763 17.1875 27.6693 17.0312 28.0469C16.9531 28.2292 16.8294 28.3594 16.6602 28.4375C16.4909 28.5156 16.3281 28.5156 16.1719 28.4375C15.9766 28.3594 15.8073 28.2031 15.6641 27.9688C15.599 27.8516 15.5339 27.7474 15.4688 27.6562C15.4036 27.5521 15.3385 27.4609 15.2734 27.3828C15.2083 27.1484 15.1367 26.9661 15.0586 26.8359C14.9674 26.6927 14.9219 26.5104 14.9219 26.2891C14.8958 26.1719 14.9023 26.0547 14.9414 25.9375C14.9805 25.8203 14.987 25.7031 14.9609 25.5859C14.8828 25.2734 14.8828 25.0195 14.9609 24.8242L15.1562 24.2969C15.2474 24.0234 15.3385 23.8542 15.4297 23.7891C15.4557 23.6979 15.4818 23.6133 15.5078 23.5352C15.5339 23.444 15.5534 23.3594 15.5664 23.2812C15.5924 23.2031 15.612 23.125 15.625 23.0469C15.651 22.9557 15.6771 22.8646 15.7031 22.7734C15.7292 22.7083 15.7552 22.6432 15.7812 22.5781C15.8073 22.513 15.8333 22.4544 15.8594 22.4023C15.8854 22.3372 15.9115 22.2786 15.9375 22.2266C15.9635 22.1615 15.9896 22.0964 16.0156 22.0312L16.1523 21.6797C16.1784 21.6276 16.1979 21.5755 16.2109 21.5234C16.237 21.4583 16.263 21.3932 16.2891 21.3281C16.3151 21.1979 16.3281 21.1198 16.3281 21.0938C16.3281 21.0286 16.3542 20.9505 16.4062 20.8594C16.4323 20.7422 16.4583 20.625 16.4844 20.5078C16.5234 20.3906 16.569 20.2799 16.6211 20.1758C16.6732 20.0716 16.7188 19.9609 16.7578 19.8438C16.8099 19.7135 16.862 19.5833 16.9141 19.4531C16.9792 19.2708 17.0833 18.9974 17.2266 18.6328C17.3828 18.2682 17.5326 17.9167 17.6758 17.5781C17.819 17.2396 17.9167 17.0312 17.9688 16.9531C18.0208 16.8229 18.0859 16.6667 18.1641 16.4844C18.2422 16.3021 18.3203 16.1328 18.3984 15.9766C18.5417 15.7161 18.6263 15.5404 18.6523 15.4492C18.6654 15.4102 18.6719 15.3516 18.6719 15.2734C18.5677 15.0911 18.5742 14.8503 18.6914 14.5508C18.8086 14.2513 18.9323 13.9453 19.0625 13.6328C19.1276 13.4766 19.1797 13.3203 19.2188 13.1641C19.2708 12.9948 19.3099 12.8255 19.3359 12.6562C19.401 12.3047 19.4792 11.9792 19.5703 11.6797C19.6354 11.4583 19.707 11.224 19.7852 10.9766C19.8763 10.7161 19.9674 10.4427 20.0586 10.1562C20.2409 9.6224 20.3646 9.0625 20.4297 8.47656C20.4297 8.3724 20.4297 8.27474 20.4297 8.18359C20.4427 8.07943 20.4557 7.98177 20.4688 7.89062C20.4948 7.70833 20.4167 7.60417 20.2344 7.57812C20.1823 7.44792 20.1302 7.31771 20.0781 7.1875C20.026 7.05729 19.9479 6.95312 19.8438 6.875C19.5703 6.875 19.3685 6.95964 19.2383 7.12891C19.1732 7.22005 19.1016 7.30469 19.0234 7.38281C18.9453 7.46094 18.8672 7.53906 18.7891 7.61719C18.6458 7.8125 18.4961 8.0013 18.3398 8.18359C18.1966 8.35286 18.0404 8.51562 17.8711 8.67188C17.7018 8.82812 17.5391 8.9974 17.3828 9.17969C17.2396 9.36198 17.0964 9.55729 16.9531 9.76562C16.6667 10.0521 16.3542 10.4036 16.0156 10.8203C15.6771 11.237 15.4036 11.5885 15.1953 11.875C15.1302 12.0703 15.026 12.2135 14.8828 12.3047C14.7135 12.4089 14.5833 12.526 14.4922 12.6562C14.4271 12.7344 14.3555 12.819 14.2773 12.9102C14.1992 13.0013 14.1146 13.099 14.0234 13.2031C13.9323 13.3073 13.8477 13.4115 13.7695 13.5156C13.6914 13.6198 13.6198 13.724 13.5547 13.8281C13.4505 13.9583 13.3398 14.0885 13.2227 14.2188C13.1055 14.349 12.9818 14.4792 12.8516 14.6094C12.7995 14.6745 12.7214 14.7852 12.6172 14.9414C12.5781 14.9935 12.5326 15.0521 12.4805 15.1172C12.4414 15.1823 12.3958 15.2474 12.3438 15.3125C12.0964 15.5599 11.9401 15.7422 11.875 15.8594C11.7969 16.0026 11.6927 16.1198 11.5625 16.2109C11.3802 16.5625 11.1914 16.901 10.9961 17.2266L10.3906 18.2812C10.2865 18.3464 10.2083 18.4375 10.1562 18.5547C10.0911 18.7109 10.026 18.8281 9.96094 18.9062C9.89583 19.2188 9.8112 19.4531 9.70703 19.6094C9.58984 19.7786 9.49219 19.974 9.41406 20.1953C9.02344 20.7943 8.69792 21.3346 8.4375 21.8164C8.17708 22.2982 7.91667 22.7995 7.65625 23.3203C7.52604 23.5677 7.44792 23.724 7.42188 23.7891C7.40885 23.8281 7.36979 23.8802 7.30469 23.9453C7.26562 24.0365 7.22656 24.1276 7.1875 24.2188C7.14844 24.2969 7.10286 24.375 7.05078 24.4531C6.9987 24.5312 6.95312 24.6094 6.91406 24.6875C6.875 24.7656 6.83594 24.8438 6.79688 24.9219C6.75781 24.974 6.72526 25.0521 6.69922 25.1562C6.6862 25.2344 6.64062 25.2995 6.5625 25.3516C6.26302 26.2109 5.91797 26.9857 5.52734 27.6758C5.1237 28.3919 4.76562 29.1667 4.45312 30C4.38802 30.0651 4.34896 30.1367 4.33594 30.2148C4.32292 30.306 4.28385 30.3906 4.21875 30.4688C3.93229 30.7552 3.74349 30.8724 3.65234 30.8203C3.5612 30.7682 3.45052 30.7422 3.32031 30.7422C3.21615 30.7422 3.13151 30.7812 3.06641 30.8594C3.01432 30.9375 2.89062 30.9766 2.69531 30.9766C2.46094 30.9766 2.31771 31.0026 2.26562 31.0547C2.21354 31.1068 2.10938 31.1719 1.95312 31.25C1.74479 31.3802 1.60807 31.4583 1.54297 31.4844C1.47786 31.5104 1.41927 31.4974 1.36719 31.4453C1.35417 31.5234 1.30208 31.5625 1.21094 31.5625C1.14583 31.5625 1.08073 31.6146 1.01562 31.7188C0.963542 31.6536 0.898438 31.6276 0.820312 31.6406C0.742188 31.6667 0.664062 31.6406 0.585938 31.5625ZM50.8594 16.875C50.8073 16.9661 50.7943 17.0508 50.8203 17.1289C50.8464 17.207 50.8333 17.2917 50.7812 17.3828C50.7031 17.513 50.638 17.6042 50.5859 17.6562C50.4948 17.7474 50.4167 17.8516 50.3516 17.9688C50.2344 18.138 50.1432 18.3203 50.0781 18.5156C50.026 18.6589 49.9089 18.8021 49.7266 18.9453L48.8477 19.1211C48.7044 19.1471 48.5612 19.1732 48.418 19.1992C48.2747 19.2253 48.138 19.2448 48.0078 19.2578C47.8906 19.2578 47.7604 19.2643 47.6172 19.2773C47.474 19.2773 47.3177 19.2839 47.1484 19.2969C46.7578 19.3229 46.4583 19.3099 46.25 19.2578C46.1198 19.2448 46.0091 19.2383 45.918 19.2383C45.8398 19.2253 45.7812 19.2188 45.7422 19.2188H45.5078C45.1042 19.2188 44.694 19.2643 44.2773 19.3555C43.8607 19.4466 43.4375 19.4922 43.0078 19.4922C42.8646 19.4792 42.7214 19.4661 42.5781 19.4531C42.4479 19.4401 42.3112 19.4271 42.168 19.4141C42.0378 19.401 41.888 19.401 41.7188 19.4141C41.5625 19.4141 41.3932 19.4271 41.2109 19.4531C40.9245 19.5052 40.7422 19.5247 40.6641 19.5117C40.612 19.4987 40.5339 19.5052 40.4297 19.5312L40.0586 19.5898C39.9023 19.6159 39.7917 19.6354 39.7266 19.6484C39.5964 19.7005 39.4466 19.7526 39.2773 19.8047C39.1081 19.8568 38.9453 19.8698 38.7891 19.8438C38.6979 19.8438 38.6263 19.8177 38.5742 19.7656C38.5482 19.7396 38.5091 19.7135 38.457 19.6875C38.418 19.6615 38.3724 19.6354 38.3203 19.6094C38.2292 19.5703 38.1055 19.5247 37.9492 19.4727C37.8451 19.4336 37.7604 19.362 37.6953 19.2578C37.7474 19.0885 37.7865 18.8802 37.8125 18.6328C37.8385 18.3854 37.9557 18.138 38.1641 17.8906C38.2161 17.8385 38.2812 17.7734 38.3594 17.6953C38.4375 17.6172 38.5156 17.526 38.5938 17.4219L38.8086 17.1289C38.8737 17.0378 38.9583 16.9531 39.0625 16.875C39.1536 16.8359 39.2773 16.8034 39.4336 16.7773C39.5638 16.7513 39.6875 16.7057 39.8047 16.6406C39.987 16.6927 40.2018 16.7057 40.4492 16.6797C40.6706 16.6536 40.8333 16.6927 40.9375 16.7969C41.2891 16.7969 41.6602 16.8294 42.0508 16.8945C42.4023 16.9596 42.7865 16.9792 43.2031 16.9531C43.4635 16.9531 43.7174 16.9336 43.9648 16.8945C44.0951 16.8685 44.2253 16.849 44.3555 16.8359C44.4987 16.8229 44.6484 16.8099 44.8047 16.7969H46.1719C46.276 16.7969 46.3802 16.7969 46.4844 16.7969C46.6016 16.7839 46.7122 16.7708 46.8164 16.7578C46.9206 16.7448 47.0312 16.7383 47.1484 16.7383C47.2656 16.7253 47.3828 16.7188 47.5 16.7188C47.7604 16.6927 47.9818 16.6992 48.1641 16.7383C48.3854 16.7773 48.5938 16.7969 48.7891 16.7969C48.8932 16.7839 49.0039 16.7708 49.1211 16.7578C49.2513 16.7318 49.3815 16.7122 49.5117 16.6992C49.7852 16.6602 50.0391 16.6406 50.2734 16.6406C50.3385 16.6667 50.3971 16.6862 50.4492 16.6992C50.5143 16.7122 50.5729 16.7253 50.625 16.7383C50.7292 16.7643 50.8073 16.8099 50.8594 16.875ZM74.8828 1.32812C74.9349 1.5625 75.0651 1.74479 75.2734 1.875L75.332 2.51953C75.3451 2.6237 75.3581 2.73438 75.3711 2.85156C75.3841 2.95573 75.4036 3.0599 75.4297 3.16406V3.49609C75.4297 3.61328 75.4688 3.71094 75.5469 3.78906C75.4688 4.72656 75.3451 5.47526 75.1758 6.03516C75.0846 6.32161 75 6.6276 74.9219 6.95312C74.8568 7.27865 74.7917 7.61719 74.7266 7.96875C74.7135 8.0599 74.681 8.18359 74.6289 8.33984C74.5898 8.45703 74.5703 8.58073 74.5703 8.71094C74.5443 8.84115 74.5378 8.93229 74.5508 8.98438C74.5638 9.03646 74.5573 9.1276 74.5312 9.25781C74.4661 9.4401 74.388 9.60938 74.2969 9.76562C74.2448 9.85677 74.1927 9.95443 74.1406 10.0586C74.0885 10.1497 74.0365 10.2474 73.9844 10.3516C73.5677 11.1068 73.1055 11.8229 72.5977 12.5C72.0898 13.1771 71.4583 13.6979 70.7031 14.0625C70.3906 14.2057 70.1497 14.3294 69.9805 14.4336C69.7982 14.5378 69.5573 14.6224 69.2578 14.6875C69.0755 14.7917 68.8607 14.9023 68.6133 15.0195C68.3659 15.1367 68.125 15.2214 67.8906 15.2734C67.7995 15.3255 67.6953 15.3516 67.5781 15.3516C67.5 15.3516 67.3958 15.3646 67.2656 15.3906L66.9336 15.5273C66.8815 15.5404 66.8359 15.5599 66.7969 15.5859C66.7578 15.599 66.7188 15.612 66.6797 15.625C66.4844 15.6771 66.3281 15.7031 66.2109 15.7031C66.0286 15.6771 65.8984 15.5664 65.8203 15.3711C65.7422 15.1758 65.7031 14.974 65.7031 14.7656C65.5859 14.6484 65.4688 14.5573 65.3516 14.4922C65.2344 14.4271 65.1432 14.2839 65.0781 14.0625C65 13.776 64.9479 13.6198 64.9219 13.5938C64.8828 13.5547 64.8568 13.5156 64.8438 13.4766C64.7135 13.112 64.668 12.7018 64.707 12.2461C64.7461 11.7904 64.8438 11.4193 65 11.1328C65.0651 10.9896 65.1432 10.8919 65.2344 10.8398C65.3516 10.7747 65.4167 10.6771 65.4297 10.5469C65.625 10.4297 65.8073 10.293 65.9766 10.1367C66.1458 9.98047 66.3281 9.84375 66.5234 9.72656C66.7578 9.3099 67.0573 8.97135 67.4219 8.71094C67.7474 8.48958 68.0729 8.24219 68.3984 7.96875C68.5156 7.8776 68.6003 7.78646 68.6523 7.69531C68.7305 7.57812 68.8281 7.47396 68.9453 7.38281C69.0365 7.29167 69.1276 7.22005 69.2188 7.16797C69.349 7.08984 69.4401 7.03125 69.4922 6.99219L69.8047 6.67969C69.8958 6.6276 70 6.60156 70.1172 6.60156C70.2344 6.60156 70.3385 6.57552 70.4297 6.52344C70.7943 6.47135 70.9766 6.49089 70.9766 6.58203V6.875C70.7422 7.01823 70.4036 7.14844 69.9609 7.26562C69.8958 7.48698 69.7852 7.64323 69.6289 7.73438C69.4987 7.8125 69.349 7.95573 69.1797 8.16406C69.1276 8.22917 69.0755 8.29427 69.0234 8.35938C68.9844 8.41146 68.9518 8.47005 68.9258 8.53516C68.8737 8.63932 68.75 8.72396 68.5547 8.78906C68.4115 9.1276 68.2487 9.39453 68.0664 9.58984C67.8581 9.8112 67.6693 10.0391 67.5 10.2734C67.5 10.5599 67.4414 10.8008 67.3242 10.9961C67.207 11.1914 67.0833 11.3932 66.9531 11.6016C66.901 11.7057 66.849 11.8099 66.7969 11.9141C66.7448 12.0182 66.7188 12.0964 66.7188 12.1484C66.7318 12.1745 66.7448 12.207 66.7578 12.2461C66.7839 12.2721 66.8034 12.3112 66.8164 12.3633C66.8555 12.4674 66.901 12.5521 66.9531 12.6172C66.9922 12.6693 67.0508 12.7344 67.1289 12.8125C67.207 12.8906 67.2526 12.9557 67.2656 13.0078C67.8906 12.6172 68.5091 12.2266 69.1211 11.8359C69.7331 11.4453 70.2604 10.9766 70.7031 10.4297C70.8333 10.1953 70.957 9.96745 71.0742 9.74609C71.1914 9.52474 71.3151 9.28385 71.4453 9.02344C71.4974 8.76302 71.5755 8.51562 71.6797 8.28125C71.7839 8.04688 71.901 7.8125 72.0312 7.57812C72.1615 7.31771 72.2786 7.05729 72.3828 6.79688C72.487 6.53646 72.5521 6.26302 72.5781 5.97656C72.5911 5.8724 72.5977 5.76823 72.5977 5.66406C72.6107 5.54688 72.6107 5.42318 72.5977 5.29297C72.5846 5.05859 72.6172 4.86979 72.6953 4.72656C72.6432 4.58333 72.6432 4.40755 72.6953 4.19922C72.7474 4.01693 72.7604 3.80208 72.7344 3.55469C72.5521 3.16406 72.3698 2.9362 72.1875 2.87109C72.0052 2.80599 71.8099 2.7474 71.6016 2.69531C71.3932 2.82552 71.1719 2.96875 70.9375 3.125C70.7031 3.28125 70.4818 3.45052 70.2734 3.63281C70.1953 3.71094 70.1172 3.78906 70.0391 3.86719C69.9609 3.94531 69.8763 4.02344 69.7852 4.10156C69.6029 4.25781 69.4661 4.4401 69.375 4.64844C69.0365 5.01302 68.763 5.33203 68.5547 5.60547C68.3464 5.87891 68.138 6.15885 67.9297 6.44531C67.526 6.70573 67.1224 7.01823 66.7188 7.38281C66.3151 7.7474 65.9115 8.0599 65.5078 8.32031C65.1693 8.58073 64.8372 8.84766 64.5117 9.12109C64.1862 9.39453 63.8802 9.67448 63.5938 9.96094C63.4635 10.1042 63.3268 10.2409 63.1836 10.3711C63.0534 10.5013 62.9167 10.6315 62.7734 10.7617C62.474 11.0221 62.2135 11.2891 61.9922 11.5625C61.5885 12.1224 61.1328 12.7083 60.625 13.3203C60.4818 13.4635 60.3646 13.6068 60.2734 13.75C60.1823 13.9062 60.0651 14.0625 59.9219 14.2188C59.7917 14.349 59.668 14.4922 59.5508 14.6484C59.4987 14.7266 59.4401 14.8047 59.375 14.8828C59.3229 14.9479 59.2708 15.013 59.2188 15.0781C59.1667 15.1693 59.1016 15.306 59.0234 15.4883C58.9453 15.6706 58.8802 15.8073 58.8281 15.8984C58.5677 16.2109 58.3138 16.5299 58.0664 16.8555C57.819 17.181 57.6042 17.5521 57.4219 17.9688C57.1224 18.3594 56.8815 18.7695 56.6992 19.1992C56.6081 19.4076 56.5169 19.6094 56.4258 19.8047C56.3346 20 56.237 20.1953 56.1328 20.3906C56.0807 20.7422 55.9831 21.0677 55.8398 21.3672C55.6966 21.6667 55.599 21.9922 55.5469 22.3438C55.5339 22.4349 55.5143 22.526 55.4883 22.6172C55.4622 22.6953 55.4362 22.7799 55.4102 22.8711C55.3841 22.9622 55.3581 23.0534 55.332 23.1445C55.306 23.2357 55.2865 23.3333 55.2734 23.4375C55.2214 23.5938 55.1953 23.7826 55.1953 24.0039C55.1953 24.2122 55.1693 24.388 55.1172 24.5312C54.9609 24.8568 54.8828 25.0977 54.8828 25.2539C54.8828 25.3971 54.8177 25.5078 54.6875 25.5859C54.7656 25.7943 54.8372 25.9766 54.9023 26.1328C54.9674 26.2891 55.0651 26.4453 55.1953 26.6016C55.2604 26.7057 55.3385 26.7969 55.4297 26.875C55.5208 26.9531 55.599 27.0443 55.6641 27.1484C55.7682 27.4089 55.8529 27.5651 55.918 27.6172C55.9831 27.6693 56.0677 27.7344 56.1719 27.8125C56.25 27.8646 56.3477 27.9297 56.4648 28.0078C56.582 28.0859 56.6927 28.138 56.7969 28.1641C56.9401 28.2161 57.0768 28.2357 57.207 28.2227C57.2982 28.2096 57.4349 28.2161 57.6172 28.2422C57.7865 28.2422 57.9036 28.2487 57.9688 28.2617C58.0339 28.2747 58.151 28.2682 58.3203 28.2422C58.5286 28.1901 58.776 28.1315 59.0625 28.0664C59.349 28.0013 59.6094 27.9427 59.8438 27.8906C60.2083 27.7865 60.5664 27.6823 60.918 27.5781C61.2695 27.474 61.6016 27.3568 61.9141 27.2266C62.2526 27.0833 62.526 26.901 62.7344 26.6797C62.9427 26.4583 63.1771 26.276 63.4375 26.1328C63.8542 25.8203 64.1471 25.5664 64.3164 25.3711C64.4987 25.1758 64.6875 25.013 64.8828 24.8828C65.0651 24.6484 65.1693 24.5312 65.1953 24.5312C65.2214 24.5312 65.2474 24.5182 65.2734 24.4922C65.3646 24.388 65.4492 24.2904 65.5273 24.1992C65.6185 24.1081 65.7096 24.0169 65.8008 23.9258C65.8919 23.8346 65.9766 23.7435 66.0547 23.6523C66.1458 23.5612 66.237 23.4635 66.3281 23.3594C66.6406 23.2161 66.875 23.0469 67.0312 22.8516C67.2526 22.7734 67.4284 22.6693 67.5586 22.5391C67.6237 22.474 67.6953 22.4089 67.7734 22.3438C67.8516 22.2786 67.9297 22.2135 68.0078 22.1484C68.2031 22.0052 68.3464 21.888 68.4375 21.7969C68.5417 21.6927 68.6393 21.5885 68.7305 21.4844C68.8216 21.3802 68.9193 21.263 69.0234 21.1328C69.0885 21.0677 69.1667 21.0091 69.2578 20.957C69.375 20.8789 69.4792 20.7812 69.5703 20.6641C69.6094 20.612 69.6615 20.5078 69.7266 20.3516C69.7786 20.2214 69.8698 20.1562 70 20.1562C70.1562 20.1302 70.3255 20.2018 70.5078 20.3711C70.6901 20.5404 70.7812 20.7161 70.7812 20.8984C70.5339 21.2891 70.4036 21.5104 70.3906 21.5625C70.1953 21.849 70 22.0964 69.8047 22.3047C69.7005 22.4219 69.5964 22.5456 69.4922 22.6758C69.388 22.806 69.2839 22.9427 69.1797 23.0859C68.9714 23.3203 68.763 23.5612 68.5547 23.8086C68.3464 24.056 68.151 24.3229 67.9688 24.6094C67.8125 24.8698 67.6107 25.1237 67.3633 25.3711C67.2591 25.4753 67.1484 25.5924 67.0312 25.7227C66.9141 25.8398 66.7969 25.9635 66.6797 26.0938C66.3802 26.4193 66.0482 26.7578 65.6836 27.1094C65.3711 27.3958 65.0651 27.7734 64.7656 28.2422C64.5964 28.4115 64.4661 28.5352 64.375 28.6133C64.2839 28.6914 64.1536 28.8151 63.9844 28.9844C63.8411 29.0625 63.7174 29.1471 63.6133 29.2383C63.5091 29.3294 63.3854 29.4141 63.2422 29.4922C62.9818 29.5833 62.7148 29.694 62.4414 29.8242C62.181 29.9414 61.9206 30.0716 61.6602 30.2148C61.1003 30.5273 60.5078 30.7682 59.8828 30.9375C59.7396 30.9766 59.5898 31.0156 59.4336 31.0547C59.2904 31.1068 59.1471 31.1589 59.0039 31.2109C58.7174 31.3021 58.3854 31.3411 58.0078 31.3281C57.9297 31.3021 57.8646 31.2891 57.8125 31.2891C57.7604 31.2891 57.6823 31.276 57.5781 31.25C57.4479 31.237 57.2852 31.1849 57.0898 31.0938C56.8945 31.0026 56.7057 30.9505 56.5234 30.9375C56.3932 30.9375 56.276 30.957 56.1719 30.9961C56.0807 31.0352 55.9635 31.0547 55.8203 31.0547C55.2474 30.6901 54.7852 30.3841 54.4336 30.1367C54.082 29.8893 53.763 29.5964 53.4766 29.2578C53.2292 28.8802 53.0859 28.6654 53.0469 28.6133C53.0078 28.5612 52.9622 28.5091 52.9102 28.457C52.8711 28.4049 52.8255 28.3464 52.7734 28.2812C52.5651 27.9818 52.3568 27.6302 52.1484 27.2266C52.1484 27.1354 52.1159 27.0443 52.0508 26.9531C52.0117 26.901 51.9531 26.8099 51.875 26.6797C51.7448 26.25 51.6797 25.7878 51.6797 25.293C51.6797 25.0456 51.6797 24.8047 51.6797 24.5703C51.6927 24.3359 51.7057 24.1016 51.7188 23.8672C51.7318 23.737 51.7318 23.6133 51.7188 23.4961C51.6927 23.3398 51.6797 23.2161 51.6797 23.125C51.6797 22.9167 51.7188 22.6953 51.7969 22.4609C51.8359 22.3438 51.8685 22.2331 51.8945 22.1289C51.9336 22.0117 51.9661 21.901 51.9922 21.7969C52.1484 21.224 52.3242 20.6836 52.5195 20.1758C52.7148 19.668 52.9427 19.1927 53.2031 18.75C53.4375 18.4245 53.6133 18.125 53.7305 17.8516C53.7956 17.7083 53.8542 17.5651 53.9062 17.4219C53.9714 17.2656 54.0365 17.1094 54.1016 16.9531C54.2318 16.6667 54.362 16.3867 54.4922 16.1133C54.6224 15.8398 54.7656 15.5599 54.9219 15.2734C55.0521 15.013 55.1888 14.7526 55.332 14.4922C55.4753 14.2318 55.6641 13.9974 55.8984 13.7891C55.9766 13.5026 56.0938 13.2617 56.25 13.0664C56.3281 12.9622 56.4062 12.8646 56.4844 12.7734C56.5625 12.6693 56.6406 12.5651 56.7188 12.4609C56.849 12.2786 56.9792 12.1029 57.1094 11.9336C57.2526 11.7643 57.3893 11.6016 57.5195 11.4453C57.7799 11.1589 58.0208 10.8073 58.2422 10.3906C58.4505 10.2344 58.6393 10.0651 58.8086 9.88281C58.9779 9.70052 59.1406 9.51823 59.2969 9.33594C59.388 9.23177 59.4727 9.13411 59.5508 9.04297C59.6419 8.95182 59.7331 8.86068 59.8242 8.76953C59.9154 8.67839 60 8.58724 60.0781 8.49609C60.1693 8.40495 60.2604 8.30729 60.3516 8.20312C60.4557 8.125 60.5534 8.04036 60.6445 7.94922C60.7357 7.85807 60.8203 7.77344 60.8984 7.69531C61.0807 7.48698 61.263 7.30469 61.4453 7.14844C61.6276 6.99219 61.8229 6.83594 62.0312 6.67969C62.2135 6.60156 62.4349 6.45833 62.6953 6.25C62.8125 6.13281 62.9297 6.01562 63.0469 5.89844C63.1641 5.78125 63.2747 5.65755 63.3789 5.52734C63.4831 5.39714 63.5938 5.27995 63.7109 5.17578C63.8281 5.05859 63.9453 4.94792 64.0625 4.84375C64.4271 4.47917 64.8047 4.12109 65.1953 3.76953C65.5859 3.41797 66.0026 3.09896 66.4453 2.8125C66.7057 2.52604 67.0182 2.28516 67.3828 2.08984C67.7474 1.89453 68.112 1.70573 68.4766 1.52344C68.6849 1.44531 68.8607 1.3737 69.0039 1.30859C69.1471 1.24349 69.3099 1.15885 69.4922 1.05469C69.7917 0.872396 70 0.77474 70.1172 0.761719C70.2474 0.748698 70.3516 0.690104 70.4297 0.585938C70.7552 0.585938 71.0286 0.540365 71.25 0.449219C71.4714 0.358073 71.7318 0.351562 72.0312 0.429688C72.1224 0.442708 72.2135 0.47526 72.3047 0.527344C72.4089 0.579427 72.487 0.611979 72.5391 0.625C73.0339 0.677083 73.3854 0.755208 73.5938 0.859375C73.8021 0.963542 74.0039 1.0612 74.1992 1.15234C74.3945 1.24349 74.6224 1.30208 74.8828 1.32812ZM84.4922 20.7812C84.7526 20.8464 84.9414 20.9375 85.0586 21.0547C85.1497 21.1458 85.1953 21.25 85.1953 21.3672C84.987 21.6536 84.8633 21.8424 84.8242 21.9336C84.7852 22.0247 84.7005 22.0964 84.5703 22.1484C84.401 22.4089 84.2188 22.6562 84.0234 22.8906C83.8411 23.112 83.6393 23.3268 83.418 23.5352C83.0143 23.9258 82.6172 24.375 82.2266 24.8828C82.0573 25.0521 81.9401 25.1823 81.875 25.2734C81.8099 25.3646 81.6927 25.4948 81.5234 25.6641C81.2109 25.8854 80.9505 26.1133 80.7422 26.3477C80.625 26.4779 80.5013 26.6016 80.3711 26.7188C80.2539 26.8229 80.1302 26.9271 80 27.0312C79.9349 27.0833 79.8698 27.1354 79.8047 27.1875C79.7526 27.2266 79.694 27.2721 79.6289 27.3242C79.5768 27.3763 79.5182 27.4284 79.4531 27.4805C79.388 27.5326 79.3229 27.5911 79.2578 27.6562C79.1536 27.7604 79.0365 27.8646 78.9062 27.9688C78.8542 28.0078 78.7956 28.0534 78.7305 28.1055C78.6784 28.1445 78.6198 28.1901 78.5547 28.2422C78.3984 28.4245 78.2422 28.6068 78.0859 28.7891C77.9297 28.9714 77.7734 29.1667 77.6172 29.375C77.3438 29.5052 77.0833 29.6615 76.8359 29.8438C76.6016 30.013 76.3281 30.1693 76.0156 30.3125C75.8854 30.3906 75.7617 30.5143 75.6445 30.6836C75.5404 30.8398 75.3906 30.9505 75.1953 31.0156C74.987 31.0938 74.7656 31.1133 74.5312 31.0742C74.2969 31.0352 74.1016 30.9766 73.9453 30.8984C73.776 30.7812 73.6719 30.7161 73.6328 30.7031C73.5286 30.6771 73.4635 30.6641 73.4375 30.6641C73.1901 30.3125 73.0208 29.9414 72.9297 29.5508C72.8776 29.3424 72.819 29.1341 72.7539 28.9258C72.7018 28.7174 72.6432 28.5026 72.5781 28.2812C72.526 28.151 72.487 28.0143 72.4609 27.8711C72.4349 27.7279 72.4089 27.5651 72.3828 27.3828L72.3242 27.0703C72.3112 27.0182 72.2982 26.9661 72.2852 26.9141C72.2721 26.849 72.2526 26.7839 72.2266 26.7188C72.1745 26.5885 72.1224 26.4518 72.0703 26.3086C72.0182 26.1654 71.9792 26.0156 71.9531 25.8594C71.901 25.5469 71.8815 25.2409 71.8945 24.9414C71.9076 24.6419 71.9401 24.349 71.9922 24.0625C72.1484 23.2031 72.3763 22.3828 72.6758 21.6016C72.9753 20.8203 73.2812 20.0781 73.5938 19.375C73.6589 19.0495 73.7305 18.8021 73.8086 18.6328C73.8867 18.4635 73.9714 18.2292 74.0625 17.9297C74.1797 17.7865 74.2708 17.5781 74.3359 17.3047C74.362 17.1875 74.388 17.0703 74.4141 16.9531C74.4531 16.8359 74.4922 16.7188 74.5312 16.6016C74.5703 16.4974 74.6159 16.3932 74.668 16.2891C74.7201 16.1719 74.7721 16.0482 74.8242 15.918C74.9284 15.6836 75.013 15.4427 75.0781 15.1953C75.1693 14.8958 75.2409 14.6354 75.293 14.4141C75.319 14.2839 75.3516 14.1602 75.3906 14.043C75.4427 13.9258 75.4948 13.8151 75.5469 13.7109C75.651 13.4375 75.7487 13.1706 75.8398 12.9102C75.944 12.6497 76.0417 12.3958 76.1328 12.1484C76.224 11.901 76.3151 11.6536 76.4062 11.4062C76.5104 11.1589 76.6146 10.9115 76.7188 10.6641C76.7448 10.5859 76.7708 10.5078 76.7969 10.4297C76.8229 10.3516 76.849 10.2734 76.875 10.1953C76.9271 10.0521 77.0052 9.90885 77.1094 9.76562C77.1745 9.58333 77.2396 9.44661 77.3047 9.35547C77.4089 9.19922 77.487 9.07552 77.5391 8.98438C77.5391 8.84115 77.5846 8.74349 77.6758 8.69141C77.7409 8.65234 77.8125 8.56771 77.8906 8.4375C78.0339 8.21615 78.1315 8.00781 78.1836 7.8125C78.2357 7.61719 78.3333 7.40885 78.4766 7.1875L78.9453 6.60156C78.9714 6.54948 78.9974 6.4974 79.0234 6.44531C79.0495 6.39323 79.0755 6.34115 79.1016 6.28906C79.1667 6.1849 79.2448 6.09375 79.3359 6.01562C79.6354 5.54688 79.9479 5.07812 80.2734 4.60938L81.3281 3.125C81.5625 2.76042 81.8229 2.41536 82.1094 2.08984C82.3958 1.76432 82.6953 1.44531 83.0078 1.13281C83.112 1.0026 83.2357 0.859375 83.3789 0.703125C83.5221 0.546875 83.6719 0.455729 83.8281 0.429688C84.0755 0.403646 84.3359 0.429688 84.6094 0.507812C84.6875 0.638021 84.7591 0.77474 84.8242 0.917969C84.8893 1.0612 84.9479 1.22396 85 1.40625C85.0521 2.21354 85.026 2.99479 84.9219 3.75C84.8177 4.50521 84.7005 5.2474 84.5703 5.97656C84.5443 6.14583 84.5378 6.26953 84.5508 6.34766C84.5638 6.42578 84.5573 6.54948 84.5312 6.71875C84.4792 6.875 84.4141 7.07682 84.3359 7.32422C84.2578 7.57161 84.1927 7.79948 84.1406 8.00781C84.1406 8.35938 84.0625 8.6849 83.9062 8.98438C83.75 9.27083 83.6458 9.55729 83.5938 9.84375C83.5156 9.89583 83.4701 9.98047 83.457 10.0977C83.444 10.2148 83.3984 10.2995 83.3203 10.3516C83.2552 10.651 83.1706 10.9115 83.0664 11.1328C82.9492 11.3672 82.8516 11.6016 82.7734 11.8359C82.5781 12.1094 82.3828 12.3763 82.1875 12.6367C81.9922 12.8971 81.7904 13.1576 81.582 13.418C81.3737 13.6654 81.1719 13.9258 80.9766 14.1992C80.7943 14.4596 80.612 14.7266 80.4297 15C79.974 15.6901 79.4987 16.3411 79.0039 16.9531C78.5091 17.5651 78.0339 18.2161 77.5781 18.9062C77.2135 19.2318 76.9271 19.5573 76.7188 19.8828C76.4974 20.2344 76.1979 20.5599 75.8203 20.8594C75.7552 21.1198 75.6901 21.3932 75.625 21.6797C75.5729 21.9661 75.5143 22.2591 75.4492 22.5586C75.3971 22.8581 75.3385 23.1641 75.2734 23.4766C75.2083 23.7891 75.1432 24.1016 75.0781 24.4141C75.0651 24.5833 75.026 24.7591 74.9609 24.9414C74.9349 25.0326 74.9089 25.1237 74.8828 25.2148C74.8568 25.293 74.8307 25.3776 74.8047 25.4688C74.7526 25.651 74.7396 25.8724 74.7656 26.1328C74.7786 26.3672 74.7396 26.5885 74.6484 26.7969C74.6875 26.901 74.7201 27.0508 74.7461 27.2461C74.7591 27.4154 74.8047 27.5651 74.8828 27.6953C75.026 27.9297 75.1823 28.0469 75.3516 28.0469C75.5469 27.9427 75.651 27.8971 75.6641 27.9102C75.6771 27.9232 75.7161 27.9167 75.7812 27.8906C75.9115 27.8125 76.0417 27.7083 76.1719 27.5781C76.3021 27.4479 76.4193 27.3307 76.5234 27.2266C76.6667 27.1615 76.7643 27.1029 76.8164 27.0508C76.8555 27.0117 76.9271 26.9531 77.0312 26.875C77.1094 26.8229 77.181 26.7839 77.2461 26.7578C77.3112 26.7318 77.3698 26.6927 77.4219 26.6406C77.7995 26.25 78.151 25.957 78.4766 25.7617C78.8151 25.5664 79.0885 25.3255 79.2969 25.0391L80 24.6094C80.1432 24.5312 80.2799 24.4206 80.4102 24.2773C80.5273 24.1341 80.6771 24.0234 80.8594 23.9453C80.9375 23.8411 80.9896 23.776 81.0156 23.75C81.0417 23.724 81.0938 23.6589 81.1719 23.5547C81.3281 23.4505 81.4844 23.3464 81.6406 23.2422C81.7969 23.138 81.9466 23.0339 82.0898 22.9297C82.2331 22.8255 82.3828 22.7214 82.5391 22.6172C82.7083 22.513 82.8776 22.4089 83.0469 22.3047C83.099 22.1745 83.1836 22.0703 83.3008 21.9922C83.418 21.9141 83.5156 21.8359 83.5938 21.7578C83.6719 21.6797 83.737 21.5951 83.7891 21.5039C83.8542 21.3997 83.9453 21.3411 84.0625 21.3281C84.0755 21.2109 84.1341 21.1198 84.2383 21.0547C84.3424 20.9896 84.4271 20.8984 84.4922 20.7812ZM82.3828 6.21094H82.3438C82.1094 6.26302 81.9466 6.38021 81.8555 6.5625C81.7643 6.74479 81.6797 6.95312 81.6016 7.1875C81.5495 7.29167 81.4974 7.38281 81.4453 7.46094C81.4062 7.53906 81.3737 7.60417 81.3477 7.65625C81.2956 7.7474 81.276 7.90365 81.2891 8.125C80.8854 8.78906 80.5013 9.47266 80.1367 10.1758C79.7721 10.8659 79.4206 11.5755 79.082 12.3047C78.7565 13.0339 78.4245 13.7695 78.0859 14.5117C77.7474 15.2409 77.4089 15.9766 77.0703 16.7188C77.6042 16.1849 78.0924 15.5599 78.5352 14.8438C78.7565 14.4792 78.9844 14.1406 79.2188 13.8281C79.4661 13.5156 79.7135 13.2292 79.9609 12.9688C80.1432 12.526 80.332 12.0964 80.5273 11.6797C80.7357 11.263 80.9505 10.8659 81.1719 10.4883C81.6016 9.75911 81.9401 8.89323 82.1875 7.89062C82.0833 7.5651 82.0964 7.28516 82.2266 7.05078C82.3568 6.81641 82.4089 6.53646 82.3828 6.21094ZM94.6875 19.1406L94.6484 19.4531C94.6745 19.5443 94.6484 19.7005 94.5703 19.9219C94.4401 20.0781 94.362 20.2474 94.3359 20.4297C94.2839 20.5339 94.2383 20.625 94.1992 20.7031C94.1602 20.7812 94.1276 20.8854 94.1016 21.0156C94.0495 21.1719 94.0299 21.3542 94.043 21.5625C94.056 21.6667 94.056 21.7708 94.043 21.875C94.043 21.9661 94.0365 22.0573 94.0234 22.1484C93.9714 22.4349 93.9323 22.7148 93.9062 22.9883C93.8802 23.2617 93.8542 23.5417 93.8281 23.8281C93.8281 24.1146 93.8021 24.4401 93.75 24.8047C93.6979 25.1693 93.6458 25.4948 93.5938 25.7812C93.7109 25.9896 93.776 26.1849 93.7891 26.3672C93.8021 26.5625 93.8932 26.7318 94.0625 26.875C94.5833 26.7969 95 26.6732 95.3125 26.5039C95.625 26.3346 95.9245 26.0938 96.2109 25.7812C96.4193 25.6901 96.582 25.599 96.6992 25.5078C96.8034 25.4167 96.9531 25.3125 97.1484 25.1953L97.4609 24.8828C97.7734 24.7135 97.9492 24.6094 97.9883 24.5703C98.0143 24.5443 98.0469 24.5182 98.0859 24.4922C98.138 24.4661 98.1901 24.4401 98.2422 24.4141C98.6849 24.1276 99.0234 23.8281 99.2578 23.5156C99.4531 23.3594 99.6159 23.1966 99.7461 23.0273C99.8503 22.8841 100.052 22.7474 100.352 22.6172C100.521 22.4089 100.71 22.2331 100.918 22.0898C101.126 21.9466 101.315 21.7708 101.484 21.5625C101.628 21.5625 101.732 21.5885 101.797 21.6406C101.836 21.6667 101.875 21.6927 101.914 21.7188C101.966 21.7448 102.018 21.7708 102.07 21.7969C102.148 22.0052 102.161 22.2201 102.109 22.4414C102.057 22.6628 101.966 22.8646 101.836 23.0469C101.706 23.2161 101.641 23.3203 101.641 23.3594C101.641 23.3854 101.628 23.4115 101.602 23.4375C101.523 23.5286 101.426 23.6263 101.309 23.7305C101.191 23.8216 101.094 23.9193 101.016 24.0234C100.885 24.2578 100.781 24.375 100.703 24.375C100.625 24.375 100.56 24.401 100.508 24.4531C100.273 24.5964 100.111 24.7005 100.02 24.7656C99.9154 24.8568 99.7656 24.9609 99.5703 25.0781C99.2969 25.2214 99.1276 25.3255 99.0625 25.3906C98.9974 25.4557 98.9453 25.4948 98.9062 25.5078C98.5938 25.8594 98.2878 26.1523 97.9883 26.3867C97.7148 26.5951 97.4219 26.888 97.1094 27.2656C97.0052 27.3438 96.901 27.4219 96.7969 27.5C96.6927 27.5781 96.6016 27.6823 96.5234 27.8125C96.2891 27.9688 96.1003 28.125 95.957 28.2812C95.8138 28.4375 95.651 28.6198 95.4688 28.8281C95.3125 28.9062 95.1432 29.0169 94.9609 29.1602C94.7396 29.3294 94.5443 29.4531 94.375 29.5312C94.3099 29.5703 94.1992 29.6289 94.043 29.707C93.9128 29.7721 93.7891 29.8047 93.6719 29.8047C93.3724 29.8568 93.0859 29.8307 92.8125 29.7266C92.5651 29.6354 92.3177 29.5573 92.0703 29.4922C91.9661 29.3359 91.8359 29.2057 91.6797 29.1016C91.4453 28.8151 91.276 28.4766 91.1719 28.0859C91.0677 27.6953 90.9635 27.2786 90.8594 26.8359C90.625 26.9922 90.4297 27.1615 90.2734 27.3438C90.1172 27.5391 89.8828 27.7083 89.5703 27.8516C89.3099 28.099 89.043 28.3464 88.7695 28.5938C88.4961 28.8281 88.2096 29.056 87.9102 29.2773C87.6237 29.4987 87.3307 29.7331 87.0312 29.9805C86.7318 30.2148 86.4323 30.4557 86.1328 30.7031C85.9245 30.9115 85.7812 30.9896 85.7031 30.9375C85.4688 31.224 85.0521 31.3151 84.4531 31.2109C84.2448 31.1068 84.0104 31.0156 83.75 30.9375C83.5677 30.8854 83.3594 30.8073 83.125 30.7031C82.6823 30.625 82.3112 30.4297 82.0117 30.1172C81.7122 29.8047 81.4583 29.4401 81.25 29.0234C81.1719 28.8021 81.1133 28.6068 81.0742 28.4375C81.0612 28.3464 81.0417 28.2487 81.0156 28.1445C80.9896 28.0404 80.9635 27.9297 80.9375 27.8125C80.9245 27.5911 80.8854 27.4154 80.8203 27.2852C80.7682 27.1419 80.7682 27.0052 80.8203 26.875C80.7682 26.8099 80.7552 26.7253 80.7812 26.6211C80.8073 26.4909 80.8203 26.3932 80.8203 26.3281C80.7943 25.9635 80.8268 25.5729 80.918 25.1562C81.0091 24.7396 81.1328 24.362 81.2891 24.0234C81.3672 23.8932 81.4714 23.763 81.6016 23.6328C81.6667 23.5547 81.7057 23.4766 81.7188 23.3984C81.7318 23.3333 81.7708 23.2682 81.8359 23.2031C81.901 23.125 81.9792 23.0469 82.0703 22.9688C82.2005 22.8646 82.2917 22.7865 82.3438 22.7344C82.4089 22.6432 82.474 22.5586 82.5391 22.4805C82.6172 22.3893 82.7018 22.3112 82.793 22.2461C82.8841 22.181 82.9688 22.1094 83.0469 22.0312C83.125 21.9531 83.2031 21.875 83.2812 21.7969C83.3724 21.7057 83.444 21.6146 83.4961 21.5234C83.5612 21.4193 83.6589 21.3411 83.7891 21.2891C83.8932 21.1068 84.0104 20.957 84.1406 20.8398C84.2708 20.7227 84.4141 20.599 84.5703 20.4688C85.013 19.9349 85.5599 19.4792 86.2109 19.1016C86.875 18.724 87.4609 18.3073 87.9688 17.8516C88.151 17.7734 88.3073 17.6823 88.4375 17.5781C88.5677 17.474 88.6979 17.3698 88.8281 17.2656C89.1536 16.9792 89.5052 16.888 89.8828 16.9922L90.8984 17.2656C91.1589 17.5 91.4128 17.7344 91.6602 17.9688C91.9076 18.2031 92.1224 18.4635 92.3047 18.75C92.3958 18.737 92.4935 18.7305 92.5977 18.7305C92.7018 18.7174 92.8125 18.7174 92.9297 18.7305C93.1641 18.7565 93.4115 18.737 93.6719 18.6719C93.75 18.6719 93.8281 18.6523 93.9062 18.6133C93.9844 18.5742 94.0495 18.5547 94.1016 18.5547C94.4922 18.6849 94.6875 18.8802 94.6875 19.1406ZM89.5312 19.7266C88.8281 20.0651 88.1901 20.4622 87.6172 20.918C87.0443 21.3737 86.4974 21.862 85.9766 22.3828C85.9115 22.4479 85.8398 22.513 85.7617 22.5781C85.6966 22.6302 85.6315 22.6888 85.5664 22.7539C85.5013 22.806 85.4362 22.8646 85.3711 22.9297C85.306 22.9948 85.2474 23.0599 85.1953 23.125C85.0911 23.2552 84.9935 23.4115 84.9023 23.5938C84.8112 23.776 84.7266 23.9453 84.6484 24.1016C84.6224 24.1536 84.5964 24.2057 84.5703 24.2578C84.5443 24.2969 84.5182 24.3294 84.4922 24.3555C84.4661 24.3815 84.4401 24.4141 84.4141 24.4531C84.388 24.4922 84.362 24.5312 84.3359 24.5703C84.2839 24.7005 84.2643 24.8307 84.2773 24.9609C84.2904 25.0521 84.2969 25.1953 84.2969 25.3906V25.7812C84.2969 25.8594 84.3099 25.9896 84.3359 26.1719C84.4141 26.4583 84.4531 26.7448 84.4531 27.0312C84.4531 27.2396 84.4727 27.4935 84.5117 27.793C84.5508 28.0924 84.6484 28.2943 84.8047 28.3984C84.974 28.5026 85.1367 28.5286 85.293 28.4766C85.4753 28.4115 85.625 28.3724 85.7422 28.3594C86.6536 27.6562 87.513 26.9206 88.3203 26.1523C89.1276 25.3841 89.8438 24.5182 90.4688 23.5547C90.4167 22.9167 90.4102 22.2591 90.4492 21.582C90.4883 20.944 90.4297 20.3516 90.2734 19.8047C90.1693 19.7396 90.0456 19.7201 89.9023 19.7461C89.7982 19.7591 89.6745 19.7526 89.5312 19.7266ZM110.312 26.9141C110.417 26.7708 110.495 26.6732 110.547 26.6211C110.612 26.556 110.69 26.4974 110.781 26.4453C111.107 25.7552 111.53 25.2083 112.051 24.8047C112.585 24.401 113.151 23.9453 113.75 23.4375C113.88 23.4375 113.991 23.3919 114.082 23.3008C114.173 23.2096 114.284 23.138 114.414 23.0859C114.57 22.9427 114.72 22.8255 114.863 22.7344C114.98 22.6562 115.078 22.5521 115.156 22.4219C115.456 22.2786 115.736 22.0833 115.996 21.8359C116.27 21.5885 116.536 21.3672 116.797 21.1719C117.005 21.1198 117.227 21.1458 117.461 21.25C117.565 21.4583 117.604 21.6797 117.578 21.9141C117.552 22.1484 117.422 22.2786 117.188 22.3047C117.109 22.3828 117.025 22.4609 116.934 22.5391C116.842 22.6172 116.732 22.6693 116.602 22.6953C116.341 22.7474 116.172 22.8516 116.094 23.0078C116.081 23.2552 116.048 23.4049 115.996 23.457C115.944 23.5091 115.911 23.5547 115.898 23.5938C115.612 24.0755 115.293 24.4922 114.941 24.8438C114.59 25.1823 114.258 25.599 113.945 26.0938C113.802 26.1849 113.685 26.3281 113.594 26.5234C113.125 26.7839 112.78 26.9857 112.559 27.1289C112.337 27.2721 112.135 27.4479 111.953 27.6562C111.797 27.7474 111.719 27.8255 111.719 27.8906C111.719 27.9427 111.693 27.9948 111.641 28.0469C111.38 28.2682 111.23 28.431 111.191 28.5352C111.152 28.6393 111.094 28.724 111.016 28.7891C110.885 28.8802 110.768 28.9714 110.664 29.0625C110.573 29.1406 110.495 29.2122 110.43 29.2773C110.273 29.4336 110.104 29.5443 109.922 29.6094C109.701 29.7917 109.375 30.0065 108.945 30.2539C108.516 30.5143 108.073 30.7096 107.617 30.8398C107.161 30.9831 106.784 30.9896 106.484 30.8594L106.211 30.6445C106.159 30.6055 106.068 30.5469 105.938 30.4688C105.768 30.2604 105.579 30.0846 105.371 29.9414C105.189 29.8112 105.013 29.6224 104.844 29.375C104.648 29.1016 104.525 28.8216 104.473 28.5352C104.421 28.2357 104.323 27.9427 104.18 27.6562C104.115 26.9792 104.167 26.4193 104.336 25.9766C104.479 25.5339 104.635 25.1237 104.805 24.7461C104.974 24.3555 105.163 23.9974 105.371 23.6719C105.775 23.0469 106.055 22.3047 106.211 21.4453C105.924 21.1589 105.762 20.8919 105.723 20.6445C105.71 20.5143 105.684 20.3646 105.645 20.1953C105.605 20.026 105.56 19.8307 105.508 19.6094C104.831 20.0521 104.206 20.612 103.633 21.2891C103.06 21.9661 102.552 22.6562 102.109 23.3594L101.641 24.2188C101.51 24.4661 101.354 24.7005 101.172 24.9219C101.042 25.0521 100.977 25.1367 100.977 25.1758C100.977 25.2148 100.951 25.2604 100.898 25.3125C100.794 25.4427 100.71 25.5534 100.645 25.6445C100.579 25.7357 100.534 25.8073 100.508 25.8594C100.482 25.9115 100.456 25.9635 100.43 26.0156C100.404 26.0547 100.378 26.0938 100.352 26.1328C100.273 26.237 100.208 26.3151 100.156 26.3672C100.104 26.4193 100.039 26.4974 99.9609 26.6016C99.5964 27.1224 99.2643 27.6107 98.9648 28.0664L98.0469 29.4531C97.9036 29.6745 97.7865 29.8958 97.6953 30.1172C97.6042 30.3516 97.474 30.5599 97.3047 30.7422C97.0443 30.7682 96.8945 30.7292 96.8555 30.625C96.8164 30.5208 96.8229 30.4297 96.875 30.3516C96.5625 30.1432 96.3867 29.7396 96.3477 29.1406C96.3086 28.5417 96.3672 28.0599 96.5234 27.6953C96.4453 27.4609 96.4193 27.3307 96.4453 27.3047C96.4714 27.2786 96.4844 27.2396 96.4844 27.1875C96.8229 26.7188 97.168 26.25 97.5195 25.7812C97.8711 25.3125 98.2422 24.8698 98.6328 24.4531C98.6979 24.362 98.763 24.2708 98.8281 24.1797C98.8932 24.0885 98.9518 23.9974 99.0039 23.9062C99.1341 23.7109 99.2708 23.5417 99.4141 23.3984C99.6354 23.0208 99.9023 22.6302 100.215 22.2266C100.527 21.8359 100.781 21.4323 100.977 21.0156C101.12 20.8724 101.217 20.7292 101.27 20.5859C101.335 20.4297 101.445 20.2995 101.602 20.1953C101.693 20.0391 101.771 19.8893 101.836 19.7461C101.914 19.5898 101.979 19.4401 102.031 19.2969C102.109 19.0495 102.253 18.8021 102.461 18.5547C102.513 18.3724 102.578 18.2292 102.656 18.125C102.734 18.0208 102.839 17.9036 102.969 17.7734C102.982 17.6562 103.053 17.5456 103.184 17.4414C103.314 17.3372 103.411 17.2266 103.477 17.1094C103.542 16.9271 103.607 16.8099 103.672 16.7578C103.75 16.6927 103.789 16.6016 103.789 16.4844C103.919 16.3542 104.049 16.2174 104.18 16.0742C104.31 15.931 104.427 15.7552 104.531 15.5469C104.896 15.3385 105.15 15.2344 105.293 15.2344C105.436 15.2344 105.547 15.1693 105.625 15.0391C105.729 15.0391 105.84 15.0391 105.957 15.0391C106.087 15.0391 106.224 15.0326 106.367 15.0195C106.667 14.9935 106.823 15.0911 106.836 15.3125C106.849 15.3646 106.849 15.4297 106.836 15.5078C106.823 15.5469 106.81 15.5859 106.797 15.625C106.784 15.6641 106.771 15.7031 106.758 15.7422C106.771 15.9766 106.771 16.1003 106.758 16.1133C106.732 16.1393 106.719 16.1589 106.719 16.1719C106.693 16.276 106.686 16.3672 106.699 16.4453C106.712 16.5104 106.719 16.6276 106.719 16.7969C106.706 16.901 106.693 16.9922 106.68 17.0703C106.667 17.1484 106.654 17.2201 106.641 17.2852C106.615 17.4154 106.667 17.5651 106.797 17.7344C106.862 17.8255 106.94 17.8971 107.031 17.9492C107.122 18.0013 107.214 18.0859 107.305 18.2031C107.37 18.2682 107.415 18.3464 107.441 18.4375C107.467 18.5286 107.513 18.6068 107.578 18.6719C107.63 18.737 107.708 18.8021 107.812 18.8672C107.917 18.9323 107.995 19.0234 108.047 19.1406C108.19 19.2448 108.236 19.3099 108.184 19.3359C108.145 19.362 108.203 19.4141 108.359 19.4922C108.659 19.8698 108.88 20.2734 109.023 20.7031C109.193 21.0286 109.336 21.2891 109.453 21.4844C109.583 21.6927 109.583 21.901 109.453 22.1094C109.375 22.1875 109.284 22.3438 109.18 22.5781C109.062 22.6953 108.958 22.8255 108.867 22.9688C108.815 23.0599 108.776 23.1576 108.75 23.2617C108.737 23.3529 108.698 23.4375 108.633 23.5156C108.398 23.8932 108.158 24.2318 107.91 24.5312C107.663 24.8307 107.448 25.1562 107.266 25.5078C107.279 26.25 107.422 26.7969 107.695 27.1484C108.008 27.513 108.203 27.6953 108.281 27.6953C108.451 27.7214 108.633 27.6693 108.828 27.5391L109.336 27.2266C109.388 27.2005 109.434 27.1745 109.473 27.1484C109.525 27.1224 109.57 27.0964 109.609 27.0703C109.688 27.0182 109.779 26.9792 109.883 26.9531C110.156 26.862 110.286 26.8294 110.273 26.8555C110.26 26.8945 110.273 26.9141 110.312 26.9141ZM122.812 10.4297L123.203 10.5469C123.255 10.612 123.281 10.6901 123.281 10.7812C123.281 10.8464 123.32 10.9115 123.398 10.9766C123.346 11.2109 123.301 11.4518 123.262 11.6992C123.223 11.9466 123.203 12.1875 123.203 12.4219C123.203 12.513 123.236 12.6042 123.301 12.6953C123.366 12.7865 123.398 12.8646 123.398 12.9297C123.268 13.2292 123.171 13.4115 123.105 13.4766C123.04 13.5417 123.008 13.6068 123.008 13.6719C122.878 13.724 122.78 13.8021 122.715 13.9062C122.65 14.0104 122.539 14.0625 122.383 14.0625C122.331 14.1406 122.272 14.1992 122.207 14.2383C122.129 14.2904 122.083 14.362 122.07 14.4531C121.641 14.6354 121.172 14.6224 120.664 14.4141C120.521 14.1667 120.339 13.9974 120.117 13.9062C119.779 13.4115 119.766 12.8255 120.078 12.1484C120.13 12.0182 120.189 11.8815 120.254 11.7383C120.319 11.5951 120.378 11.4974 120.43 11.4453C120.703 11.25 120.911 11.1198 121.055 11.0547C121.107 11.0286 121.159 11.0026 121.211 10.9766C121.276 10.9375 121.335 10.8984 121.387 10.8594C121.478 10.7943 121.615 10.7292 121.797 10.6641C121.875 10.638 121.947 10.625 122.012 10.625C122.116 10.625 122.214 10.599 122.305 10.5469C122.357 10.5339 122.402 10.5208 122.441 10.5078C122.493 10.4948 122.539 10.4818 122.578 10.4688C122.682 10.4427 122.76 10.4297 122.812 10.4297ZM116.953 27.7344L117.148 27.8125C117.383 27.7083 117.669 27.6693 118.008 27.6953C118.359 27.7214 118.633 27.6693 118.828 27.5391C118.958 27.4349 119.049 27.3568 119.102 27.3047C119.18 27.2266 119.271 27.2005 119.375 27.2266C119.792 27.0703 120.143 26.9141 120.43 26.7578C120.729 26.6016 121.042 26.4844 121.367 26.4062C121.576 26.3281 121.758 26.2109 121.914 26.0547C122.448 25.8854 122.897 25.6445 123.262 25.332C123.639 25.0195 124.049 24.6875 124.492 24.3359C124.857 24.1276 125.163 23.9453 125.41 23.7891C125.658 23.6328 125.924 23.4375 126.211 23.2031C126.276 23.0599 126.348 22.9622 126.426 22.9102C126.491 22.8711 126.562 22.7865 126.641 22.6562C127.109 22.6562 127.37 22.8385 127.422 23.2031C127.292 23.4896 127.116 23.724 126.895 23.9062C126.66 24.1016 126.458 24.3099 126.289 24.5312C126.081 24.6615 125.911 24.7786 125.781 24.8828C125.651 24.987 125.521 25.1432 125.391 25.3516C125.378 25.3516 125.299 25.4102 125.156 25.5273C125.026 25.6445 124.948 25.7031 124.922 25.7031C124.714 25.9505 124.557 26.1003 124.453 26.1523C124.349 26.2044 124.167 26.3411 123.906 26.5625C123.737 26.849 123.503 27.0833 123.203 27.2656C122.643 27.7995 122.051 28.2487 121.426 28.6133C121.1 28.7956 120.794 28.9844 120.508 29.1797C120.221 29.362 119.948 29.5443 119.688 29.7266C119.557 29.8047 119.466 29.8763 119.414 29.9414C119.362 30.0065 119.271 30.0911 119.141 30.1953C119.01 30.2995 118.809 30.4036 118.535 30.5078C118.262 30.612 118.021 30.7031 117.812 30.7812C117.643 30.8854 117.5 30.9635 117.383 31.0156C116.797 31.0417 116.354 30.9505 116.055 30.7422C115.716 30.5599 115.456 30.4167 115.273 30.3125C115.091 30.2083 114.935 30.0391 114.805 29.8047C114.505 29.6615 114.329 29.4206 114.277 29.082C114.251 28.8997 114.219 28.724 114.18 28.5547C114.141 28.3854 114.102 28.2161 114.062 28.0469C114.036 27.9167 114.01 27.7669 113.984 27.5977C113.958 27.4284 113.958 27.2526 113.984 27.0703C114.049 26.7708 114.089 26.4648 114.102 26.1523C114.115 25.8659 114.18 25.5859 114.297 25.3125C114.414 25.0521 114.486 24.7656 114.512 24.4531C114.538 24.1406 114.609 23.8542 114.727 23.5938C114.896 23.3333 114.967 23.1901 114.941 23.1641C114.928 23.151 114.935 23.112 114.961 23.0469L115.137 22.8125C115.176 22.7604 115.234 22.6693 115.312 22.5391L115.547 21.9531C115.664 21.7318 115.781 21.5495 115.898 21.4062C116.016 21.25 116.12 21.0286 116.211 20.7422C116.276 20.5599 116.348 20.4167 116.426 20.3125C116.478 20.2474 116.523 20.1823 116.562 20.1172C116.615 20.0391 116.667 19.9609 116.719 19.8828C116.784 19.7526 116.849 19.5898 116.914 19.3945C116.94 19.3034 116.966 19.2188 116.992 19.1406C117.031 19.0495 117.07 18.9583 117.109 18.8672C117.188 18.6589 117.285 18.4505 117.402 18.2422C117.52 18.0339 117.643 17.8255 117.773 17.6172C117.878 17.4089 117.969 17.2526 118.047 17.1484C118.125 17.0443 118.281 16.9792 118.516 16.9531C118.633 16.9271 118.75 16.9336 118.867 16.9727C119.01 17.0117 119.141 17.0052 119.258 16.9531C119.596 16.7969 119.831 16.7188 119.961 16.7188C120.091 16.7188 120.182 16.6797 120.234 16.6016C120.508 16.6146 120.716 16.7057 120.859 16.875C121.003 17.0312 121.159 17.1875 121.328 17.3438C121.172 18.099 120.996 18.6784 120.801 19.082C120.605 19.4857 120.391 19.9089 120.156 20.3516C120.026 20.5599 119.896 20.7943 119.766 21.0547C119.635 21.3151 119.518 21.5495 119.414 21.7578C119.284 22.0443 119.147 22.2982 119.004 22.5195C118.835 22.7799 118.711 23.0339 118.633 23.2812L118.457 23.6523C118.379 23.8086 118.32 23.9323 118.281 24.0234C118.255 24.1146 118.223 24.2057 118.184 24.2969C118.158 24.375 118.118 24.4466 118.066 24.5117C118.014 24.5768 117.969 24.6484 117.93 24.7266C117.891 24.7917 117.852 24.8568 117.812 24.9219C117.734 25.0781 117.656 25.2344 117.578 25.3906C117.5 25.5469 117.435 25.7161 117.383 25.8984C117.253 26.1849 117.174 26.3737 117.148 26.4648C117.135 26.4909 117.122 26.5234 117.109 26.5625C117.096 26.5885 117.083 26.6146 117.07 26.6406C117.018 26.9271 116.94 27.1615 116.836 27.3438C116.732 27.526 116.771 27.6562 116.953 27.7344ZM144.023 18.7109C144.154 18.724 144.238 18.776 144.277 18.8672C144.316 18.9453 144.388 18.9844 144.492 18.9844C144.544 19.2318 144.492 19.4076 144.336 19.5117C144.18 19.6029 144.128 19.7526 144.18 19.9609C143.945 20.1172 143.659 20.2148 143.32 20.2539C142.969 20.293 142.708 20.4297 142.539 20.6641C142.083 20.8854 141.608 21.0221 141.113 21.0742C140.866 21.1003 140.605 21.1393 140.332 21.1914C140.072 21.2305 139.805 21.276 139.531 21.3281C139.245 21.5234 139.069 21.6276 139.004 21.6406C138.913 21.6536 138.815 21.6927 138.711 21.7578C138.438 21.6536 138.164 21.6016 137.891 21.6016C137.617 21.6016 137.331 21.5625 137.031 21.4844C136.888 21.5365 136.738 21.5625 136.582 21.5625C136.426 21.5625 136.276 21.5885 136.133 21.6406C136.029 21.875 135.977 22.1094 135.977 22.3438C135.977 22.5911 135.938 22.8255 135.859 23.0469L135.625 23.5156L135.566 23.8867C135.54 24.043 135.508 24.1667 135.469 24.2578C135.417 24.3359 135.358 24.4271 135.293 24.5312C135.228 24.6354 135.195 24.7526 135.195 24.8828C135.013 25.1172 134.883 25.3581 134.805 25.6055C134.727 25.8919 134.583 26.1198 134.375 26.2891C134.297 26.5625 134.173 26.7708 134.004 26.9141C133.835 27.0703 133.672 27.2526 133.516 27.4609C133.229 27.8516 132.975 28.1901 132.754 28.4766C132.533 28.763 132.24 29.0104 131.875 29.2188C131.745 29.4271 131.589 29.5703 131.406 29.6484C131.276 29.7786 131.172 29.9089 131.094 30.0391L130.312 30.5078C130 30.7031 129.701 30.8333 129.414 30.8984C128.971 31.0026 128.542 30.9896 128.125 30.8594C127.708 30.7292 127.318 30.5469 126.953 30.3125C126.706 30.3385 126.517 30.293 126.387 30.1758C126.257 30.0716 126.081 29.987 125.859 29.9219C125.573 29.6615 125.26 29.4271 124.922 29.2188C124.57 28.9974 124.323 28.7109 124.18 28.3594L124.004 27.5C123.952 27.2396 123.893 26.9792 123.828 26.7188C123.776 26.4974 123.77 26.25 123.809 25.9766C123.848 25.7422 123.854 25.4818 123.828 25.1953C123.828 25.0521 123.828 24.9219 123.828 24.8047C123.828 24.6745 123.822 24.5638 123.809 24.4727C123.796 24.2773 123.854 24.0365 123.984 23.75C124.062 23.5807 124.128 23.4245 124.18 23.2812C124.232 23.138 124.271 23.0143 124.297 22.9102C124.323 22.806 124.349 22.7083 124.375 22.6172C124.401 22.513 124.427 22.4219 124.453 22.3438C124.492 22.2786 124.531 22.2135 124.57 22.1484C124.609 22.0703 124.648 21.9922 124.688 21.9141C124.727 21.8359 124.766 21.7643 124.805 21.6992C124.857 21.6211 124.909 21.5495 124.961 21.4844C125.117 21.25 125.299 21.0156 125.508 20.7812C125.716 20.5469 125.924 20.3255 126.133 20.1172C126.276 19.9219 126.419 19.7526 126.562 19.6094C126.797 19.375 127.018 19.1797 127.227 19.0234C127.435 18.8672 127.669 18.6589 127.93 18.3984C127.982 18.3203 128.047 18.2552 128.125 18.2031L128.359 18.0469C128.62 17.8906 128.861 17.7604 129.082 17.6562C129.303 17.5521 129.557 17.4349 129.844 17.3047C130.091 17.1875 130.293 17.1159 130.449 17.0898C130.553 17.0638 130.658 17.0443 130.762 17.0312C130.879 17.0052 131.003 16.9792 131.133 16.9531H131.602C131.745 16.9531 131.875 16.9271 131.992 16.875C131.914 16.6667 132.005 16.5234 132.266 16.4453C132.526 16.3672 132.721 16.3411 132.852 16.3672C133.112 16.3672 133.32 16.4258 133.477 16.543C133.633 16.6602 133.776 16.7969 133.906 16.9531C134.167 17.1354 134.453 17.4089 134.766 17.7734C134.831 17.8385 134.896 17.8776 134.961 17.8906C135.026 17.9036 135.091 17.9427 135.156 18.0078C135.26 18.1641 135.332 18.3073 135.371 18.4375C135.41 18.5938 135.495 18.737 135.625 18.8672C135.703 18.9193 135.781 18.9844 135.859 19.0625C135.938 19.1406 135.99 19.2448 136.016 19.375C136.289 19.4792 136.536 19.5573 136.758 19.6094C136.875 19.6615 137.012 19.6745 137.168 19.6484C137.311 19.6224 137.474 19.6224 137.656 19.6484C137.773 19.6615 137.891 19.694 138.008 19.7461C138.112 19.7852 138.229 19.8047 138.359 19.8047C138.555 19.7917 138.77 19.7396 139.004 19.6484C139.225 19.5703 139.479 19.5573 139.766 19.6094C140.156 19.7005 140.566 19.6615 140.996 19.4922C141.426 19.3099 141.862 19.1927 142.305 19.1406C142.435 19.1406 142.526 19.1341 142.578 19.1211C142.63 19.1081 142.721 19.1016 142.852 19.1016C142.982 18.9974 143.151 18.9193 143.359 18.8672C143.568 18.8151 143.789 18.763 144.023 18.7109ZM132.852 19.8828C132.591 19.6484 132.441 19.4987 132.402 19.4336C132.35 19.3555 132.305 19.3099 132.266 19.2969C132.148 19.1797 132.018 19.1146 131.875 19.1016C131.797 19.0885 131.719 19.0755 131.641 19.0625C131.576 19.0495 131.51 19.0365 131.445 19.0234C131.029 18.9453 130.684 18.9909 130.41 19.1602C130.28 19.2513 130.143 19.3359 130 19.4141C129.87 19.4922 129.74 19.5703 129.609 19.6484C129.193 19.9089 128.828 20.2344 128.516 20.625C128.438 20.7552 128.353 20.8984 128.262 21.0547C128.171 21.2109 128.099 21.3802 128.047 21.5625C127.943 21.7708 127.852 21.9596 127.773 22.1289C127.695 22.2982 127.63 22.5 127.578 22.7344C127.448 22.9818 127.37 23.1966 127.344 23.3789C127.331 23.4701 127.318 23.5547 127.305 23.6328C127.292 23.6979 127.279 23.763 127.266 23.8281C127.253 23.9583 127.233 24.0951 127.207 24.2383C127.181 24.3685 127.155 24.5052 127.129 24.6484C127.064 24.974 127.031 25.2214 127.031 25.3906C127.057 25.4688 127.096 25.5729 127.148 25.7031C127.201 25.8333 127.253 25.9245 127.305 25.9766C127.357 26.1068 127.415 26.25 127.48 26.4062C127.546 26.5625 127.604 26.6797 127.656 26.7578C127.799 26.9401 127.969 27.0573 128.164 27.1094C128.268 27.1354 128.379 27.168 128.496 27.207C128.613 27.2331 128.737 27.2656 128.867 27.3047C129.154 27.4609 129.349 27.526 129.453 27.5C129.583 27.474 129.661 27.4609 129.688 27.4609C130.039 27.3958 130.339 27.2526 130.586 27.0312C130.807 26.8229 131.068 26.6406 131.367 26.4844C131.471 26.3281 131.576 26.1654 131.68 25.9961C131.797 25.8268 131.921 25.6576 132.051 25.4883C132.181 25.306 132.298 25.1302 132.402 24.9609C132.52 24.7786 132.63 24.5964 132.734 24.4141C132.799 24.3359 132.865 24.2188 132.93 24.0625C132.956 23.9974 132.982 23.9388 133.008 23.8867C133.034 23.8216 133.06 23.763 133.086 23.7109C133.268 23.4896 133.353 23.3724 133.34 23.3594C133.327 23.3464 133.333 23.3073 133.359 23.2422C133.529 22.8516 133.607 22.5521 133.594 22.3438C133.581 22.1354 133.581 21.9271 133.594 21.7188C133.529 21.5755 133.47 21.4258 133.418 21.2695C133.366 21.1133 133.314 20.9505 133.262 20.7812C133.158 20.4297 133.021 20.1302 132.852 19.8828ZM142.617 25.1953C142.826 25.0651 142.995 24.8958 143.125 24.6875C143.19 24.5833 143.262 24.4792 143.34 24.375C143.418 24.2708 143.503 24.1667 143.594 24.0625C143.932 23.6719 144.297 23.3464 144.688 23.0859C144.87 22.8125 145.098 22.6107 145.371 22.4805C145.645 22.3372 145.859 22.1224 146.016 21.8359C146.055 21.7839 146.1 21.7057 146.152 21.6016C146.204 21.4974 146.25 21.4193 146.289 21.3672C146.784 20.6771 147.318 20.1042 147.891 19.6484C147.969 19.5833 148.047 19.5182 148.125 19.4531C148.203 19.388 148.275 19.3229 148.34 19.2578C148.444 19.1536 148.62 19.0234 148.867 18.8672C148.984 18.8021 149.102 18.7305 149.219 18.6523C149.336 18.5612 149.447 18.4635 149.551 18.3594C149.759 18.151 150 17.9948 150.273 17.8906C150.443 17.8125 150.612 17.7539 150.781 17.7148C150.859 17.6888 150.938 17.6693 151.016 17.6562C151.107 17.6302 151.198 17.6042 151.289 17.5781C151.471 17.526 151.634 17.4805 151.777 17.4414C151.921 17.4023 152.083 17.4089 152.266 17.4609C152.682 17.6302 152.995 17.9818 153.203 18.5156C153.281 18.7109 153.236 19.1211 153.066 19.7461C152.91 20.3711 152.721 21.0221 152.5 21.6992C152.279 22.3633 152.122 22.8776 152.031 23.2422C151.979 23.4375 151.966 23.5482 151.992 23.5742C152.018 23.6003 152.031 23.6328 152.031 23.6719C151.979 23.8021 151.94 23.9193 151.914 24.0234C151.888 24.1276 151.862 24.2448 151.836 24.375C151.784 24.5833 151.745 24.8633 151.719 25.2148C151.693 25.5664 151.706 25.8464 151.758 26.0547C152.018 26.0417 152.168 26.0156 152.207 25.9766C152.233 25.9505 152.266 25.9375 152.305 25.9375C152.409 25.9115 152.493 25.9049 152.559 25.918C152.624 25.931 152.708 25.9245 152.812 25.8984C153.346 25.7552 153.828 25.4688 154.258 25.0391C154.492 24.9349 154.714 24.8307 154.922 24.7266C155.143 24.6224 155.352 24.5182 155.547 24.4141C155.911 24.1536 156.204 23.9648 156.426 23.8477C156.647 23.7305 156.979 23.5677 157.422 23.3594C157.591 23.1641 157.819 23.0013 158.105 22.8711C158.366 22.7539 158.62 22.5911 158.867 22.3828C158.945 22.3047 159.01 22.2331 159.062 22.168C159.141 22.0638 159.219 22.0443 159.297 22.1094C159.427 22.2396 159.512 22.3763 159.551 22.5195C159.59 22.6628 159.596 22.7604 159.57 22.8125C159.375 23.0078 159.264 23.1641 159.238 23.2812C159.212 23.3984 159.18 23.4766 159.141 23.5156C159.01 23.6458 158.815 23.763 158.555 23.8672C158.333 23.9583 158.197 24.043 158.145 24.1211C158.092 24.1992 158.047 24.2578 158.008 24.2969C157.93 24.375 157.858 24.4336 157.793 24.4727C157.728 24.5117 157.656 24.5703 157.578 24.6484C157.526 24.7266 157.454 24.7721 157.363 24.7852L157.109 24.8438C156.953 24.974 156.823 25.0911 156.719 25.1953C156.615 25.2995 156.497 25.4167 156.367 25.5469C156.172 25.7422 156.042 25.8919 155.977 25.9961C155.924 26.0872 155.781 26.2109 155.547 26.3672L154.766 26.8359C154.401 27.0182 154.036 27.2396 153.672 27.5C153.307 27.7604 152.943 28.0208 152.578 28.2812C152.344 28.4245 152.077 28.5612 151.777 28.6914C151.504 28.8086 151.25 28.9453 151.016 29.1016C150.898 29.1016 150.827 29.0951 150.801 29.082C150.762 29.056 150.69 29.0755 150.586 29.1406C150.456 29.0755 150.326 29.069 150.195 29.1211C150.052 29.1862 149.922 29.1927 149.805 29.1406C149.674 29.0365 149.564 28.9518 149.473 28.8867C149.395 28.8216 149.329 28.776 149.277 28.75C149.199 28.6979 149.128 28.6328 149.062 28.5547C149.01 28.4245 148.991 28.2812 149.004 28.125C149.017 27.9688 148.984 27.8385 148.906 27.7344C148.906 27.1615 148.926 26.6146 148.965 26.0938C149.004 25.5729 149.089 25.026 149.219 24.4531C149.245 24.2708 149.31 23.9583 149.414 23.5156C149.518 23.0599 149.603 22.6237 149.668 22.207C149.733 21.7904 149.714 21.5495 149.609 21.4844C149.323 21.6406 149.03 21.875 148.73 22.1875C148.587 22.3438 148.444 22.487 148.301 22.6172C148.158 22.7474 148.021 22.8646 147.891 22.9688L147.285 23.3984C147.194 23.4635 147.096 23.5352 146.992 23.6133C146.888 23.6784 146.784 23.75 146.68 23.8281C146.497 23.9583 146.341 24.0885 146.211 24.2188C146.081 24.349 145.938 24.5052 145.781 24.6875C145.69 24.7786 145.599 24.8698 145.508 24.9609C145.43 25.0391 145.352 25.1237 145.273 25.2148C145.117 25.3841 144.935 25.5469 144.727 25.7031C144.596 25.8333 144.499 25.918 144.434 25.957C144.368 25.9961 144.284 26.0677 144.18 26.1719L143.809 26.543C143.691 26.6602 143.542 26.7578 143.359 26.8359C142.943 27.3958 142.474 27.9362 141.953 28.457C141.445 28.9779 141.042 29.5052 140.742 30.0391C140.43 30.2995 140.098 30.5273 139.746 30.7227C139.395 30.918 138.971 30.9375 138.477 30.7812C138.216 30.625 138.047 30.4948 137.969 30.3906C137.891 30.2995 137.799 30.2214 137.695 30.1562C137.721 29.8698 137.747 29.5964 137.773 29.3359C137.799 29.0755 137.878 28.8021 138.008 28.5156L138.242 28.125C138.372 27.9036 138.457 27.6432 138.496 27.3438C138.535 27.0312 138.62 26.7578 138.75 26.5234C138.906 26.263 139.004 26.0482 139.043 25.8789C139.082 25.7227 139.141 25.5729 139.219 25.4297C139.284 25.2734 139.355 25.1497 139.434 25.0586C139.512 24.9674 139.583 24.8438 139.648 24.6875C139.714 24.5443 139.805 24.3945 139.922 24.2383C140.039 24.082 140.13 23.9323 140.195 23.7891C140.352 23.2292 140.56 22.6562 140.82 22.0703C140.872 21.888 140.924 21.7122 140.977 21.543C141.029 21.3737 141.094 21.2109 141.172 21.0547C141.237 20.9115 141.302 20.7682 141.367 20.625C141.432 20.4818 141.497 20.3451 141.562 20.2148C141.628 20.0716 141.693 19.9349 141.758 19.8047C141.823 19.6615 141.888 19.5182 141.953 19.375C142.031 19.2188 142.103 19.082 142.168 18.9648C142.233 18.8477 142.318 18.724 142.422 18.5938C142.461 18.5286 142.5 18.4635 142.539 18.3984C142.578 18.3333 142.611 18.2682 142.637 18.2031C142.663 18.138 142.695 18.0729 142.734 18.0078C142.773 17.9427 142.812 17.8776 142.852 17.8125C142.891 17.7474 142.93 17.6823 142.969 17.6172C143.008 17.5391 143.04 17.4544 143.066 17.3633C143.118 17.194 143.216 17.0312 143.359 16.875C143.451 16.7708 143.529 16.6732 143.594 16.582C143.672 16.4779 143.737 16.3802 143.789 16.2891C143.88 16.1198 144.049 16.0026 144.297 15.9375C144.518 16.0417 144.746 16.0026 144.98 15.8203C145.228 15.625 145.43 15.638 145.586 15.8594C145.951 16.0938 146.198 16.276 146.328 16.4062C146.484 16.5495 146.589 16.6927 146.641 16.8359C146.771 17.0703 146.784 17.3112 146.68 17.5586C146.576 17.806 146.393 18.0208 146.133 18.2031C146.042 18.6068 145.859 19.0234 145.586 19.4531C145.456 19.6484 145.332 19.8438 145.215 20.0391C145.098 20.2214 144.987 20.4036 144.883 20.5859L144.57 21.3672C144.414 21.7318 144.251 22.0964 144.082 22.4609C143.913 22.8255 143.724 23.1771 143.516 23.5156C143.346 23.8672 143.216 24.0951 143.125 24.1992C143.047 24.3034 142.975 24.4076 142.91 24.5117C142.858 24.6029 142.76 24.8307 142.617 25.1953Z" fill="#DD127A"/>
</svg>
